<?xml version="1.0" encoding="UTF-8"?>
<svg width="61px" height="55px" viewBox="0 0 61 55" version="1.1" xmlns="http://www.w3.org/2000/svg" xmlns:xlink="http://www.w3.org/1999/xlink">
    <!-- Generator: Sketch 45.2 (43514) - http://www.bohemiancoding.com/sketch -->
    <title>Combined Shape</title>
    <desc>Created with Sketch.</desc>
    <defs></defs>
    <g id="eClub" stroke="none" stroke-width="1" fill="none" fill-rule="evenodd">
        <g id="eClub---XL" transform="translate(-978.000000, -723.000000)" fill-rule="nonzero" fill="#6E181E">
            <g id="Group-3" transform="translate(775.000000, 319.000000)">
                <g id="Group-11" transform="translate(148.500000, 404.000000)">
                    <path d="M69.4503375,12.6709298 C68.2826697,12.6709298 67.3809065,11.7807276 67.3809065,10.6014987 L67.3809065,2.06943105 C67.3809065,0.901763251 68.2711086,0 69.4503375,0 C70.6180053,0 71.5197686,0.890202184 71.5197686,2.06943105 L71.5197686,10.6014987 C71.5197686,11.7807276 70.6180053,12.6709298 69.4503375,12.6709298 Z M100.621986,12.4081822 C99.5027448,12.4081822 98.6383799,11.5548989 98.6383799,10.4245756 L98.6383799,2.24635417 C98.6383799,1.12711248 99.4916632,0.262747612 100.621986,0.262747612 C101.75231,0.262747612 102.605593,1.11603088 102.605593,2.24635417 L102.605593,10.4245756 C102.594511,11.5548989 101.741228,12.4081822 100.621986,12.4081822 Z M112.945998,1.6180107 C114.088717,1.6180107 115,2.54375805 115,3.67201263 L115,52.4762556 C115,53.618975 114.074253,54.5302576 112.945998,54.5302576 L57.0540019,54.5302576 C55.9112825,54.5302576 55,53.6045102 55,52.4762556 L55,3.67201263 C55,2.52929324 55.9257473,1.6180107 57.0540019,1.6180107 L63.5920926,1.6180107 C64.734812,1.6180107 65.6460945,2.54375805 65.6460945,3.67201263 L65.6460945,10.6006529 C65.6460945,12.7414437 67.2806172,14.3759663 69.4214079,14.3759663 C71.4320154,14.3759663 73.1967213,12.7414437 73.1967213,10.6006529 L73.1967213,3.67201263 C73.1967213,2.52929324 74.1224687,1.6180107 75.2507232,1.6180107 L94.7782064,1.6180107 C95.9209257,1.6180107 96.8322083,2.54375805 96.8322083,3.67201263 L96.8322083,10.6006529 C96.8322083,12.7414437 98.466731,14.3759663 100.607522,14.3759663 C102.618129,14.3759663 104.382835,12.7414437 104.382835,10.6006529 L104.382835,3.67201263 C104.382835,2.52929324 105.308582,1.6180107 106.436837,1.6180107 L112.945998,1.6180107 Z M92.9990357,46.4155035 L91.4657666,37.4328612 L97.9893925,31.082813 L88.9778206,29.766516 L84.9421408,21.6083675 L80.9064609,29.766516 L71.8948891,31.082813 L78.4185149,37.4328612 L76.8852459,46.4155035 L84.9421408,42.1773164 L92.9990357,46.4155035 Z" id="Combined-Shape"></path>
                </g>
            </g>
        </g>
    </g>
</svg>