<?xml version="1.0" encoding="UTF-8"?>
<svg width="62px" height="63px" viewBox="0 0 62 63" version="1.1" xmlns="http://www.w3.org/2000/svg" xmlns:xlink="http://www.w3.org/1999/xlink">
    <!-- Generator: Sketch 45.2 (43514) - http://www.bohemiancoding.com/sketch -->
    <title>Shape</title>
    <desc>Created with Sketch.</desc>
    <defs></defs>
    <g id="eClub" stroke="none" stroke-width="1" fill="none" fill-rule="evenodd">
        <g id="eClub---XL" transform="translate(-810.000000, -720.000000)" fill-rule="nonzero" fill="#D29136">
            <g id="Group-3" transform="translate(775.000000, 319.000000)">
                <g id="Group-12" transform="translate(14.000000, 401.000000)">
                    <g id="Group-13">
                        <path d="M83.0521739,31.7217391 L79.0173913,25.8782609 L80.5478261,18.9217391 L74.426087,15.1652174 L73.0347826,8.20869565 L65.9391304,7.37391304 L61.9043478,1.53043478 L55.0869565,3.6173913 L48.9652174,3.55271368e-15 L43.6782609,4.59130435 L36.5826087,3.75652174 L33.5217391,10.2956522 L26.7043478,12.3826087 L26.5652174,19.4782609 L21.2782609,24.2086957 L24.0608696,30.7478261 L21,37.1478261 L26.1478261,42.0173913 L26.0086957,49.2521739 L32.6869565,51.6173913 L35.4695652,58.1565217 L42.5652174,57.6 L47.8521739,62.4695652 L54.1130435,58.9913043 L60.7913043,61.3565217 L65.1043478,55.6521739 L72.2,54.9565217 L73.8695652,48 L80.1304348,44.5217391 L78.7391304,37.5652174 L83.0521739,31.7217391 Z M38.5304348,17.6695652 C41.3130435,14.8869565 45.626087,14.8869565 48.4086957,17.6695652 C51.1913043,20.4521739 51.1913043,24.7652174 48.4086957,27.5478261 C45.626087,30.3304348 41.3130435,30.3304348 38.5304348,27.5478261 C35.7478261,24.7652174 35.7478261,20.3130435 38.5304348,17.6695652 Z M65.5217391,44.6608696 C62.7391304,47.4434783 58.426087,47.4434783 55.6434783,44.6608696 C52.8608696,41.8782609 52.8608696,37.5652174 55.6434783,34.7826087 C58.426087,32 62.7391304,32 65.5217391,34.7826087 C68.3043478,37.5652174 68.3043478,42.0173913 65.5217391,44.6608696 Z M38.5304348,47.1652174 L36.026087,44.6608696 L65.5217391,15.1652174 L68.026087,17.6695652 L38.5304348,47.1652174 Z" id="Shape"></path>
                    </g>
                </g>
            </g>
        </g>
    </g>
</svg>