<?xml version="1.0" encoding="UTF-8"?>
<svg width="549px" height="33px" viewBox="0 0 549 33" version="1.1" xmlns="http://www.w3.org/2000/svg" xmlns:xlink="http://www.w3.org/1999/xlink" alt="Texas small">
    <!-- Generator: Sketch 44 (41411) - http://www.bohemiancoding.com/sketch -->
    <title>Group 3</title>
    <desc>Created with Sketch.</desc>
    <defs></defs>
    <g id="Gift-Cards" stroke="none" stroke-width="1" fill="none" fill-rule="evenodd">
        <g id="Gift-Cards-List---XL" transform="translate(-446.000000, -849.000000)">
            <g id="Group-3" transform="translate(446.000000, 849.000000)">
                <g id="Group-7">
                    <rect id="Rectangle-5" fill="#EFECE9" x="301" y="15" width="248" height="1"></rect>
                    <rect id="Rectangle-5" fill="#EFECE9" x="0" y="15" width="226" height="1"></rect>
                    <g id="Group-15" transform="translate(247.000000, 0.000000)" fill="#6E181E">
                        <path d="M23.5533083,29.4206802 L23.752101,28.8730206 L23.9001073,28.6268651 L24.0989,27.3858918 L24.6328833,26.5964464 C24.6299812,26.5862506 24.622726,26.5745982 24.619824,26.5614894 C24.5995094,26.4828361 24.5820969,26.4143787 24.5733906,26.3444647 C24.5704885,26.32116 24.5675865,26.2978554 24.5646844,26.2789203 C24.5226042,26.2454199 24.483426,26.216289 24.445699,26.1886148 C24.4268354,26.178419 24.3934615,26.1653101 24.3644406,26.1492881 C24.2846333,26.1128746 24.2077281,26.073548 24.133725,26.0313083 C24.0843896,26.022569 24.0365052,26.0065471 23.9900719,25.9919817 C23.784024,25.9235242 23.6026437,25.8040878 23.4589906,25.6438683 C23.3269458,25.6336725 23.1978031,25.6016286 23.0773667,25.54628 C22.7276656,25.3889735 22.4737333,25.0743606 22.3997302,24.6942033 C22.3678073,24.5339837 22.2676854,24.0431292 22.6231906,23.542079 C22.6768792,23.4619692 22.7276656,23.3789464 22.774099,23.2930104 C22.8234344,23.208531 22.8742208,23.1240516 22.9264583,23.0410287 L22.9424198,23.014811 C22.9932062,22.9215923 23.0788177,22.7715686 23.228275,22.6128056 C23.3080823,22.4860865 23.3951448,22.3812155 23.4807562,22.2967361 C23.3994979,22.1394296 23.3530646,21.9690143 23.3400052,21.7840335 C23.1296042,21.6296401 22.9656365,21.4111589 22.8756719,21.1416987 C22.8481021,21.1358726 22.8219833,21.1285899 22.7944135,21.1169375 C22.6275437,21.0659586 22.6478583,20.9975011 22.4490656,20.9101086 C21.8991208,20.6654097 21.8613937,20.1337721 21.8613937,19.549699 L21.8613937,19.4943504 C21.8613937,19.4462845 21.662601,19.3982187 21.6553458,19.3545224 C21.6234229,19.2787823 21.4899271,19.1768244 21.4652594,19.0530183 C21.4275323,18.8738637 21.3854521,18.7136442 21.4028646,18.5883816 C21.3781969,18.4150532 21.3578823,18.2329855 21.3898052,18.0436351 C21.3970604,17.9941127 21.3970604,17.9475034 21.4072177,17.9023506 C21.3404698,17.8251539 21.276624,17.7421311 21.2243865,17.6503689 C21.0879885,17.6226947 20.9138635,17.5731722 20.7397385,17.4741274 C20.3305448,17.2367112 20.1941469,16.8536408 20.1506156,16.7298348 C20.1244969,16.6672035 20.0998292,16.6002026 20.0751615,16.5302886 L20.0461406,16.4458092 C20.0171198,16.386091 19.9968052,16.332199 19.9764906,16.2753938 C19.9445677,16.1821752 19.9242531,16.0904131 19.9140958,15.9971944 C19.7530302,15.9403893 19.606475,15.8559099 19.4802344,15.7481258 C19.4410562,15.7291908 19.4062312,15.7058861 19.3714062,15.6854946 C19.2988542,15.6417983 19.2321062,15.5937325 19.1653583,15.5485797 L19.155201,15.5427535 C18.7953427,15.5121661 18.4514458,15.3519466 18.1307656,15.067921 C17.9972698,14.9470281 17.865225,14.8101132 17.7186698,14.6367847 C17.6838448,14.5960016 17.6519219,14.5537619 17.622901,14.5100656 C17.3820281,14.6659156 17.0323271,14.785352 16.5650917,14.6848506 C16.5389729,14.6775679 16.5114031,14.6731983 16.4867354,14.6659156 C16.4170854,14.6659156 16.3445333,14.6630025 16.2748833,14.6600894 L16.0789927,14.6557198 C15.9774198,14.6528067 15.8831021,14.6426109 15.7960396,14.6280455 C15.3999052,14.5552184 15.0850292,14.3440199 14.8963937,14.0396028 C14.799174,14.0104719 14.7034052,13.9740584 14.6134406,13.9230794 C14.4973573,13.8633612 14.4030396,13.7934473 14.3261344,13.7162506 C14.27825,13.6987721 14.2332677,13.679837 14.1868344,13.6536193 C13.7355604,13.4191161 13.5324146,13.0535242 13.4801771,12.6995847 C13.4177823,12.606366 13.3553875,12.5146039 13.30315,12.4170156 C13.2262448,12.2801007 13.1725562,12.1548382 13.127574,12.0485106 L13.1058083,11.9960751 C12.9839208,11.7149627 12.9665083,11.3988932 13.057924,11.1046718 L13.0724344,11.0580625 C13.1058083,10.9531915 13.1478885,10.811907 13.2189896,10.656057 C13.2596187,10.5730342 13.30315,10.5002071 13.3481323,10.4404889 C13.3684469,10.3356179 13.4003698,10.2234642 13.4526073,10.1113105 C13.5164531,9.75737098 13.72105,9.35536555 14.2187573,9.01307832 C14.3159771,8.94899049 14.4146479,8.88781575 14.5147698,8.82809756 L14.5684583,8.79605364 C14.7179156,8.70720462 14.8485094,8.66642146 14.8992958,8.65476913 L15.0327917,8.61252943 C15.0444,8.54261544 15.0574594,8.47270145 15.0719698,8.40278746 L15.0922844,8.30082956 C15.0966375,8.2600464 15.1024417,8.21635016 15.1067948,8.17411046 C15.112599,8.15371888 15.11405,8.13478384 15.1198542,8.11147918 C14.7774083,7.648299 14.5263781,7.01907311 14.6903458,6.58065414 C14.6830906,6.47141354 14.4349625,6.37965143 14.4349625,6.3082809 L14.4349625,6.25438886 C14.4349625,5.93103667 14.8238417,5.62224989 15.0574594,5.39794251 C15.2925281,5.17654821 15.7350958,5.05856836 16.0572271,5.07895994 L16.1863698,5.08187302 C16.2458625,5.08332956 16.9771875,5.08624264 17.0323271,5.09206881 C17.168725,5.02361136 18.1481781,4.99011091 18.1481781,4.97700204 L18.1481781,0 L8.94857396,0 L8.84845208,12.6515188 L0.335190625,12.9093266 L0.236519792,13.3375498 L0,13.7686861 L0.631203125,14.4416082 L1.0273375,15.0009201 L1.42492292,15.2033794 L1.81815521,15.9505851 L2.21574062,16.5972895 L3.14585833,17.2949728 L3.40414375,17.8921548 L3.84961354,18.637904 L4.492425,20.5255817 L7.11735937,22.3142146 L7.61071354,22.4132594 L8.15630521,22.8123517 L8.79911667,22.363737 L8.70189687,21.8189905 L8.8977875,21.5203995 L9.04724479,20.921761 L9.34470833,20.4760593 L9.54350104,20.2794262 L11.1759229,19.9283997 L12.8620333,20.5226686 L13.2567167,20.6741489 L14.5437906,21.766555 L14.7890167,22.065146 C14.7890167,22.065146 15.4173177,24.402895 15.9280844,24.9986204 C16.0078917,25.0903825 16.263275,24.8660751 16.3750052,25.247689 C16.5505812,25.8419579 17.1658229,26.8382322 17.1658229,26.8382322 C17.1658229,26.8862981 17.6127437,26.9358205 17.6127437,26.9358205 L18.109,28.6268651 L19.1972812,30.8131338 L20.9791604,31.5574264 L21.0778312,31.8560174 L22.9090458,32.0570201 L24.0669771,32.4531994 L24.7286521,31.962345 L24.0002292,31.0097669 L23.5533083,29.4206802 Z" id="Fill-96"></path>
                        <path d="M26.7346985,8.17469772 C26.8246631,8.20528509 26.9015683,8.23878555 26.9799245,8.2548075 C27.0074943,8.26209021 27.0423193,8.22276359 27.0698891,8.20528509 C27.1250287,8.16304539 27.170011,8.11206644 27.2295037,8.08293561 C27.2860943,8.05526133 27.3557443,8.04797862 27.4253943,8.0261305 C27.3963735,7.87901981 27.4747298,7.75667033 27.5704985,7.65471244 C27.6183829,7.60373349 27.7228579,7.6008204 27.8012141,7.58188536 C27.9593777,7.53818912 28.0957756,7.58916807 28.2336245,7.6605386 C28.354061,7.72316988 28.4803016,7.77851846 28.6021891,7.84114974 C28.702311,7.89649831 28.8024329,7.95621651 28.8952995,8.01739125 C28.9257714,8.03632629 28.9417329,8.07565291 28.9693027,8.1106099 C28.9881662,8.10769682 29.017187,8.10769682 29.0404037,8.0931314 C29.1390745,8.03195666 29.2029204,8.03923937 29.2624131,8.14411035 C29.3073954,8.22276359 29.3262589,8.31889532 29.3784964,8.38735277 C29.4249298,8.44561443 29.4452443,8.49804992 29.4263808,8.55776812 C29.4046152,8.6203994 29.3668881,8.67720451 29.3451225,8.73692271 C29.3262589,8.77770587 29.3248079,8.81994557 29.329161,8.86946798 C29.4365381,8.76314046 29.4626568,8.60583398 29.607761,8.54028962 C29.6861173,8.60000782 29.6034079,8.63933444 29.5917995,8.71798767 C29.6483902,8.68303068 29.6846662,8.66555218 29.7209423,8.63933444 C29.8109068,8.57670315 29.9153818,8.57961624 30.0198568,8.57670315 C30.1504506,8.57233353 30.2723381,8.61311669 30.3898725,8.67720451 C30.4537183,8.71216151 30.5277214,8.72964 30.5988225,8.75003158 C30.7061995,8.7820755 30.8135766,8.81557595 30.9238558,8.83451099 C30.9877016,8.84761986 31.0573516,8.83014136 31.1255506,8.82285866 C31.2358298,8.81557595 31.3446579,8.80246708 31.454937,8.79955399 C31.5884329,8.79664091 31.698712,8.84761986 31.8176975,8.90442497 C32.1528881,9.06173145 32.4053693,9.31080003 32.6607527,9.56715132 C32.8290735,9.7317405 33.0002964,9.89778622 33.229561,9.98809179 C33.2803475,10.0070268 33.3311339,10.0259619 33.3819204,10.0332446 C33.5357308,10.0565492 33.6938943,10.0652885 33.8433516,10.0929628 C33.9521798,10.1148109 34.0116725,10.206573 34.0479485,10.2983351 C34.1074412,10.451272 34.1567766,10.6129481 34.2017589,10.7702545 C34.2336818,10.8794951 34.2496433,10.997475 34.2656048,11.1125418 C34.2830173,11.2276085 34.3192933,11.3441319 34.309136,11.4562855 C34.2931745,11.6194182 34.2452902,11.7854639 34.2162693,11.9500531 C34.1901506,12.1029899 34.1161475,12.2413614 34.0421443,12.3782763 C33.9347673,12.5836486 33.7969183,12.7715424 33.6344016,12.9434143 C33.4791402,13.1050904 33.3209766,13.2594838 33.1918339,13.4371819 C33.1062225,13.5537052 33.0670443,13.706642 33.0061006,13.8391873 C32.917587,14.0241681 32.8609964,14.2208012 32.7202454,14.3795642 C32.6897735,14.4101515 32.6462423,14.4349128 32.6056131,14.462587 C32.5504735,14.4130646 32.4953339,14.3649988 32.4416454,14.3154764 C32.4314881,14.3169329 32.4242329,14.3169329 32.4155266,14.319846 C32.4938829,14.4363693 32.427135,14.5193922 32.3690933,14.6082412 C32.3560339,14.6286328 32.357485,14.6606767 32.357485,14.6854379 C32.357485,14.9694635 32.3487787,15.2491194 32.360387,15.533145 C32.3690933,15.6831688 32.4198798,15.8331925 32.4416454,15.9846728 C32.4518027,16.0633261 32.4489006,16.1419793 32.4416454,16.2177195 C32.4343902,16.2876334 32.4082714,16.3546343 32.3995652,16.4245483 C32.3792506,16.6328338 32.3690933,16.8440323 32.3357193,17.0508611 C32.3270131,17.1193186 32.2733245,17.1804933 32.2370485,17.2402115 C32.1615943,17.3669306 32.1528881,17.5125848 32.1369266,17.6509562 C32.1209652,17.7631099 32.1267693,17.8810898 32.1267693,17.9932434 C32.1282204,18.1010275 32.0904933,18.1913331 32.0280985,18.2787256 C31.9961756,18.3238783 31.9831162,18.3835965 31.9642527,18.4389451 C31.9236235,18.5336203 31.8960537,18.6355782 31.8467183,18.7273403 C31.8235016,18.7797758 31.7698131,18.8220155 31.733537,18.874451 C31.663887,18.9836916 31.6232579,19.103128 31.6319641,19.2298471 C31.6450235,19.4162844 31.5449016,19.5342643 31.4070527,19.6362222 C31.3403048,19.684288 31.2735568,19.7440062 31.2140641,19.8037244 C31.1966516,19.8226595 31.1966516,19.859073 31.1952006,19.8882038 C31.1922985,19.9697702 31.1473162,20.0047271 31.0660579,20.0076402 C30.7265141,20.0222056 30.3869704,20.0396841 30.0459756,20.052793 C29.9676193,20.0571626 29.9269902,20.0935762 29.8936162,20.1620336 C29.8602423,20.2217518 29.7934943,20.2727308 29.7310995,20.3062312 C29.644037,20.3470144 29.607761,20.4009064 29.6266245,20.4955816 C29.6295266,20.5130601 29.6164673,20.5305386 29.607761,20.5596694 C29.5265027,20.5305386 29.4481464,20.5043209 29.3683391,20.4810162 C29.3219058,20.4679073 29.2841787,20.4664508 29.2420985,20.5217994 C29.2029204,20.5698652 29.1231131,20.5858872 29.0694245,20.6252138 C28.9315756,20.719889 28.7879225,20.8116511 28.6645839,20.9238048 C28.5426964,21.0330454 28.4483787,21.1670472 28.3337464,21.2850271 C28.2945683,21.3258102 28.2408798,21.352028 28.1828381,21.370963 C28.178485,21.3753326 28.1741318,21.3767892 28.1741318,21.3826153 C28.1523662,21.5180737 28.1262475,21.653532 28.111737,21.7875338 C28.1059329,21.8224908 28.1349537,21.8603609 28.1480131,21.9011441 C28.1552683,21.9229922 28.1581704,21.9462969 28.1610725,21.9696015 C28.181387,22.1123426 28.2002506,22.2609098 28.2205652,22.406564 C28.2278204,22.444434 28.248135,22.4823041 28.2742537,22.514348 C28.354061,22.600284 28.3264912,22.689133 28.2873131,22.7765255 C28.2640964,22.8391568 28.2350756,22.9032446 28.2205652,22.9687889 C28.1857402,23.1290085 28.0812652,23.2440753 27.9898495,23.3707944 C27.9114933,23.4873177 27.833137,23.6125802 27.7750954,23.7422124 C27.7228579,23.8645619 27.7083475,24.0014768 27.6662673,24.1325655 C27.6299912,24.2286973 27.58646,24.324829 27.5371245,24.4151346 C27.4964954,24.4967009 27.4413558,24.5709845 27.3949225,24.6452681 C27.2831923,24.8200531 27.170011,24.9875554 26.997337,25.1040787 C26.9915329,25.1069917 26.9828266,25.1040787 26.9770225,25.1040787 C26.961061,25.0487301 27.0045923,24.922011 27.0510256,24.9001629 C27.170011,24.8506405 27.2178954,24.7399433 27.2831923,24.6452681 C27.342685,24.5578756 27.3949225,24.4617439 27.4311985,24.359786 C27.4587683,24.2913286 27.4587683,24.2155884 27.4674745,24.1383917 C27.4703766,24.1281959 27.4413558,24.1063478 27.4253943,24.1034347 C27.2889964,24.0684777 27.1845214,24.1427613 27.1772662,24.2767631 C27.1758152,24.3961995 27.1206756,24.4967009 27.0539277,24.5913761 C26.9654141,24.7137256 26.9059214,24.8433577 26.9015683,25.0021208 C26.8957641,25.1419487 26.8856068,25.2876029 26.8420756,25.4245178 C26.7811318,25.6226074 26.7245412,25.8338059 26.5242975,25.960525 C26.4662558,25.9969386 26.4314308,25.9881993 26.4169204,25.925568 C26.405312,25.8775022 26.3908016,25.8308928 26.3835464,25.7813704 C26.3791933,25.7493265 26.3748402,25.7158261 26.3893506,25.6881518 C26.4560985,25.5133668 26.4314308,25.3837346 26.2906798,25.2686678 C26.1165548,25.1244702 25.9409787,24.9773596 25.7523433,24.8491839 C25.6159454,24.7574218 25.4519777,24.7035298 25.3126777,24.6161373 C25.2502829,24.5811803 25.2067516,24.5141794 25.1312975,24.4981574 C25.1095318,24.4937878 25.0848641,24.4850486 25.0732558,24.4937878 C24.9992527,24.5389406 24.9513683,24.4879616 24.9325048,24.4384392 C24.8802673,24.3029809 24.768537,24.2272407 24.66116,24.1456744 C24.5886079,24.0874128 24.5088006,24.0364338 24.420287,24.0014768 C24.384011,23.9869114 24.3245183,24.0306076 24.2751829,24.0495427 C24.244711,24.061195 24.2185923,24.0830431 24.175061,24.1063478 C24.1561975,24.0087595 24.1518443,23.9490413 24.2055329,23.8703881 C24.3332245,23.6956031 24.4304443,23.5062527 24.5465277,23.3270981 C24.6161777,23.2207706 24.664062,23.0969646 24.7874006,23.022681 C24.8164214,23.006659 24.8265787,22.9585932 24.8425402,22.9250927 C24.9136412,22.7823516 25.0543923,22.708068 25.1762798,22.6163059 C25.2996183,22.5216307 25.4403693,22.4473471 25.569512,22.3541285 C25.6159454,22.3220845 25.6507704,22.2696491 25.6855954,22.2244963 C25.6957527,22.2128439 25.6928506,22.1793435 25.6826933,22.1647781 C25.6202985,22.0497113 25.6202985,22.0526244 25.6667318,21.9856235 C25.6507704,21.9098833 25.6435152,21.8516217 25.6290048,21.7977296 C25.6101412,21.7350984 25.5883756,21.6753802 25.5593548,21.6171185 C25.5404912,21.580705 25.5100193,21.545748 25.4809985,21.5093344 C25.4171527,21.4394204 25.3300902,21.4467032 25.2473808,21.4583555 C25.1777308,21.4656382 25.1443568,21.4423335 25.1472589,21.3665934 C25.151612,21.1204379 25.151612,20.8728258 25.1574162,20.6266703 C25.1588673,20.5640391 25.1429058,20.5407344 25.0776089,20.5436475 C24.9789381,20.5494736 24.8802673,20.5436475 24.7830475,20.5436475 C24.6916318,20.5480171 24.6350412,20.5247124 24.6060204,20.4183849 C24.5784506,20.297492 24.5160558,20.1867948 24.4667204,20.068815 C24.4275423,19.9857921 24.3898152,19.9071389 24.3535391,19.8255726 C24.3114589,19.7163319 24.2258475,19.6478745 24.1257256,19.6012652 C24.000936,19.541547 24.000936,19.5517428 23.9109714,19.665353 C23.8863037,19.6915707 23.8152027,19.7075927 23.7774756,19.6959404 C23.6309204,19.6507876 23.4916204,19.5939825 23.3494183,19.5342643 C23.302985,19.5095031 23.2536495,19.4861984 23.2623558,19.4090017 C23.2768662,19.3114134 23.2768662,19.2109121 23.269611,19.1104107 C23.2594537,18.9836916 23.2434923,18.8569725 23.2144714,18.7317099 C23.199961,18.6603394 23.1477235,18.5991647 23.1346641,18.5263376 C23.1245068,18.4768152 23.1404683,18.4214666 23.1549787,18.3690311 C23.1694891,18.3136826 23.1796464,18.2714429 23.1506256,18.2088116 C23.1201537,18.1388976 23.1245068,18.0456789 23.1375662,17.9684822 C23.1535277,17.8825463 23.2130204,17.8024365 23.2217266,17.7194137 C23.2391391,17.5635637 23.2507475,17.4077138 23.2246287,17.2547769 C23.2028631,17.1266013 23.1506256,17.0013387 22.9997173,16.9387075 C22.8966933,16.8979243 22.8313964,16.8047056 22.8052777,16.6983781 C22.7762568,16.5789417 22.7602954,16.4536792 22.7312745,16.3138512 C22.7428829,16.3269601 22.7414318,16.3196774 22.7356277,16.3196774 C22.5426391,16.2992858 22.3511016,16.2803507 22.1595641,16.2570461 C22.0783058,16.2468503 21.9912433,16.2366545 21.9259464,16.1973279 C21.8809641,16.1740232 21.8650027,16.0982831 21.840335,16.044391 C21.806961,15.9613682 21.7764891,15.8696061 21.7445662,15.7836701 C21.7286048,15.7356042 21.701035,15.691908 21.6850735,15.6452987 C21.6807204,15.6263636 21.6778183,15.5972328 21.6865245,15.5841239 C21.7692339,15.4807095 21.7329579,15.3714689 21.6995839,15.2622283 C21.6734652,15.1719227 21.6633079,15.075791 21.6371891,14.9825723 C21.6299339,14.9534415 21.598011,14.9330499 21.5733433,14.9097453 C21.5153016,14.8631359 21.4659662,14.8005046 21.4021204,14.7742869 C21.284586,14.7305907 21.1612475,14.7014598 21.0364579,14.6810683 C20.9493954,14.6635898 20.8637839,14.6708725 20.795585,14.5791104 C20.7520537,14.5179356 20.6519318,14.4990006 20.5793798,14.4538478 C20.4879641,14.3984992 20.4052548,14.338781 20.3152902,14.2805194 C20.2920735,14.2644974 20.2630527,14.249932 20.2340318,14.2382797 C20.1788923,14.2164315 20.1223016,14.1974965 20.06426,14.1785615 C20.0221798,14.161083 19.9771975,14.1275825 19.9380193,14.1363218 C19.7479329,14.163996 19.611535,14.0707774 19.4838433,13.9615368 C19.3764662,13.8654051 19.2777954,13.7619906 19.1834777,13.6556631 C19.1457506,13.6090538 19.1123766,13.5449659 19.1065725,13.4896174 C19.0833558,13.2361792 19.0717475,12.982741 19.0528839,12.7293027 C19.0499818,12.6914327 19.0528839,12.6521061 19.0528839,12.5880182 C18.9382516,12.6011271 18.8352277,12.6113229 18.7322037,12.6273448 C18.708987,12.6288014 18.6857704,12.6404537 18.6640048,12.6404537 C18.498586,12.6521061 18.3723454,12.738042 18.2490068,12.8327172 C18.1793568,12.8836961 18.0995495,12.9186531 18.0226443,12.9652625 C17.9660537,13.0002195 17.9181693,13.0453722 17.8630298,13.0846989 C17.8543235,13.090525 17.8499704,13.1021774 17.8441662,13.1021774 C17.7048662,13.0978077 17.6453735,13.211418 17.5626641,13.284245 C17.4828568,13.3512459 17.4074027,13.3235716 17.3319485,13.3075497 C17.2840641,13.3017235 17.2390818,13.2784189 17.1955506,13.2769623 C17.0141704,13.2696796 16.8356923,13.2696796 16.6557631,13.2594838 C16.619487,13.2594838 16.58176,13.2580273 16.546935,13.2522011 C16.4352048,13.2347226 16.4148902,13.2099614 16.4148902,13.0978077 C16.4119881,12.9099139 16.4119881,12.72202 16.4119881,12.5326697 C16.4119881,12.4991692 16.409086,12.4656688 16.407635,12.4146898 C16.3263766,12.4846038 16.2596287,12.5428654 16.1943318,12.5996706 C16.0709933,12.7118243 15.8446308,12.754064 15.6951735,12.6768673 C15.6559954,12.6564757 15.6313277,12.614236 15.6052089,12.5749094 C15.5529714,12.4875169 15.4963808,12.4132333 15.3773954,12.4176029 C15.3382173,12.420516 15.2917839,12.4248856 15.261312,12.4059506 C15.2090745,12.3797328 15.153935,12.3462324 15.1698964,12.2704922 C15.2047214,12.1364904 15.1162079,12.0447283 15.04946,11.94714 C14.9841631,11.8480952 14.9145131,11.7548765 14.8550204,11.6529186 C14.7984298,11.5524173 14.7534475,11.4460898 14.7084652,11.3397622 C14.6997589,11.3179141 14.6968568,11.2916964 14.704112,11.2727613 C14.7331329,11.1751731 14.7607027,11.0746717 14.805685,10.9829096 C14.8347058,10.9261045 14.8869433,10.8794951 14.9319256,10.8328858 C14.9682016,10.7935592 15.0117329,10.7600587 15.0393027,10.7192756 C15.0567152,10.6930578 15.0668725,10.6435354 15.0538131,10.6202308 C15.0015756,10.521186 15.0334985,10.4425327 15.085736,10.3609664 C15.1060506,10.3289225 15.1307183,10.2910524 15.1278162,10.2560954 C15.1176589,10.04781 15.2555079,9.92983014 15.4107693,9.82787224 C15.5094402,9.76378441 15.609562,9.70406622 15.7082329,9.64434802 C15.7285475,9.63415223 15.7546662,9.62832606 15.7735298,9.61958681 C15.8809068,9.58899944 15.9853818,9.55841207 16.0884058,9.52636816 C16.2189995,9.485585 16.3495933,9.44771492 16.4874423,9.46519342 C16.5367777,9.46956305 16.58176,9.46664996 16.6238402,9.46664996 C16.6339975,9.45499763 16.6383506,9.44917147 16.6383506,9.44480184 C16.6644693,9.23360334 16.6804308,9.02094829 16.7123537,8.80974978 C16.7326683,8.64661714 16.7747485,8.48639759 16.8023183,8.32472149 C16.8095735,8.29122104 16.8081225,8.25917713 16.8124756,8.22713321 C16.825535,8.15576268 16.8443985,8.08439215 16.8516537,8.01593471 C16.86036,7.9664123 16.8690662,7.91688989 16.86036,7.87319365 C16.8153777,7.66782131 16.7863568,7.45807934 16.6209381,7.29349016 C16.5367777,7.20901076 16.5440329,6.98470338 16.5933683,6.86818007 C16.6485079,6.72980863 16.7486298,6.71524322 16.8748704,6.72252593 C16.9082443,6.72543901 16.9416183,6.7181563 16.9836985,6.71524322 C16.9387162,6.5987199 16.8647131,6.53608862 16.7529829,6.50550125 C16.7196089,6.49384892 16.6717245,6.4472396 16.6673714,6.41665223 C16.6557631,6.3278032 16.6644693,6.24186726 16.6644693,6.1413659 C16.7457277,6.14427898 16.8153777,6.14719206 16.8879298,6.15447477 C17.0127193,6.1661271 17.1360579,6.18214906 17.2608475,6.18797522 C17.3798329,6.19234485 17.4494829,6.14427898 17.4915631,6.03503837 C17.5031714,6.03649492 17.5191329,6.03503837 17.524937,6.04086454 C17.6178037,6.15156169 17.6947089,6.07582153 17.7701631,6.02047296 C17.8760891,5.94910243 17.9326798,5.95055897 17.9950745,6.05542995 C18.0298995,6.11806124 18.0647245,6.19817101 18.0603714,6.26662846 C18.0516652,6.3875214 18.1184131,6.45306576 18.1996714,6.5142405 C18.2693214,6.56667599 18.3331673,6.62639419 18.4144256,6.65552502 C18.4681141,6.6759166 18.5406662,6.6584381 18.603061,6.64824231 C18.6596516,6.63950306 18.7118891,6.61328532 18.7655777,6.61037224 C18.7829902,6.60891569 18.8047558,6.6511554 18.8250704,6.6759166 C18.8410318,6.68902547 18.846836,6.71524322 18.8642485,6.72106938 C18.8758568,6.72543901 18.9106818,6.71378668 18.9135839,6.70213435 C18.9600173,6.58415449 19.0717475,6.53900171 19.1559079,6.46908772 C19.3445433,6.32197703 19.5389829,6.17777943 19.7334225,6.03212529 C19.7638943,6.00882063 19.8001704,5.98551597 19.8364464,5.9622113 C19.8727225,5.94181972 19.92496,5.92434123 19.8959391,5.87627536 C19.8785266,5.83986182 19.8364464,5.80199175 19.8001704,5.7932525 C19.6216923,5.75246934 19.6057308,5.72770813 19.5738079,5.54418392 C19.5578464,5.45387835 19.5056089,5.36211624 19.4838433,5.27181067 C19.4562735,5.13635232 19.3866235,5.02711171 19.3140714,4.91495802 C19.3053652,4.90476223 19.301012,4.89602298 19.29811,4.88437065 C19.2879527,4.86106599 19.2806975,4.8333917 19.2705402,4.80571741 C19.301012,4.80134779 19.335837,4.78386929 19.3605048,4.791152 C19.4548225,4.82173937 19.543336,4.86252253 19.6347516,4.90039261 C19.6681256,4.91350148 19.7000485,4.93389306 19.7334225,4.93389306 C19.9119006,4.93826268 20.06426,4.99361126 20.1832454,5.13489578 C20.1934027,5.14946119 20.2340318,5.14509157 20.2630527,5.14654811 C20.2485423,5.03293788 20.2499933,4.93389306 20.345762,4.86689215 C20.3718808,4.8508702 20.4110589,4.83776133 20.4415308,4.83776133 C20.6098516,4.84504403 20.7535048,4.78823892 20.8899027,4.69210718 C20.934885,4.66151981 20.9943777,4.64841094 21.0524193,4.63530207 C21.1989745,4.60180162 21.3513339,4.42992973 21.3687464,4.26971017 C21.4195329,4.25368822 21.4732214,4.22601393 21.5327141,4.2143616 C21.6009131,4.20416581 21.6400912,4.24349243 21.6400912,4.31340641 C21.6371891,4.41536431 21.6371891,4.51586567 21.6371891,4.60908432 C21.6966818,4.64841094 21.7561745,4.67608523 21.7968037,4.72123801 C21.8853173,4.83047862 21.8621006,4.9528281 21.8127652,5.07226449 C21.7184475,5.30531112 21.6241298,5.54418392 21.6894266,5.79907866 C21.7228006,5.93162393 21.7895485,6.05834304 21.8679048,6.17049673 C21.9520652,6.28702004 22.0681485,6.38460832 22.1697214,6.48656622 C22.3220808,6.39771719 22.4570277,6.31178124 22.5977787,6.23749763 C22.6616245,6.20399718 22.7356277,6.19817101 22.8052777,6.17486635 C22.85026,6.1588444 22.8966933,6.13990936 22.9387735,6.11514815 C23.0359933,6.04814725 23.1477235,6.07290845 23.2565516,6.06999537 C23.3334568,6.06853883 23.410362,6.07290845 23.4887183,6.07582153 C23.6236652,6.07582153 23.6294693,6.07582153 23.6236652,5.94327626 C23.6222141,5.88210153 23.6483329,5.83694874 23.6962173,5.80927445 C23.7397485,5.78305671 23.7948881,5.76994784 23.8398704,5.76994784 C23.9240308,5.76703475 24.0067402,5.77431746 24.0894495,5.78742633 C24.1692568,5.80490483 24.246162,5.83694874 24.3274204,5.86462303 C24.3607943,5.87627536 24.3970704,5.89084077 24.4231891,5.91414544 C24.5204089,5.99571176 24.6060204,5.92579777 24.698887,5.90540619 C24.7409673,5.89666694 24.7844985,5.89958002 24.8309318,5.89958002 C24.9383089,5.90540619 25.0427839,5.92434123 25.150161,5.91414544 C25.2473808,5.90686273 25.2996183,5.82675295 25.3402475,5.75392588 C25.4258589,5.61118482 25.4853516,5.45824797 25.5709631,5.32133308 C25.672536,5.16257006 25.7218714,4.97467622 25.8771329,4.84795712 C25.9279193,4.80571741 25.9540381,4.81882629 25.9772548,4.85523982 C26.0236881,4.92952344 26.0701214,5.00963321 26.1005933,5.09411262 C26.1426735,5.21209247 26.1716943,5.33589849 26.2007152,5.45824797 C26.2108725,5.48883534 26.1862048,5.5296185 26.19346,5.56311895 C26.2239318,5.69275114 26.2703652,5.81655716 26.2718162,5.95638514 C26.2718162,6.04377762 26.3109943,6.04523416 26.3864485,5.99862484 C26.405312,5.98551597 26.438686,5.99134213 26.47206,5.98551597 C26.4125673,6.11077853 26.4227245,6.13262665 26.5489652,6.18797522 C26.6752058,6.24186726 26.7129329,6.33362937 26.6621464,6.45743539 C26.6316745,6.53900171 26.6099089,6.62348111 26.5823391,6.70359089 C26.577986,6.72543901 26.5605735,6.74874367 26.5388079,6.75456984 C26.4169204,6.795353 26.3748402,6.90750669 26.3051902,6.99489917 C26.2674631,7.0487912 26.2152256,7.09685707 26.161537,7.13909677 C26.1078485,7.18279301 26.0672193,7.22648926 26.0831808,7.30368595 C26.088985,7.33281678 26.0454537,7.37796957 26.0164329,7.40273077 C25.9641954,7.44205739 25.9047027,7.47264476 25.848112,7.51051483 C25.8379548,7.51779754 25.8321506,7.53527604 25.8263464,7.54838491 C25.8437589,7.55129799 25.8597204,7.56440687 25.8713287,7.56003724 C25.9482339,7.53818912 26.0236881,7.51779754 26.1078485,7.4915798 C26.1020443,7.47264476 26.0991423,7.44205739 26.0933381,7.40855693 C26.1644391,7.40564385 26.19346,7.44060085 26.1978131,7.49303634 C26.2007152,7.53673258 26.1818516,7.57897228 26.1818516,7.62412507 C26.1818516,7.65616898 26.19346,7.68966943 26.2050683,7.7202568 C26.2181277,7.7202568 26.228285,7.71880026 26.2413443,7.71880026 C26.2456975,7.66345168 26.2485995,7.60810311 26.2602079,7.55275454 C26.2703652,7.49303634 26.2776204,7.42894851 26.3080923,7.37796957 C26.3313089,7.34009949 26.3893506,7.30222941 26.4314308,7.30222941 C26.7274433,7.29931633 27.0220048,7.30368595 27.3194683,7.31096866 C27.4181391,7.31096866 27.4515131,7.38233919 27.413786,7.46536205 C27.3992756,7.49303634 27.3949225,7.52799333 27.3876673,7.55566762 C27.3513912,7.73045259 27.275937,7.89067215 27.1511475,8.02321741 C27.1163225,8.06254403 27.0481235,8.07710945 26.9915329,8.09604449 C26.9088235,8.1280884 26.8246631,8.14556689 26.7346985,8.17469772" id="Fill-97"></path>
                    </g>
                </g>
            </g>
        </g>
    </g>
</svg>