<?xml version="1.0" encoding="UTF-8"?>
<svg width="19px" height="17px" viewBox="0 0 19 17" version="1.1" xmlns="http://www.w3.org/2000/svg" xmlns:xlink="http://www.w3.org/1999/xlink">
    <!-- Generator: Sketch 46.2 (44496) - http://www.bohemiancoding.com/sketch -->
    <title>“</title>
    <desc>Created with Sketch.</desc>
    <defs></defs>
    <g id="About" stroke="none" stroke-width="1" fill="none" fill-rule="evenodd">
        <g id="About---XL" transform="translate(-572.000000, -2222.000000)" fill="#D29136">
            <g id="testimonials" transform="translate(105.000000, 2187.000000)">
                <g id="Group-4" transform="translate(436.000000, 0.000000)">
                    <path d="M31,45.4496668 C31,42.0707157 31.4795009,39.5052543 32.438517,37.7532056 C33.3975331,36.0011569 34.9819708,35.0834309 37.1918776,35 L38.3802177,37.4403414 C37.1293271,37.5654877 36.2537168,38.1703526 35.7533605,39.2549542 C35.2530043,40.3395557 35.0028299,42.0915782 35.0028299,44.511074 L38.3176735,44.511074 L38.3176735,51.5192338 L31,51.5192338 L31,45.4496668 Z M42.0077823,45.4496668 C42.0077823,42.0707157 42.4872832,39.5052543 43.4462993,37.7532056 C44.4053155,36.0011569 45.9897531,35.0834309 48.1996599,35 L49.388,37.4403414 C48.1371094,37.5654877 47.2614991,38.1703526 46.7611429,39.2549542 C46.2607866,40.3395557 46.0106122,42.0915782 46.0106122,44.511074 L49.3254558,44.511074 L49.3254558,51.5192338 L42.0077823,51.5192338 L42.0077823,45.4496668 Z" id="“"></path>
                </g>
            </g>
        </g>
    </g>
</svg>