<svg xmlns="http://www.w3.org/2000/svg" width="257" height="84" viewBox="0 0 257 84"><style>.a{fill:#FFF;}.b{fill:#6E181E;}</style><title>  Page 1</title><desc>  Created with Sketch.</desc><g fill="none"><g transform="translate(-59 -5633)translate(-1 5585)translate(60 48)"><path d="M0 1.7L32.4 1.1 31.2 10C28.2 9.6 25.1 9.2 22.1 8.7L18.5 64.3 16.1 64.3 13.7 9.3 0.8 10 0 1.7Z" class="a"/><polygon points="43.7 6.4 43.6 10.4 38.2 10.5 37.8 20.6 43 20.6 42.7 25.1 37.9 25.6 36.1 45.8 42.4 45.5 42.4 49.1 32.6 49.2 33.6 6.2" class="a"/><polygon points="43.9 50.2 55.1 24.8 44.3 8.4 50 7.2 57.6 22.3 69 3.3 61.3 26.5 74.8 39.5 68.1 43.9 58.8 30.5" class="a"/><path d="M78.6 6.1L69.8 50.7 74.8 50.7 77 33.2 81.9 33.4 84.8 46.7 90.8 46.7 78.6 6.1ZM77.3 30L79 16.2 81.5 30.4 77.3 30Z" class="a"/><path d="M195.9 2.6L187.1 47.3 192.1 47.3 194.3 29.8 199.1 29.9 202 43.3 208.1 43.3 195.9 2.6ZM194.6 26.6L196.3 12.8 198.8 27 194.6 26.6Z" class="a"/><path d="M97.5 18.9C97.5 20.7 98 22.7 99 24.9 99.9 27.2 100.9 29.5 101.9 31.8 102.9 34.2 103.4 36.3 103.4 38.1 103.4 41.1 102.5 43.6 100.7 45.6 99.2 47.4 96.9 48.9 93.9 50L93.5 47.3C97.2 45.4 99 42.2 99 37.8 99 35.5 98.4 33.1 97 30.7 95.8 28.8 94.5 26.9 93.3 25 92 22.7 91.3 20.4 91.3 18.3 91.3 16.3 92 14.5 93.3 12.7 94.5 11.3 96 9.9 98.1 8.6 99.6 7.6 101.4 6.7 103.5 5.8L105.2 7C103 8.7 101.2 10.4 100 12.1 98.4 14.4 97.5 16.6 97.5 18.9" class="a"/><path d="M144.4 57.5C149.9 55.8 154.5 53.5 158.3 50.5 163.2 46.6 165.7 42.3 165.7 37.6 165.7 34.1 164.4 31.1 161.9 28.5 159.9 26.4 157.1 24.6 153.5 23.1 155.1 21 156.2 19.6 156.8 18.7 158.8 15.6 159.8 12.8 159.8 10.2 159.8 6.8 158.5 4.1 155.7 2.3 153.3 0.8 150.3 0 146.7 0L144.2 0.1 144.4 57.5ZM152.1 18.3C151.3 19.4 150.1 20.6 148.6 21.8L149.6 6.6C152.3 8.1 153.7 10.5 153.7 13.8 153.7 15.3 153.2 16.8 152.1 18.3L152.1 18.3ZM155.4 45.8C154.1 47 151.9 48.7 148.8 50.9L149.2 27.7C152.1 28.5 154.5 29.8 156.2 31.5 158.1 33.4 159.1 35.8 159.1 38.7 159.1 41 157.9 43.3 155.4 45.8L155.4 45.8Z" class="a"/><path d="M169.1 50.6L174 50.6 173.9 40.3 183.2 48.5 185.6 45.8 175.4 38.7C179.2 36.8 182 34.8 183.7 32.6 185.8 30 186.9 26.8 186.9 23 186.9 18.5 185.3 14.8 182.1 12 179.3 9.5 174.8 7.9 170.2 7.2L169.1 50.6ZM179.3 30.8C178 32.8 176.2 34.7 173.8 36.5L175.6 11.9C177.6 13.1 179.1 14.7 180.1 16.6 181 18.6 181.5 20.8 181.5 23.1 181.5 25.9 180.8 28.4 179.3 30.8L179.3 30.8Z" class="a"/><polygon points="228 8.4 212.1 41 223.7 41.6 222.4 47.8 205.6 45 220.3 11.5 209.6 11.1 210.2 7.1" class="a"/><path d="M234.5 10.9L232.2 14.1 229.8 11.6 231.8 8.4 234.5 10.9ZM234.4 39.5C234.1 43.3 233.3 46.6 232.2 49.3 230.9 46.8 229.6 44.2 229 41.3 226.6 28.8 232.2 15.6 232.2 15.6 232.2 15.6 236 21.6 234.4 39.5L234.4 39.5Z" class="a"/><polygon points="237.8 59.8 257 60.9 257 50.6 244.4 53.8 244.7 3 239.6 2.8" class="a"/><path d="M115.2 36.8C114.6 35.4 114.2 34 114.2 32.7 114.2 31.5 114.5 30.7 115 29.5 115.6 28.3 116.3 27.3 117.1 26.5L117.1 39.4C116.3 38.4 115.7 37.7 115.2 36.8M119.7 45.9L120.7 10.6 117.1 10.6 117.1 22.6C117.1 22.6 102.3 31.9 119.7 45.9" class="a"/><path d="M131.1 31.2L128.1 31.2 126.5 31.2C126.5 28.6 129.2 26.2 129.2 26.2 129.2 26.2 130.1 26.7 130.5 27.9 131.2 29.5 131.1 31.2 131.1 31.2M132.6 26C131.6 23.4 129.5 21.8 129.5 21.8 129.5 21.8 123.1 25.1 123.3 32.8 123.3 32.8 123.4 42.2 132.7 46.5L132.7 42.2C126.7 39.8 126.8 33.9 126.8 33.9L134 33.9C134 33.9 134.1 29.8 132.6 26" class="a"/><polygon points="252.2 47.8 252.2 43.5 251.3 43.5 251.3 43.2 253.5 43.2 253.5 43.5 252.6 43.5 252.6 47.8" class="a"/><path d="M253.9 47.8L253.9 43.2 254.4 43.2 255.3 47.2C255.4 46.7 255.6 46 255.7 45.3 255.9 44.5 256.1 43.8 256.2 43.2L256.7 43.2 256.7 47.8 256.3 47.8 256.3 44.1 255.5 47.8 255.1 47.8 254.3 44.1 254.3 47.8 253.9 47.8Z" class="a"/><path d="M32.7 77.3C32.4 77.3 32.2 77.2 32 77.1 31.7 77 31.5 76.9 31.4 76.8 31.3 76.6 31.1 76.5 31.1 76.2 31 76 30.9 75.8 30.9 75.5 30.8 75.3 30.8 75 30.8 74.7L30.8 72.7C30.8 72.4 30.8 72.1 30.9 71.9 30.9 71.6 31 71.4 31.1 71.2 31.1 70.9 31.3 70.8 31.4 70.6 31.5 70.5 31.7 70.4 32 70.3 32.2 70.2 32.4 70.1 32.7 70.1 33 70.1 33.3 70.2 33.6 70.3 33.8 70.4 34 70.5 34.1 70.7 34.3 70.9 34.4 71.1 34.4 71.4 34.5 71.6 34.6 71.9 34.6 72.2 34.6 72.3 34.6 72.4 34.6 72.5L33.6 72.5 33.6 72.2C33.6 72.1 33.6 72 33.6 71.9 33.6 71.8 33.5 71.7 33.5 71.6 33.5 71.5 33.5 71.4 33.4 71.3 33.4 71.3 33.3 71.2 33.3 71.1 33.2 71.1 33.1 71 33.1 71 33 71 32.9 71 32.7 71 32.6 71 32.4 71 32.3 71 32.2 71.1 32.1 71.2 32 71.2 32 71.3 31.9 71.4 31.9 71.6 31.9 71.7 31.8 71.8 31.8 72 31.8 72.1 31.8 72.3 31.8 72.5L31.8 74.9C31.8 75.1 31.8 75.3 31.8 75.4 31.8 75.5 31.9 75.7 31.9 75.8 32 75.9 32 76 32.1 76.1 32.1 76.2 32.2 76.3 32.3 76.4 32.4 76.4 32.6 76.4 32.7 76.4 32.9 76.4 33 76.4 33.1 76.4 33.2 76.3 33.3 76.2 33.4 76.1 33.4 76 33.5 75.9 33.5 75.8 33.5 75.7 33.6 75.5 33.6 75.4 33.6 75.3 33.6 75.1 33.6 74.9L33.6 74.7 34.6 74.7 34.6 74.9C34.6 75.3 34.5 75.6 34.5 75.9 34.4 76.2 34.3 76.4 34.2 76.6 34 76.8 33.8 77 33.6 77.1 33.4 77.2 33.1 77.3 32.7 77.3" class="a"/><path d="M32.7 77.3C32.4 77.3 32.2 77.3 31.9 77.2 31.7 77.1 31.5 77 31.4 76.8 31.2 76.7 31.1 76.5 31 76.3 30.9 76 30.9 75.8 30.8 75.5 30.8 75.3 30.8 75 30.8 74.7L30.8 72.7C30.8 72.4 30.8 72.1 30.8 71.9 30.9 71.6 30.9 71.4 31 71.1 31.1 70.9 31.2 70.7 31.4 70.6 31.5 70.4 31.7 70.3 31.9 70.2 32.2 70.1 32.4 70.1 32.7 70.1 33.1 70.1 33.3 70.2 33.6 70.2 33.8 70.3 34 70.5 34.2 70.7 34.3 70.9 34.4 71.1 34.5 71.4 34.6 71.6 34.6 71.9 34.6 72.2 34.6 72.3 34.6 72.4 34.6 72.5L34.6 72.5 33.5 72.5 33.5 72.2C33.5 72.1 33.5 72 33.5 71.9 33.5 71.8 33.5 71.7 33.5 71.6 33.5 71.5 33.4 71.4 33.4 71.3 33.4 71.3 33.3 71.2 33.2 71.2 33.2 71.1 33.1 71.1 33 71.1 33 71 32.8 71 32.7 71 32.6 71 32.4 71 32.3 71.1 32.2 71.1 32.1 71.2 32.1 71.3 32 71.3 32 71.5 31.9 71.6 31.9 71.7 31.9 71.8 31.9 72 31.9 72.1 31.9 72.3 31.9 72.5L31.9 74.9C31.9 75.1 31.9 75.3 31.9 75.4 31.9 75.5 31.9 75.7 32 75.8 32 75.9 32.1 76 32.1 76.1 32.2 76.2 32.3 76.3 32.4 76.3 32.5 76.4 32.6 76.4 32.7 76.4 32.9 76.4 33 76.4 33.1 76.3 33.2 76.3 33.3 76.2 33.3 76.1 33.4 76 33.4 75.9 33.5 75.8 33.5 75.6 33.5 75.5 33.5 75.4 33.5 75.3 33.5 75.1 33.5 74.9L33.5 74.6 34.6 74.6 34.6 74.9C34.6 75.3 34.6 75.6 34.5 75.9 34.5 76.2 34.4 76.4 34.2 76.6 34.1 76.9 33.9 77 33.6 77.1 33.4 77.2 33.1 77.3 32.7 77.3M32.7 70.2C32.4 70.2 32.2 70.2 32 70.3 31.8 70.4 31.6 70.5 31.4 70.7 31.3 70.8 31.2 71 31.1 71.2 31 71.4 31 71.6 30.9 71.9 30.9 72.1 30.9 72.4 30.9 72.7L30.9 74.7C30.9 75 30.9 75.3 30.9 75.5 31 75.8 31 76 31.1 76.2 31.2 76.4 31.3 76.6 31.4 76.7 31.6 76.9 31.8 77 32 77.1 32.2 77.2 32.4 77.2 32.7 77.2 33.1 77.2 33.3 77.1 33.6 77 33.8 76.9 34 76.8 34.1 76.6 34.3 76.4 34.4 76.1 34.4 75.9 34.5 75.6 34.5 75.3 34.5 74.9L34.5 74.7 33.6 74.7 33.6 74.9C33.6 75.1 33.6 75.3 33.6 75.4 33.6 75.5 33.6 75.7 33.5 75.8 33.5 75.9 33.5 76.1 33.4 76.2 33.3 76.3 33.2 76.3 33.1 76.4 33 76.5 32.9 76.5 32.7 76.5 32.6 76.5 32.4 76.5 32.3 76.4 32.2 76.3 32.1 76.3 32 76.2 32 76.1 31.9 76 31.9 75.8 31.8 75.7 31.8 75.5 31.8 75.4 31.8 75.3 31.8 75.1 31.8 74.9L31.8 72.5C31.8 72.3 31.8 72.1 31.8 72 31.8 71.8 31.8 71.7 31.8 71.6 31.9 71.4 31.9 71.3 32 71.2 32.1 71.1 32.2 71.1 32.3 71 32.4 70.9 32.6 70.9 32.7 70.9 32.9 70.9 33 70.9 33.1 71 33.2 71 33.3 71 33.3 71.1 33.4 71.2 33.4 71.2 33.5 71.3 33.5 71.4 33.6 71.5 33.6 71.6 33.6 71.7 33.6 71.8 33.6 71.9 33.6 72 33.6 72.1 33.6 72.2L33.6 72.4 34.5 72.4C34.5 72.3 34.5 72.3 34.5 72.2 34.5 71.9 34.5 71.6 34.4 71.4 34.3 71.1 34.2 70.9 34.1 70.7 34 70.6 33.8 70.4 33.5 70.3 33.3 70.2 33 70.2 32.7 70.2" class="a"/><polygon points="38.6 77.2 38.6 70.2 39.6 70.2 39.6 73.2 41.3 73.2 41.3 70.2 42.3 70.2 42.3 77.2 41.3 77.2 41.3 74 39.6 74 39.6 77.2" class="a"/><path d="M42.3 77.2L41.3 77.2 41.3 74 39.6 74 39.6 77.2 38.5 77.2 38.5 70.2 39.6 70.2 39.6 73.2 41.3 73.2 41.3 70.2 42.3 70.2 42.3 77.2ZM41.4 77.1L42.2 77.1 42.2 70.3 41.4 70.3 41.4 73.3 39.5 73.3 39.5 70.3 38.6 70.3 38.6 77.1 39.5 77.1 39.5 73.9 41.4 73.9 41.4 77.1Z" class="a"/><path d="M49.4 77.1C49.1 77.2 48.9 77.3 48.6 77.3 48.3 77.3 48 77.2 47.8 77.1 47.5 77.1 47.3 76.9 47.2 76.8 47 76.7 46.9 76.5 46.8 76.3 46.7 76 46.7 75.8 46.6 75.6 46.6 75.3 46.6 75 46.6 74.7L46.6 70.2 47.6 70.2 47.6 74.7C47.6 74.9 47.6 75.1 47.6 75.2 47.6 75.4 47.6 75.5 47.6 75.7 47.7 75.9 47.7 76 47.8 76.1 47.9 76.2 48 76.3 48.1 76.3 48.2 76.4 48.4 76.4 48.6 76.4 48.7 76.4 48.9 76.4 49 76.3 49.1 76.3 49.2 76.2 49.3 76.1 49.4 76 49.4 75.9 49.5 75.7 49.5 75.5 49.5 75.4 49.5 75.2 49.5 75.1 49.6 74.9 49.6 74.7L49.6 70.2 50.5 70.2 50.5 74.7C50.5 75 50.5 75.3 50.5 75.6 50.4 75.8 50.4 76 50.3 76.3 50.2 76.5 50.1 76.7 49.9 76.8 49.8 76.9 49.6 77.1 49.4 77.1" class="a"/><path d="M48.6 77.3C48.3 77.3 48 77.3 47.7 77.2 47.5 77.1 47.3 77 47.2 76.8 47 76.7 46.9 76.5 46.8 76.3 46.7 76.1 46.6 75.8 46.6 75.6 46.5 75.3 46.5 75 46.5 74.7L46.5 70.2 47.6 70.2 47.6 74.7C47.6 74.9 47.6 75.1 47.6 75.2 47.6 75.4 47.7 75.5 47.7 75.7 47.7 75.8 47.8 76 47.9 76.1 47.9 76.2 48 76.2 48.1 76.3 48.2 76.4 48.4 76.4 48.6 76.4 48.7 76.4 48.9 76.4 49 76.3 49.1 76.2 49.2 76.2 49.3 76.1 49.3 76 49.4 75.8 49.4 75.7 49.5 75.5 49.5 75.4 49.5 75.2 49.5 75.1 49.5 74.9 49.5 74.7L49.5 70.2 50.6 70.2 50.6 74.7C50.6 75 50.6 75.3 50.5 75.6 50.5 75.8 50.4 76.1 50.3 76.3 50.2 76.5 50.1 76.7 50 76.8 49.8 77 49.6 77.1 49.4 77.2L49.4 77.2C49.1 77.3 48.9 77.3 48.6 77.3L48.6 77.3ZM46.6 70.3L46.6 74.7C46.6 75 46.6 75.3 46.7 75.5 46.7 75.8 46.8 76 46.9 76.2 47 76.4 47.1 76.6 47.2 76.8 47.4 76.9 47.6 77 47.8 77.1 48 77.2 48.3 77.2 48.6 77.2 48.9 77.2 49.1 77.2 49.3 77.1 49.6 77 49.7 76.9 49.9 76.8 50 76.6 50.2 76.4 50.2 76.2 50.3 76 50.4 75.8 50.4 75.5 50.5 75.3 50.5 75 50.5 74.7L50.5 70.3 49.6 70.3 49.6 74.7C49.6 74.9 49.6 75.1 49.6 75.2 49.6 75.4 49.6 75.5 49.5 75.7 49.5 75.9 49.4 76 49.3 76.1 49.3 76.2 49.2 76.3 49 76.4 48.9 76.5 48.7 76.5 48.6 76.5 48.4 76.5 48.2 76.5 48.1 76.4 47.9 76.3 47.8 76.2 47.8 76.1 47.7 76 47.6 75.9 47.6 75.7 47.6 75.5 47.5 75.4 47.5 75.2 47.5 75.1 47.5 74.9 47.5 74.7L47.5 70.3 46.6 70.3Z" class="a"/><path d="M54.8 77.2L54.8 70.2 56.1 70.2C56.8 70.2 57.4 70.4 57.7 70.7 58.1 70.9 58.3 71.4 58.3 72.1 58.3 72.5 58.2 72.8 58.1 73.1 57.9 73.4 57.7 73.6 57.4 73.7L58.5 77.2 57.6 77.2 56.6 74 55.8 74 55.8 77.2 54.8 77.2ZM55.8 73.2L56.1 73.2C56.5 73.2 56.8 73.1 57 72.9 57.2 72.8 57.3 72.5 57.3 72.1 57.3 71.7 57.2 71.4 57 71.2 56.8 71.1 56.5 71 56.1 71L55.8 71 55.8 73.2Z" class="a"/><path d="M58.6 77.2L57.5 77.2 56.5 74 55.9 74 55.9 77.2 54.8 77.2 54.8 70.2 56.1 70.2C56.8 70.2 57.4 70.3 57.8 70.6 58.1 70.9 58.3 71.4 58.3 72.1 58.3 72.5 58.3 72.9 58.1 73.1 58 73.4 57.8 73.6 57.5 73.7L58.6 77.2ZM57.6 77.1L58.5 77.1 57.4 73.7 57.4 73.7C57.7 73.6 57.9 73.4 58 73.1 58.2 72.8 58.2 72.5 58.2 72.1 58.2 71.4 58.1 71 57.7 70.7 57.3 70.4 56.8 70.3 56.1 70.3L54.9 70.3 54.9 77.1 55.8 77.1 55.8 73.9 56.6 73.9 57.6 77.1ZM56.1 73.3L55.8 73.3 55.8 70.9 56.1 70.9C56.5 70.9 56.8 71 57 71.2 57.2 71.4 57.4 71.7 57.4 72.1 57.4 72.5 57.2 72.8 57 73 56.8 73.2 56.5 73.3 56.1 73.3L56.1 73.3ZM55.9 73.2L56.1 73.2C56.5 73.2 56.8 73.1 57 72.9 57.2 72.7 57.3 72.5 57.3 72.1 57.3 71.7 57.2 71.4 57 71.3 56.8 71.1 56.5 71 56.1 71L55.9 71 55.9 73.2Z" class="a"/><path d="M62.5 77.2L62.5 70.2 63.7 70.2C64.4 70.2 65 70.4 65.4 70.7 65.7 70.9 65.9 71.4 65.9 72.1 65.9 72.5 65.9 72.8 65.7 73.1 65.6 73.4 65.3 73.6 65.1 73.7L66.2 77.2 65.2 77.2 64.2 74 63.4 74 63.4 77.2 62.5 77.2ZM63.4 73.2L63.7 73.2C64.1 73.2 64.4 73.1 64.6 72.9 64.8 72.8 64.9 72.5 64.9 72.1 64.9 71.7 64.8 71.4 64.6 71.2 64.4 71.1 64.1 71 63.7 71L63.4 71 63.4 73.2Z" class="a"/><path d="M66.2 77.2L65.2 77.2 64.2 74 63.5 74 63.5 77.2 62.4 77.2 62.4 70.2 63.7 70.2C64.4 70.2 65 70.3 65.4 70.6 65.8 70.9 66 71.4 66 72.1 66 72.5 65.9 72.9 65.8 73.1 65.6 73.4 65.4 73.6 65.1 73.7L66.2 77.2ZM65.2 77.1L66.1 77.1 65 73.7 65 73.7C65.3 73.6 65.5 73.4 65.7 73.1 65.8 72.8 65.9 72.5 65.9 72.1 65.9 71.4 65.7 71 65.3 70.7 65 70.4 64.4 70.3 63.7 70.3L62.5 70.3 62.5 77.1 63.4 77.1 63.4 73.9 64.2 73.9 65.2 77.1ZM63.7 73.3L63.4 73.3 63.4 70.9 63.7 70.9C64.1 70.9 64.4 71 64.7 71.2 64.9 71.4 65 71.7 65 72.1 65 72.5 64.9 72.8 64.7 73 64.4 73.2 64.1 73.3 63.7 73.3L63.7 73.3ZM63.5 73.2L63.7 73.2C64.1 73.2 64.4 73.1 64.6 72.9 64.8 72.7 64.9 72.5 64.9 72.1 64.9 71.7 64.8 71.4 64.6 71.3 64.4 71.1 64.1 71 63.7 71L63.5 71 63.5 73.2Z" class="a"/><path d="M69.7 77.2L71.1 70.2 72.1 70.2 73.6 77.2 72.6 77.2 72.3 75.4 71 75.4 70.6 77.2 69.7 77.2ZM71.1 74.7L72.1 74.7 71.6 71.7 71.1 74.7Z" class="a"/><path d="M73.7 77.2L72.6 77.2 72.2 75.5 71.1 75.5 70.7 77.2 69.6 77.2 71.1 70.2 72.2 70.2 72.2 70.2 73.7 77.2ZM72.7 77.1L73.6 77.1 72.1 70.3 71.2 70.3 69.7 77.1 70.6 77.1 71 75.4 72.3 75.4 72.7 77.1ZM72.2 74.7L71.1 74.7 71.6 71.4 72.2 74.7ZM71.2 74.6L72.1 74.6 71.6 72 71.2 74.6Z" class="a"/><path d="M79.3 77.3C78.7 77.3 78.2 77.1 77.9 76.7 77.6 76.3 77.4 75.8 77.3 75.2L78.3 74.9C78.4 75.9 78.7 76.4 79.3 76.4 79.8 76.4 80.1 76.2 80.1 75.7 80.1 75.5 80.1 75.4 80 75.3 80 75.2 79.9 75 79.8 74.9 79.7 74.8 79.7 74.7 79.6 74.7 79.5 74.6 79.4 74.5 79.3 74.4L78.1 73.5C77.9 73.3 77.7 73 77.5 72.8 77.4 72.5 77.3 72.2 77.3 71.8 77.3 71.3 77.5 70.9 77.8 70.6 78.1 70.3 78.6 70.1 79.1 70.1 79.6 70.1 80.1 70.3 80.4 70.6 80.8 70.8 81 71.2 81 71.7 81.1 71.8 81.1 71.9 81.1 72L80.1 72.2C80.1 72.2 80.1 72.1 80.1 72 80 71.7 79.9 71.4 79.8 71.3 79.6 71.1 79.4 71 79.1 71 78.8 71 78.7 71 78.5 71.2 78.4 71.3 78.3 71.5 78.3 71.7 78.3 72.1 78.5 72.4 78.8 72.7L80.1 73.7C80.7 74.2 81.1 74.9 81.1 75.6 81.1 76.1 80.9 76.5 80.6 76.8 80.3 77.1 79.9 77.3 79.3 77.3" class="a"/><path d="M79.3 77.3C78.7 77.3 78.2 77.1 77.9 76.7 77.5 76.4 77.3 75.8 77.3 75.2L77.3 75.2 78.4 74.9 78.4 74.9C78.4 75.9 78.7 76.4 79.3 76.4 79.8 76.4 80 76.2 80 75.7 80 75.5 80 75.4 80 75.3 79.9 75.2 79.9 75.1 79.8 75 79.7 74.9 79.6 74.8 79.6 74.7 79.5 74.7 79.4 74.6 79.3 74.5L78.1 73.5C77.8 73.3 77.6 73.1 77.5 72.8 77.4 72.5 77.3 72.2 77.3 71.8 77.3 71.3 77.5 70.9 77.8 70.6 78.1 70.3 78.5 70.1 79.1 70.1 79.7 70.1 80.1 70.2 80.5 70.5 80.8 70.8 81 71.2 81.1 71.7 81.1 71.8 81.1 71.9 81.1 72L81.1 72 80 72.3 80 72.2C80 72.2 80 72.1 80 72 80 71.7 79.9 71.5 79.7 71.3 79.6 71.1 79.4 71 79.1 71 78.9 71 78.7 71.1 78.6 71.2 78.4 71.3 78.4 71.5 78.4 71.7 78.4 72.1 78.5 72.4 78.9 72.7L80.1 73.7C80.8 74.2 81.1 74.9 81.1 75.6 81.1 76.1 81 76.6 80.6 76.9 80.3 77.2 79.9 77.3 79.3 77.3L79.3 77.3ZM77.4 75.2C77.4 75.8 77.6 76.3 77.9 76.7 78.3 77 78.7 77.2 79.3 77.2 79.8 77.2 80.3 77.1 80.6 76.8 80.9 76.5 81 76.1 81 75.6 81 74.9 80.7 74.3 80 73.7L78.8 72.7C78.5 72.5 78.3 72.1 78.3 71.7 78.3 71.5 78.4 71.3 78.5 71.1 78.6 71 78.8 70.9 79.1 70.9 79.4 70.9 79.6 71 79.8 71.2 80 71.4 80.1 71.7 80.1 72 80.1 72.1 80.1 72.1 80.1 72.1L81 71.9C81 71.8 81 71.8 81 71.7 80.9 71.3 80.7 70.9 80.4 70.6 80.1 70.3 79.6 70.2 79.1 70.2 78.6 70.2 78.2 70.3 77.9 70.6 77.5 70.9 77.4 71.3 77.4 71.8 77.4 72.2 77.5 72.5 77.6 72.7 77.7 73 77.9 73.2 78.1 73.4L79.4 74.4C79.5 74.5 79.6 74.6 79.6 74.6 79.7 74.7 79.8 74.8 79.9 74.9 80 75 80 75.1 80.1 75.3 80.1 75.4 80.1 75.5 80.1 75.7 80.1 76.2 79.9 76.5 79.3 76.5 78.7 76.5 78.4 76 78.3 75L77.4 75.2Z" class="a"/><path d="M86.9 77.3C86.6 77.3 86.4 77.2 86.1 77.1 85.9 77 85.7 76.9 85.6 76.8 85.5 76.6 85.3 76.5 85.3 76.2 85.2 76 85.1 75.8 85.1 75.5 85 75.3 85 75 85 74.7L85 72.7C85 72.4 85 72.1 85.1 71.9 85.1 71.6 85.2 71.4 85.3 71.2 85.3 70.9 85.5 70.8 85.6 70.6 85.7 70.5 85.9 70.4 86.1 70.3 86.4 70.2 86.6 70.1 86.9 70.1 87.2 70.1 87.5 70.2 87.8 70.3 88 70.4 88.2 70.5 88.3 70.7 88.5 70.9 88.6 71.1 88.6 71.4 88.7 71.6 88.8 71.9 88.8 72.2 88.8 72.3 88.8 72.4 88.8 72.5L87.8 72.5 87.8 72.2C87.8 72.1 87.8 72 87.8 71.9 87.7 71.8 87.7 71.7 87.7 71.6 87.7 71.5 87.7 71.4 87.6 71.3 87.6 71.3 87.5 71.2 87.5 71.1 87.4 71.1 87.3 71 87.2 71 87.1 71 87 71 86.9 71 86.8 71 86.6 71 86.5 71 86.4 71.1 86.3 71.2 86.2 71.2 86.2 71.3 86.1 71.4 86.1 71.6 86 71.7 86 71.8 86 72 86 72.1 86 72.3 86 72.5L86 74.9C86 75.1 86 75.3 86 75.4 86 75.5 86.1 75.7 86.1 75.8 86.1 75.9 86.2 76 86.3 76.1 86.3 76.2 86.4 76.3 86.5 76.4 86.6 76.4 86.8 76.4 86.9 76.4 87.1 76.4 87.2 76.4 87.3 76.4 87.4 76.3 87.5 76.2 87.5 76.1 87.6 76 87.7 75.9 87.7 75.8 87.7 75.7 87.7 75.5 87.8 75.4 87.8 75.3 87.8 75.1 87.8 74.9L87.8 74.7 88.8 74.7 88.8 74.9C88.8 75.3 88.7 75.6 88.7 75.9 88.6 76.2 88.5 76.4 88.4 76.6 88.2 76.8 88 77 87.8 77.1 87.5 77.2 87.3 77.3 86.9 77.3" class="a"/><path d="M86.9 77.3C86.6 77.3 86.4 77.3 86.1 77.2 85.9 77.1 85.7 77 85.6 76.8 85.4 76.7 85.3 76.5 85.2 76.3 85.1 76 85 75.8 85 75.5 85 75.3 85 75 85 74.7L85 72.7C85 72.4 85 72.1 85 71.9 85.1 71.6 85.1 71.4 85.2 71.1 85.3 70.9 85.4 70.7 85.6 70.6 85.7 70.4 85.9 70.3 86.1 70.2 86.4 70.1 86.6 70.1 86.9 70.1 87.2 70.1 87.5 70.2 87.8 70.2 88 70.3 88.2 70.5 88.4 70.7 88.5 70.9 88.6 71.1 88.7 71.4 88.8 71.6 88.8 71.9 88.8 72.2 88.8 72.3 88.8 72.4 88.8 72.5L88.8 72.5 87.7 72.5 87.7 72.2C87.7 72.1 87.7 72 87.7 71.9 87.7 71.8 87.7 71.7 87.7 71.6 87.6 71.5 87.6 71.4 87.6 71.3 87.5 71.3 87.5 71.2 87.4 71.2 87.4 71.1 87.3 71.1 87.2 71.1 87.1 71 87 71 86.9 71 86.8 71 86.6 71 86.5 71.1 86.4 71.1 86.3 71.2 86.3 71.3 86.2 71.3 86.2 71.5 86.1 71.6 86.1 71.7 86.1 71.8 86.1 72 86.1 72.1 86 72.3 86 72.5L86 74.9C86 75.1 86.1 75.3 86.1 75.4 86.1 75.5 86.1 75.7 86.2 75.8 86.2 75.9 86.2 76 86.3 76.1 86.4 76.2 86.4 76.3 86.6 76.3 86.7 76.4 86.8 76.4 86.9 76.4 87.1 76.4 87.2 76.4 87.3 76.3 87.4 76.3 87.5 76.2 87.5 76.1 87.6 76 87.6 75.9 87.6 75.8 87.7 75.6 87.7 75.5 87.7 75.4 87.7 75.3 87.7 75.1 87.7 74.9L87.7 74.6 88.8 74.6 88.8 74.9C88.8 75.3 88.8 75.6 88.7 75.9 88.7 76.2 88.5 76.4 88.4 76.6 88.3 76.9 88.1 77 87.8 77.1 87.6 77.2 87.3 77.3 86.9 77.3M86.9 70.2C86.6 70.2 86.4 70.2 86.2 70.3 85.9 70.4 85.8 70.5 85.6 70.7 85.5 70.8 85.4 71 85.3 71.2 85.2 71.4 85.1 71.6 85.1 71.9 85.1 72.1 85.1 72.4 85.1 72.7L85.1 74.7C85.1 75 85.1 75.3 85.1 75.5 85.1 75.8 85.2 76 85.3 76.2 85.4 76.4 85.5 76.6 85.6 76.7 85.8 76.9 85.9 77 86.2 77.1 86.4 77.2 86.6 77.2 86.9 77.2 87.2 77.2 87.5 77.1 87.8 77 88 76.9 88.2 76.8 88.3 76.6 88.5 76.4 88.6 76.1 88.6 75.9 88.7 75.6 88.7 75.3 88.7 74.9L88.7 74.7 87.8 74.7 87.8 74.9C87.8 75.1 87.8 75.3 87.8 75.4 87.8 75.5 87.8 75.7 87.7 75.8 87.7 75.9 87.7 76.1 87.6 76.2 87.5 76.3 87.4 76.3 87.3 76.4 87.2 76.5 87.1 76.5 86.9 76.5 86.8 76.5 86.6 76.5 86.5 76.4 86.4 76.3 86.3 76.3 86.2 76.2 86.2 76.1 86.1 76 86.1 75.8 86 75.7 86 75.5 86 75.4 86 75.3 86 75.1 86 74.9L86 72.5C86 72.3 86 72.1 86 72 86 71.8 86 71.7 86 71.6 86.1 71.4 86.1 71.3 86.2 71.2 86.3 71.1 86.4 71.1 86.5 71 86.6 70.9 86.7 70.9 86.9 70.9 87 70.9 87.2 70.9 87.3 71 87.4 71 87.4 71 87.5 71.1 87.6 71.2 87.6 71.2 87.7 71.3 87.7 71.4 87.7 71.5 87.8 71.6 87.8 71.7 87.8 71.8 87.8 71.9 87.8 72 87.8 72.1 87.8 72.2L87.8 72.4 88.7 72.4C88.7 72.3 88.7 72.3 88.7 72.2 88.7 71.9 88.7 71.6 88.6 71.4 88.5 71.1 88.4 70.9 88.3 70.7 88.1 70.6 88 70.4 87.7 70.3 87.5 70.2 87.2 70.2 86.9 70.2" class="a"/><path d="M92.3 77.2L93.8 70.2 94.8 70.2 96.3 77.2 95.3 77.2 94.9 75.4 93.7 75.4 93.3 77.2 92.3 77.2ZM93.8 74.7L94.8 74.7 94.3 71.7 93.8 74.7Z" class="a"/><path d="M96.4 77.2L95.3 77.2 94.9 75.5 93.7 75.5 93.4 77.2 92.3 77.2 93.8 70.2 94.9 70.2 94.9 70.2 96.4 77.2ZM95.3 77.1L96.2 77.1 94.8 70.3 93.9 70.3 92.4 77.1 93.3 77.1 93.7 75.4 95 75.4 95.3 77.1ZM94.9 74.7L93.8 74.7 94.3 71.4 94.9 74.7ZM93.9 74.6L94.8 74.6 94.3 72 93.9 74.6Z" class="a"/><path d="M100.2 77.2L100.2 70.2 101.4 70.2C102.2 70.2 102.7 70.4 103.1 70.7 103.5 70.9 103.7 71.4 103.7 72.1 103.7 72.5 103.6 72.8 103.4 73.1 103.3 73.4 103.1 73.6 102.8 73.7L103.9 77.2 102.9 77.2 101.9 74 101.2 74 101.2 77.2 100.2 77.2ZM101.2 73.2L101.4 73.2C101.8 73.2 102.2 73.1 102.4 72.9 102.6 72.8 102.7 72.5 102.7 72.1 102.7 71.7 102.6 71.4 102.4 71.2 102.2 71.1 101.8 71 101.4 71L101.2 71 101.2 73.2Z" class="a"/><path d="M104 77.2L102.9 77.2 101.9 74 101.2 74 101.2 77.2 100.1 77.2 100.1 70.2 101.4 70.2C102.2 70.2 102.8 70.3 103.1 70.6 103.5 70.9 103.7 71.4 103.7 72.1 103.7 72.5 103.6 72.9 103.5 73.1 103.3 73.4 103.1 73.6 102.9 73.7L104 77.2ZM103 77.1L103.9 77.1 102.7 73.7 102.8 73.7C103.1 73.6 103.3 73.4 103.4 73.1 103.5 72.8 103.6 72.5 103.6 72.1 103.6 71.4 103.4 71 103.1 70.7 102.7 70.4 102.2 70.3 101.4 70.3L100.2 70.3 100.2 77.1 101.1 77.1 101.1 73.9 102 73.9 103 77.1ZM101.4 73.3L101.1 73.3 101.1 70.9 101.4 70.9C101.9 70.9 102.2 71 102.4 71.2 102.6 71.4 102.7 71.7 102.7 72.1 102.7 72.5 102.6 72.8 102.4 73 102.2 73.2 101.9 73.3 101.4 73.3L101.4 73.3ZM101.2 73.2L101.4 73.2C101.8 73.2 102.1 73.1 102.3 72.9 102.5 72.7 102.6 72.5 102.6 72.1 102.6 71.7 102.5 71.4 102.3 71.3 102.1 71.1 101.8 71 101.4 71L101.2 71 101.2 73.2Z" class="a"/><polygon points="107.9 77.2 108.9 77.2 108.9 70.2 107.9 70.2" class="a"/><path d="M107.8 77.2L108.9 77.2 108.9 70.2 107.8 70.2 107.8 77.2ZM107.9 77.1L108.8 77.1 108.8 70.3 107.9 70.3 107.9 77.1Z" class="a"/><path d="M112.8 77.2L114.3 70.2 115.3 70.2 116.8 77.2 115.8 77.2 115.4 75.4 114.2 75.4 113.8 77.2 112.8 77.2ZM114.3 74.7L115.3 74.7 114.8 71.7 114.3 74.7Z" class="a"/><path d="M116.9 77.2L115.8 77.2 115.4 75.5 114.2 75.5 113.9 77.2 112.8 77.2 114.3 70.2 115.4 70.2 115.4 70.2 116.9 77.2ZM115.9 77.1L116.7 77.1 115.3 70.3 114.4 70.3 112.9 77.1 113.8 77.1 114.2 75.4 115.5 75.4 115.9 77.1ZM115.4 74.7L114.3 74.7 114.8 71.4 115.4 74.7ZM114.4 74.6L115.3 74.6 114.8 72 114.4 74.6Z" class="a"/><path d="M157.9 77.3C157.2 77.3 156.8 77.1 156.4 76.7 156.1 76.3 155.9 75.8 155.9 75.2L156.9 74.9C156.9 75.9 157.3 76.4 157.9 76.4 158.4 76.4 158.6 76.2 158.6 75.7 158.6 75.5 158.6 75.4 158.6 75.3 158.5 75.2 158.5 75 158.4 74.9 158.3 74.8 158.2 74.7 158.1 74.7 158.1 74.6 158 74.5 157.9 74.4L156.6 73.5C156.4 73.3 156.2 73 156.1 72.8 156 72.5 155.9 72.2 155.9 71.8 155.9 71.3 156 70.9 156.4 70.6 156.7 70.3 157.1 70.1 157.6 70.1 158.2 70.1 158.6 70.3 159 70.6 159.3 70.8 159.5 71.2 159.6 71.7 159.6 71.8 159.6 71.9 159.6 72L158.6 72.2C158.6 72.2 158.6 72.1 158.6 72 158.6 71.7 158.5 71.4 158.3 71.3 158.1 71.1 157.9 71 157.6 71 157.4 71 157.2 71 157.1 71.2 156.9 71.3 156.9 71.5 156.9 71.7 156.9 72.1 157 72.4 157.4 72.7L158.6 73.7C159.3 74.2 159.6 74.9 159.6 75.6 159.6 76.1 159.5 76.5 159.1 76.8 158.8 77.1 158.4 77.3 157.9 77.3" class="a"/><path d="M157.9 77.3C157.2 77.3 156.7 77.1 156.4 76.7 156.1 76.4 155.9 75.8 155.8 75.2L155.8 75.2 156.9 74.9 156.9 74.9C157 75.9 157.3 76.4 157.9 76.4 158.3 76.4 158.6 76.2 158.6 75.7 158.6 75.5 158.5 75.4 158.5 75.3 158.5 75.2 158.4 75.1 158.3 75 158.3 74.9 158.2 74.8 158.1 74.7 158 74.7 158 74.6 157.8 74.5L156.6 73.5C156.4 73.3 156.2 73.1 156 72.8 155.9 72.5 155.8 72.2 155.8 71.8 155.8 71.3 156 70.9 156.3 70.6 156.7 70.3 157.1 70.1 157.6 70.1 158.2 70.1 158.7 70.2 159 70.5 159.3 70.8 159.6 71.2 159.6 71.7 159.6 71.8 159.6 71.9 159.7 72L159.7 72 158.6 72.3 158.6 72.2C158.6 72.2 158.6 72.1 158.5 72 158.5 71.7 158.4 71.5 158.3 71.3 158.1 71.1 157.9 71 157.6 71 157.4 71 157.2 71.1 157.1 71.2 157 71.3 156.9 71.5 156.9 71.7 156.9 72.1 157.1 72.4 157.4 72.7L158.6 73.7C159.3 74.2 159.7 74.9 159.7 75.6 159.7 76.1 159.5 76.6 159.2 76.9 158.8 77.2 158.4 77.3 157.9 77.3L157.9 77.3ZM155.9 75.2C156 75.8 156.2 76.3 156.5 76.7 156.8 77 157.3 77.2 157.9 77.2 158.4 77.2 158.8 77.1 159.1 76.8 159.4 76.5 159.6 76.1 159.6 75.6 159.6 74.9 159.2 74.3 158.6 73.7L157.3 72.7C157 72.5 156.8 72.1 156.8 71.7 156.8 71.5 156.9 71.3 157 71.1 157.2 71 157.4 70.9 157.6 70.9 157.9 70.9 158.2 71 158.3 71.2 158.5 71.4 158.6 71.7 158.6 72 158.7 72.1 158.7 72.1 158.7 72.1L159.6 71.9C159.5 71.8 159.5 71.8 159.5 71.7 159.5 71.3 159.3 70.9 158.9 70.6 158.6 70.3 158.2 70.2 157.6 70.2 157.1 70.2 156.7 70.3 156.4 70.6 156.1 70.9 155.9 71.3 155.9 71.8 155.9 72.2 156 72.5 156.1 72.7 156.3 73 156.4 73.2 156.7 73.4L157.9 74.4C158 74.5 158.1 74.6 158.2 74.6 158.3 74.7 158.3 74.8 158.4 74.9 158.5 75 158.6 75.1 158.6 75.3 158.6 75.4 158.7 75.5 158.7 75.7 158.7 76.2 158.4 76.5 157.9 76.5 157.2 76.5 156.9 76 156.8 75L155.9 75.2Z" class="a"/><polygon points="164.4 77.2 164.4 71.1 163.2 71.1 163.2 70.2 166.6 70.2 166.6 71.1 165.4 71.1 165.4 77.2" class="a"/><path d="M165.5 77.2L164.4 77.2 164.4 71.2 163.1 71.2 163.1 70.2 166.7 70.2 166.7 71.2 165.5 71.2 165.5 77.2ZM164.5 77.1L165.4 77.1 165.4 71.1 166.6 71.1 166.6 70.3 163.2 70.3 163.2 71.1 164.5 71.1 164.5 77.1Z" class="a"/><polygon points="170.5 77.2 170.5 70.2 173.2 70.2 173.2 71 171.5 71 171.5 73.2 172.7 73.2 172.7 74 171.5 74 171.5 76.4 173.2 76.4 173.2 77.2" class="a"/><path d="M173.3 77.2L170.4 77.2 170.4 70.2 173.3 70.2 173.3 71 171.5 71 171.5 73.2 172.8 73.2 172.8 74 171.5 74 171.5 76.4 173.3 76.4 173.3 77.2ZM170.5 77.1L173.2 77.1 173.2 76.5 171.4 76.5 171.4 73.9 172.7 73.9 172.7 73.3 171.4 73.3 171.4 70.9 173.2 70.9 173.2 70.3 170.5 70.3 170.5 77.1Z" class="a"/><path d="M176.7 77.2L178.2 70.2 179.2 70.2 180.7 77.2 179.7 77.2 179.3 75.4 178.1 75.4 177.7 77.2 176.7 77.2ZM178.2 74.7L179.2 74.7 178.7 71.7 178.2 74.7Z" class="a"/><path d="M180.8 77.2L179.7 77.2 179.6 77.2 179.3 75.5 178.1 75.5 177.8 77.2 176.7 77.2 176.7 77.2 178.2 70.2 179.2 70.2 179.2 70.2 180.8 77.2ZM179.7 77.1L180.6 77.1 179.2 70.3 178.2 70.3 176.8 77.1 177.7 77.1 178 75.4 179.4 75.4 179.4 75.4 179.7 77.1ZM179.3 74.7L178.1 74.7 178.2 74.7 178.7 71.4 179.3 74.7ZM178.3 74.6L179.1 74.6 178.7 72 178.3 74.6Z" class="a"/><polygon points="184.6 77.2 184.6 70.2 185.6 70.2 185.6 73.2 187.1 70.2 188.3 70.2 186.8 73 188.6 77.2 187.3 77.2 186.1 74 185.6 74.9 185.6 77.2" class="a"/><path d="M188.6 77.2L187.3 77.2 187.3 77.2 186.1 74.1 185.6 75 185.6 77.2 184.5 77.2 184.5 70.2 185.6 70.2 185.6 73 187 70.2 188.4 70.2 188.4 70.2 186.9 73 188.6 77.2ZM187.3 77.1L188.5 77.1 186.8 73 188.2 70.3 187.1 70.3 185.5 73.4 185.5 70.3 184.6 70.3 184.6 77.1 185.5 77.1 185.5 74.9 186.1 73.8 187.3 77.1Z" class="a"/><polygon points="192.3 77.2 192.3 70.2 193.3 70.2 193.3 73.2 195 73.2 195 70.2 196 70.2 196 77.2 195 77.2 195 74 193.3 74 193.3 77.2" class="a"/><path d="M196 77.2L194.9 77.2 194.9 74 193.3 74 193.3 77.2 192.2 77.2 192.2 70.2 193.3 70.2 193.3 73.2 194.9 73.2 194.9 70.2 196 70.2 196 77.2ZM195 77.1L195.9 77.1 195.9 70.3 195 70.3 195 73.3 193.2 73.3 193.2 70.3 192.3 70.3 192.3 77.1 193.2 77.1 193.2 73.9 195 73.9 195 77.1Z" class="a"/><path d="M202.1 77.3C201.8 77.3 201.5 77.2 201.2 77.1 201 77 200.8 76.8 200.6 76.6 200.5 76.4 200.4 76.2 200.3 75.9 200.2 75.6 200.2 75.3 200.2 74.9L200.2 72.4C200.2 72.1 200.2 71.7 200.3 71.5 200.4 71.2 200.5 71 200.6 70.8 200.8 70.6 201 70.4 201.2 70.3 201.5 70.2 201.8 70.1 202.1 70.1 202.8 70.1 203.3 70.3 203.6 70.7 203.9 71.1 204 71.7 204 72.4L204 74.9C204 75.3 204 75.6 203.9 75.9 203.8 76.2 203.7 76.4 203.6 76.6 203.4 76.8 203.2 77 203 77.1 202.7 77.2 202.4 77.3 202.1 77.3M201.4 76.1C201.5 76.3 201.8 76.4 202.1 76.4 202.5 76.4 202.7 76.3 202.8 76.1 203 75.9 203 75.6 203 75.2L203 72.2C203 71.8 203 71.5 202.8 71.3 202.7 71.1 202.5 71 202.1 71 201.7 71 201.5 71.1 201.4 71.3 201.2 71.5 201.2 71.8 201.2 72.2L201.2 75.2C201.2 75.6 201.2 75.9 201.4 76.1" class="a"/><path d="M202.1 77.3C201.7 77.3 201.4 77.2 201.2 77.1 200.9 77 200.7 76.9 200.6 76.7 200.4 76.4 200.3 76.2 200.2 75.9 200.2 75.6 200.1 75.3 200.1 74.9L200.1 72.4C200.1 72.1 200.2 71.7 200.2 71.5 200.3 71.2 200.4 70.9 200.6 70.7 200.7 70.5 200.9 70.4 201.2 70.3 201.4 70.2 201.7 70.1 202.1 70.1 202.8 70.1 203.3 70.3 203.6 70.7 203.9 71.1 204.1 71.7 204.1 72.4L204.1 74.9C204.1 75.3 204 75.6 204 75.9 203.9 76.2 203.8 76.4 203.6 76.6 203.5 76.9 203.3 77 203 77.1 202.8 77.2 202.5 77.3 202.1 77.3M202.1 70.2C201.8 70.2 201.5 70.2 201.2 70.3 201 70.4 200.8 70.6 200.6 70.8 200.5 71 200.4 71.2 200.3 71.5 200.3 71.7 200.2 72.1 200.2 72.4L200.2 74.9C200.2 75.3 200.3 75.6 200.3 75.9 200.4 76.2 200.5 76.4 200.6 76.6 200.8 76.8 201 76.9 201.2 77 201.5 77.1 201.8 77.2 202.1 77.2 202.4 77.2 202.7 77.1 203 77 203.2 76.9 203.4 76.8 203.6 76.6 203.7 76.4 203.8 76.2 203.9 75.9 203.9 75.6 204 75.3 204 74.9L204 72.4C204 71.7 203.8 71.1 203.5 70.8 203.2 70.4 202.8 70.2 202.1 70.2M202.1 76.5C201.7 76.5 201.5 76.4 201.3 76.1 201.2 75.9 201.1 75.6 201.1 75.2L201.1 72.2C201.1 71.8 201.2 71.4 201.3 71.2 201.5 71 201.7 70.9 202.1 70.9 202.5 70.9 202.7 71 202.9 71.2 203 71.4 203.1 71.8 203.1 72.2L203.1 75.2C203.1 75.6 203 75.9 202.9 76.1 202.7 76.4 202.5 76.5 202.1 76.5M201.4 76.1C201.5 76.3 201.8 76.4 202.1 76.4 202.4 76.4 202.7 76.3 202.8 76.1 202.9 75.9 203 75.6 203 75.2L203 72.2C203 71.8 202.9 71.5 202.8 71.3 202.7 71.1 202.4 71 202.1 71 201.8 71 201.5 71.1 201.4 71.3 201.3 71.5 201.2 71.8 201.2 72.2L201.2 75.2C201.2 75.6 201.3 75.9 201.4 76.1" class="a"/><path d="M211 77.1C210.7 77.2 210.5 77.3 210.2 77.3 209.9 77.3 209.6 77.2 209.4 77.1 209.1 77.1 208.9 76.9 208.8 76.8 208.6 76.7 208.5 76.5 208.4 76.3 208.3 76 208.3 75.8 208.2 75.6 208.2 75.3 208.2 75 208.2 74.7L208.2 70.2 209.2 70.2 209.2 74.7C209.2 74.9 209.2 75.1 209.2 75.2 209.2 75.4 209.2 75.5 209.2 75.7 209.3 75.9 209.3 76 209.4 76.1 209.5 76.2 209.6 76.3 209.7 76.3 209.8 76.4 210 76.4 210.2 76.4 210.3 76.4 210.5 76.4 210.6 76.3 210.7 76.3 210.8 76.2 210.9 76.1 211 76 211 75.9 211.1 75.7 211.1 75.5 211.1 75.4 211.1 75.2 211.1 75.1 211.1 74.9 211.1 74.7L211.1 70.2 212.1 70.2 212.1 74.7C212.1 75 212.1 75.3 212.1 75.6 212 75.8 212 76 211.9 76.3 211.8 76.5 211.7 76.7 211.5 76.8 211.4 76.9 211.2 77.1 211 77.1" class="a"/><path d="M210.2 77.3C209.8 77.3 209.6 77.3 209.3 77.2 209.1 77.1 208.9 77 208.8 76.8 208.6 76.7 208.5 76.5 208.4 76.3 208.3 76.1 208.2 75.8 208.2 75.6 208.1 75.3 208.1 75 208.1 74.7L208.1 70.2 209.2 70.2 209.2 74.7C209.2 74.9 209.2 75.1 209.2 75.2 209.2 75.4 209.3 75.5 209.3 75.7 209.3 75.8 209.4 76 209.4 76.1 209.5 76.2 209.6 76.2 209.7 76.3 209.8 76.4 210 76.4 210.2 76.4 210.3 76.4 210.5 76.4 210.6 76.3 210.7 76.2 210.8 76.2 210.9 76.1 210.9 76 211 75.8 211 75.7 211.1 75.5 211.1 75.4 211.1 75.2 211.1 75.1 211.1 74.9 211.1 74.7L211.1 70.2 212.2 70.2 212.2 74.7C212.2 75 212.2 75.3 212.1 75.6 212.1 75.8 212 76.1 211.9 76.3 211.8 76.5 211.7 76.7 211.6 76.8 211.4 77 211.2 77.1 211 77.2 210.7 77.3 210.5 77.3 210.2 77.3L210.2 77.3ZM208.2 70.3L208.2 74.7C208.2 75 208.2 75.3 208.3 75.5 208.3 75.8 208.4 76 208.5 76.2 208.6 76.4 208.7 76.6 208.8 76.8 209 76.9 209.1 77 209.4 77.1 209.6 77.2 209.9 77.2 210.2 77.2 210.4 77.2 210.7 77.2 210.9 77.1 211.2 77 211.3 76.9 211.5 76.8 211.6 76.6 211.8 76.4 211.8 76.2 211.9 76 212 75.8 212 75.5 212.1 75.3 212.1 75 212.1 74.7L212.1 70.3 211.2 70.3 211.2 74.7C211.2 74.9 211.2 75.1 211.2 75.2 211.2 75.4 211.2 75.5 211.1 75.7 211.1 75.9 211 76 210.9 76.1 210.9 76.2 210.8 76.3 210.6 76.4 210.5 76.5 210.3 76.5 210.2 76.5 210 76.5 209.8 76.5 209.7 76.4 209.5 76.3 209.4 76.2 209.4 76.1 209.3 76 209.2 75.9 209.2 75.7 209.2 75.5 209.1 75.4 209.1 75.2 209.1 75.1 209.1 74.9 209.1 74.7L209.1 70.3 208.2 70.3Z" class="a"/><path d="M218.2 77.3C217.6 77.3 217.1 77.1 216.8 76.7 216.5 76.3 216.3 75.8 216.2 75.2L217.2 74.9C217.3 75.9 217.6 76.4 218.2 76.4 218.7 76.4 219 76.2 219 75.7 219 75.5 219 75.4 218.9 75.3 218.9 75.2 218.8 75 218.7 74.9 218.6 74.8 218.6 74.7 218.5 74.7 218.4 74.6 218.3 74.5 218.2 74.4L217 73.5C216.8 73.3 216.6 73 216.4 72.8 216.3 72.5 216.2 72.2 216.2 71.8 216.2 71.3 216.4 70.9 216.7 70.6 217 70.3 217.5 70.1 218 70.1 218.5 70.1 219 70.3 219.3 70.6 219.7 70.8 219.9 71.2 219.9 71.7 219.9 71.8 220 71.9 220 72L219 72.2C219 72.2 219 72.1 219 72 218.9 71.7 218.8 71.4 218.7 71.3 218.5 71.1 218.3 71 218 71 217.7 71 217.6 71 217.4 71.2 217.3 71.3 217.2 71.5 217.2 71.7 217.2 72.1 217.4 72.4 217.7 72.7L219 73.7C219.6 74.2 220 74.9 220 75.6 220 76.1 219.8 76.5 219.5 76.8 219.2 77.1 218.8 77.3 218.2 77.3" class="a"/><path d="M218.2 77.3C217.6 77.3 217.1 77.1 216.8 76.7 216.4 76.4 216.2 75.8 216.2 75.2L216.2 75.2 217.3 74.9 217.3 74.9C217.3 75.9 217.6 76.4 218.2 76.4 218.7 76.4 218.9 76.2 218.9 75.7 218.9 75.5 218.9 75.4 218.9 75.3 218.8 75.2 218.8 75.1 218.7 75 218.6 74.9 218.5 74.8 218.5 74.7 218.4 74.7 218.3 74.6 218.2 74.5L217 73.5C216.7 73.3 216.5 73.1 216.4 72.8 216.3 72.5 216.2 72.2 216.2 71.8 216.2 71.3 216.4 70.9 216.7 70.6 217 70.3 217.4 70.1 218 70.1 218.6 70.1 219 70.2 219.4 70.5 219.7 70.8 219.9 71.2 220 71.7 220 71.8 220 71.9 220 72L220 72 218.9 72.3 218.9 72.2C218.9 72.2 218.9 72.1 218.9 72 218.9 71.7 218.8 71.5 218.6 71.3 218.5 71.1 218.3 71 218 71 217.8 71 217.6 71.1 217.5 71.2 217.3 71.3 217.3 71.5 217.3 71.7 217.3 72.1 217.4 72.4 217.8 72.7L219 73.7C219.7 74.2 220 74.9 220 75.6 220 76.1 219.9 76.6 219.5 76.9 219.2 77.2 218.8 77.3 218.2 77.3L218.2 77.3ZM216.3 75.2C216.3 75.8 216.5 76.3 216.8 76.7 217.2 77 217.6 77.2 218.2 77.2 218.7 77.2 219.2 77.1 219.5 76.8 219.8 76.5 219.9 76.1 219.9 75.6 219.9 74.9 219.6 74.3 218.9 73.7L217.7 72.7C217.4 72.5 217.2 72.1 217.2 71.7 217.2 71.5 217.3 71.3 217.4 71.1 217.5 71 217.7 70.9 218 70.9 218.3 70.9 218.5 71 218.7 71.2 218.9 71.4 219 71.7 219 72 219 72.1 219 72.1 219 72.1L219.9 71.9C219.9 71.8 219.9 71.8 219.9 71.7 219.8 71.3 219.6 70.9 219.3 70.6 219 70.3 218.5 70.2 218 70.2 217.5 70.2 217.1 70.3 216.7 70.6 216.4 70.9 216.3 71.3 216.3 71.8 216.3 72.2 216.4 72.5 216.5 72.7 216.6 73 216.8 73.2 217 73.4L218.3 74.4C218.4 74.5 218.5 74.6 218.5 74.6 218.6 74.7 218.7 74.8 218.8 74.9 218.9 75 218.9 75.1 219 75.3 219 75.4 219 75.5 219 75.7 219 76.2 218.8 76.5 218.2 76.5 217.6 76.5 217.3 76 217.2 75L216.3 75.2Z" class="a"/><polygon points="224 77.2 224 70.2 226.8 70.2 226.8 71 225 71 225 73.2 226.3 73.2 226.3 74 225 74 225 76.4 226.8 76.4 226.8 77.2" class="a"/><path d="M226.8 77.2L224 77.2 224 70.2 226.8 70.2 226.8 71 225.1 71 225.1 73.2 226.3 73.2 226.3 74 225.1 74 225.1 76.4 226.8 76.4 226.8 77.2ZM224.1 77.1L226.7 77.1 226.7 76.5 225 76.5 225 73.9 226.2 73.9 226.2 73.3 225 73.3 225 70.9 226.7 70.9 226.7 70.3 224.1 70.3 224.1 77.1Z" class="a"/><path d="M141 81.9L141.1 81.5 141.2 81.4 141.3 80.6 141.6 80.1C141.6 80.1 141.6 80.1 141.6 80.1 141.6 80.1 141.6 80 141.6 80 141.6 80 141.6 80 141.6 79.9 141.6 79.9 141.5 79.9 141.5 79.9 141.5 79.9 141.5 79.9 141.5 79.9 141.4 79.8 141.4 79.8 141.3 79.8 141.3 79.8 141.3 79.8 141.2 79.8 141.1 79.7 141 79.6 140.9 79.6 140.8 79.5 140.7 79.5 140.7 79.5 140.4 79.4 140.3 79.2 140.2 79 140.2 78.9 140.2 78.6 140.4 78.3 140.4 78.2 140.4 78.2 140.5 78.1 140.5 78.1 140.5 78 140.6 78L140.6 77.9C140.6 77.9 140.7 77.8 140.8 77.7 140.8 77.6 140.9 77.5 140.9 77.5 140.9 77.4 140.8 77.3 140.8 77.2 140.7 77.1 140.6 77 140.5 76.8 140.5 76.8 140.5 76.8 140.5 76.8 140.4 76.7 140.4 76.7 140.3 76.6 139.9 76.5 139.9 76.2 139.9 75.8L139.9 75.8C139.9 75.7 139.8 75.7 139.8 75.7 139.8 75.6 139.7 75.6 139.7 75.5 139.6 75.4 139.6 75.3 139.6 75.2 139.6 75.1 139.6 75 139.6 74.9 139.6 74.9 139.6 74.8 139.6 74.8 139.6 74.8 139.6 74.7 139.5 74.6 139.4 74.6 139.3 74.6 139.2 74.5 139 74.4 138.9 74.2 138.9 74.1 138.8 74 138.8 74 138.8 74L138.8 73.9C138.8 73.9 138.8 73.8 138.8 73.8 138.7 73.7 138.7 73.7 138.7 73.6 138.6 73.6 138.5 73.5 138.4 73.5 138.4 73.5 138.4 73.5 138.4 73.4 138.3 73.4 138.3 73.4 138.3 73.4L138.2 73.4C138 73.3 137.8 73.2 137.6 73.1 137.5 73 137.5 72.9 137.4 72.8 137.3 72.8 137.3 72.7 137.3 72.7 137.2 72.8 136.9 72.9 136.7 72.8 136.6 72.8 136.6 72.8 136.6 72.8 136.6 72.8 136.5 72.8 136.5 72.8L136.4 72.8C136.3 72.8 136.2 72.8 136.2 72.8 135.9 72.7 135.7 72.6 135.6 72.4 135.6 72.4 135.5 72.4 135.5 72.4 135.4 72.3 135.3 72.3 135.3 72.2 135.2 72.2 135.2 72.2 135.2 72.2 134.9 72.1 134.8 71.8 134.8 71.6 134.7 71.6 134.7 71.5 134.7 71.4 134.6 71.4 134.6 71.3 134.5 71.2L134.5 71.2C134.5 71 134.4 70.8 134.5 70.6L134.5 70.6C134.5 70.5 134.6 70.5 134.6 70.4 134.6 70.3 134.7 70.3 134.7 70.2 134.7 70.2 134.7 70.1 134.7 70 134.8 69.8 134.9 69.6 135.2 69.3 135.3 69.3 135.3 69.3 135.4 69.2L135.4 69.2C135.5 69.2 135.6 69.1 135.6 69.1L135.7 69.1C135.7 69.1 135.7 69 135.7 69L135.8 68.9C135.8 68.9 135.8 68.9 135.8 68.8 135.8 68.8 135.8 68.8 135.8 68.8 135.6 68.5 135.4 68.1 135.5 67.9 135.5 67.8 135.3 67.7 135.3 67.7L135.3 67.7C135.3 67.5 135.6 67.3 135.7 67.1 135.9 67 136.1 66.9 136.3 66.9L136.4 66.9C136.5 66.9 136.9 66.9 136.9 66.9 137 66.9 137.6 66.9 137.6 66.9L137.6 63.8 132 63.8 131.9 71.6 126.7 71.7 126.6 72 126.5 72.3 126.9 72.7 127.1 73 127.3 73.1 127.6 73.6 127.8 74 128.4 74.4 128.6 74.8 128.8 75.3 129.2 76.4 130.8 77.5 131.1 77.6 131.5 77.8 131.9 77.5 131.8 77.2 131.9 77 132 76.7 132.2 76.4 132.3 76.3 133.3 76 134.4 76.4 134.6 76.5 135.4 77.2 135.6 77.4C135.6 77.4 136 78.8 136.3 79.2 136.3 79.2 136.5 79.1 136.5 79.3 136.6 79.7 137 80.3 137 80.3 137 80.3 137.3 80.3 137.3 80.3L137.6 81.4 138.3 82.7 139.4 83.2 139.4 83.4 140.6 83.5 141.3 83.7 141.7 83.4 141.2 82.8 141 81.9Z" class="b"/><path d="M142.8 68.9C142.9 68.9 142.9 68.9 143 68.9 143 69 143 68.9 143 68.9 143.1 68.9 143.1 68.9 143.1 68.8 143.2 68.8 143.2 68.8 143.3 68.8 143.2 68.7 143.3 68.6 143.3 68.6 143.4 68.5 143.4 68.5 143.5 68.5 143.6 68.5 143.7 68.5 143.8 68.6 143.8 68.6 143.9 68.7 144 68.7 144 68.7 144.1 68.8 144.2 68.8 144.2 68.8 144.2 68.8 144.2 68.9 144.2 68.9 144.2 68.9 144.2 68.8 144.3 68.8 144.3 68.8 144.4 68.9 144.4 68.9 144.4 69 144.5 69 144.5 69.1 144.5 69.1 144.5 69.1 144.5 69.2 144.4 69.2 144.4 69.2 144.4 69.3 144.4 69.3 144.4 69.3 144.5 69.3 144.5 69.2 144.6 69.1 144.6 69.2 144.6 69.2 144.6 69.2 144.6 69.2 144.6 69.2 144.7 69.2 144.7 69.1 144.8 69.1 144.8 69.1 144.9 69.1 145 69.2 145.1 69.2 145.1 69.2 145.2 69.2 145.2 69.3 145.3 69.3 145.3 69.3 145.4 69.3 145.4 69.3 145.5 69.3 145.5 69.3 145.6 69.3 145.7 69.3 145.7 69.3 145.8 69.3 145.9 69.3 146 69.3 146.2 69.4 146.3 69.6 146.5 69.8 146.6 69.9 146.7 70 146.8 70 146.9 70 146.9 70 146.9 70 147 70.1 147.1 70.1 147.2 70.1 147.3 70.1 147.3 70.1 147.3 70.2 147.4 70.3 147.4 70.4 147.4 70.5 147.4 70.6 147.5 70.6 147.5 70.7 147.5 70.8 147.5 70.8 147.5 70.9 147.5 71 147.4 71.1 147.4 71.2 147.4 71.3 147.4 71.4 147.3 71.5 147.3 71.6 147.2 71.7 147.1 71.8 147 71.9 146.9 72 146.8 72.1 146.7 72.2 146.7 72.3 146.7 72.4 146.6 72.5 146.6 72.6 146.5 72.7 146.5 72.7 146.5 72.7 146.4 72.8 146.4 72.7 146.4 72.7 146.3 72.7 146.3 72.7 146.3 72.7 146.3 72.7 146.4 72.7 146.3 72.8 146.3 72.8 146.3 72.9 146.3 72.9 146.3 72.9 146.3 73.1 146.3 73.2 146.3 73.4 146.3 73.5 146.3 73.6 146.3 73.7 146.3 73.7 146.3 73.8 146.3 73.8 146.3 73.9 146.3 73.9 146.3 74 146.3 74.1 146.3 74.2 146.3 74.3 146.3 74.4 146.2 74.4 146.2 74.5 146.2 74.5 146.2 74.6 146.2 74.7 146.1 74.8 146.1 74.9 146.1 74.9 146.1 75 146.1 75 146.1 75.1 146.1 75.1 146.1 75.2 146 75.2 146 75.3 146 75.3 146 75.4 146 75.4 145.9 75.4 145.9 75.5 145.9 75.5 145.8 75.6 145.8 75.7 145.8 75.8 145.8 75.9 145.7 75.9 145.7 76 145.6 76 145.6 76 145.6 76 145.6 76.1 145.6 76.1 145.6 76.1 145.5 76.2 145.5 76.2 145.3 76.2 145.1 76.2 144.9 76.2 144.8 76.2 144.8 76.2 144.8 76.3 144.8 76.3 144.7 76.3 144.7 76.3 144.6 76.4 144.6 76.4 144.6 76.5 144.6 76.5 144.6 76.5 144.6 76.5 144.5 76.5 144.5 76.5 144.4 76.4 144.4 76.4 144.4 76.4 144.4 76.5 144.3 76.5 144.3 76.5 144.3 76.5 144.2 76.6 144.1 76.7 144 76.7 143.9 76.8 143.9 76.9 143.8 76.9 143.8 77 143.8 77 143.7 77 143.7 77 143.7 77 143.7 77 143.7 77.1 143.7 77.2 143.7 77.2 143.7 77.3 143.7 77.3 143.7 77.3 143.7 77.3 143.7 77.3 143.7 77.4 143.7 77.4 143.7 77.5 143.7 77.6 143.7 77.7 143.8 77.7 143.8 77.7 143.8 77.7 143.8 77.8 143.8 77.9 143.8 77.9 143.8 77.9 143.7 78 143.7 78.1 143.7 78.1 143.6 78.2 143.6 78.3 143.5 78.4 143.5 78.4 143.4 78.5 143.4 78.6 143.4 78.7 143.4 78.7 143.4 78.8 143.3 78.9 143.3 78.9 143.3 79 143.2 79 143.2 79.1 143.1 79.2 143 79.3 143 79.3 143 79.3 143 79.3 143 79.3 143 79.2 143 79.2 143.1 79.1 143.1 79.1 143.2 79 143.2 78.9 143.2 78.9 143.3 78.8 143.3 78.8 143.3 78.7 143.3 78.7 143.3 78.7 143.3 78.7 143.3 78.7 143.2 78.6 143.1 78.7 143.1 78.8 143.1 78.9 143.1 78.9 143 79 143 79 142.9 79.1 142.9 79.2 142.9 79.3 142.9 79.4 142.9 79.5 142.9 79.6 142.8 79.7 142.7 79.8 142.7 79.8 142.6 79.8 142.6 79.8 142.6 79.8 142.6 79.7 142.6 79.7 142.6 79.7 142.6 79.7 142.6 79.6 142.7 79.5 142.6 79.5 142.6 79.4 142.4 79.3 142.3 79.2 142.2 79.1 142.1 79.1 142 79 142 79 141.9 79 141.9 78.9 141.8 78.9 141.8 78.9 141.8 78.9 141.8 78.9 141.8 78.9 141.7 78.9 141.7 78.9 141.7 78.8 141.6 78.7 141.6 78.7 141.5 78.7 141.5 78.6 141.4 78.6 141.4 78.6 141.3 78.6 141.3 78.6 141.3 78.6 141.3 78.7 141.3 78.7 141.2 78.6 141.2 78.6 141.3 78.5 141.4 78.4 141.4 78.3 141.5 78.2 141.5 78.1 141.6 78.1 141.6 78 141.6 78 141.7 78 141.7 77.9 141.7 77.9 141.8 77.8 141.9 77.8 141.9 77.7 142 77.7 142.1 77.6 142.1 77.6 142.2 77.5 142.2 77.5 142.2 77.5 142.2 77.5 142.2 77.5 142.1 77.4 142.1 77.4 142.2 77.4 142.2 77.3 142.2 77.3 142.1 77.3 142.1 77.2 142.1 77.2 142.1 77.1 142.1 77.1 142.1 77.1 142.1 77.1 142 77 142 77 141.9 77 141.9 77.1 141.9 77 141.9 77 141.9 76.8 141.9 76.7 141.9 76.5 141.9 76.5 141.9 76.5 141.8 76.5 141.7 76.5 141.7 76.5 141.6 76.5 141.6 76.5 141.5 76.5 141.5 76.4 141.5 76.3 141.5 76.3 141.4 76.2 141.4 76.1 141.4 76.1 141.4 76 141.3 76 141.3 75.9 141.2 75.9 141.1 75.9 141.1 75.9 141.1 75.9 141.1 76 141 76 141 76 140.9 75.9 140.8 75.9 140.7 75.9 140.7 75.9 140.7 75.8 140.7 75.8 140.7 75.7 140.7 75.7 140.7 75.6 140.7 75.5 140.7 75.5 140.7 75.4 140.7 75.3 140.6 75.3 140.6 75.2 140.6 75.2 140.6 75.2 140.6 75.2 140.6 75.1 140.6 75.1 140.6 75.1 140.6 75 140.6 75 140.6 74.9 140.6 74.9 140.7 74.8 140.7 74.8 140.7 74.7 140.7 74.6 140.7 74.5 140.7 74.4 140.6 74.3 140.5 74.3 140.5 74.2 140.4 74.2 140.4 74.1 140.4 74.1 140.4 74 140.4 73.9 140.4 73.9 140.4 73.9 140.4 73.9 140.3 73.9 140.1 73.9 140 73.9 140 73.9 139.9 73.8 139.9 73.8 139.8 73.8 139.8 73.8 139.8 73.7 139.8 73.7 139.8 73.6 139.8 73.6 139.8 73.5 139.7 73.5 139.7 73.5 139.7 73.5 139.7 73.5 139.7 73.4 139.8 73.4 139.8 73.3 139.7 73.2 139.7 73.2 139.7 73.1 139.7 73.1 139.7 73.1 139.7 73 139.7 73 139.6 73 139.6 73 139.5 72.9 139.5 72.9 139.4 72.9 139.3 72.9 139.3 72.9 139.2 72.9 139.2 72.8 139.2 72.8 139.1 72.8 139 72.8 139 72.7 138.9 72.7 138.9 72.6 138.9 72.6 138.8 72.6 138.8 72.6 138.8 72.6 138.8 72.6 138.7 72.6 138.7 72.6 138.7 72.6 138.6 72.6 138.5 72.6 138.4 72.5 138.4 72.4 138.3 72.4 138.2 72.3 138.2 72.3 138.2 72.2 138.1 72.2 138.1 72.2 138.1 72 138.1 71.8 138.1 71.7 138.1 71.7 138.1 71.6 138.1 71.6 138 71.6 138 71.6 137.9 71.6 137.9 71.6 137.9 71.6 137.9 71.6 137.8 71.6 137.7 71.7 137.6 71.8 137.6 71.8 137.5 71.8 137.5 71.8 137.4 71.9 137.4 71.9 137.4 71.9 137.4 71.9 137.4 71.9 137.4 71.9 137.3 71.9 137.2 72 137.2 72 137.1 72.1 137.1 72.1 137 72 137 72 137 72 137 72 136.9 72 136.7 72 136.6 72 136.6 72 136.6 72 136.6 72 136.5 72 136.5 72 136.5 71.9 136.5 71.8 136.5 71.7 136.5 71.6 136.5 71.6 136.5 71.5 136.5 71.5 136.4 71.5 136.4 71.6 136.3 71.6 136.3 71.7 136.1 71.7 136 71.7 136 71.6 136 71.6 136 71.6 136 71.5 135.9 71.5 135.8 71.5 135.8 71.5 135.8 71.5 135.8 71.5 135.7 71.5 135.7 71.5 135.7 71.4 135.7 71.3 135.7 71.3 135.6 71.2 135.6 71.2 135.6 71.1 135.5 71 135.5 71 135.5 70.9 135.4 70.8 135.4 70.8 135.4 70.8 135.4 70.8 135.4 70.7 135.5 70.7 135.5 70.6 135.5 70.6 135.5 70.6 135.6 70.5 135.6 70.5 135.6 70.5 135.6 70.5 135.6 70.4 135.7 70.4 135.6 70.4 135.6 70.3 135.6 70.3 135.7 70.2 135.7 70.2 135.7 70.2 135.7 70.2 135.7 70 135.8 70 135.9 69.9 135.9 69.9 136 69.8 136 69.8 136.1 69.8 136.1 69.8 136.1 69.8 136.2 69.8 136.2 69.7 136.3 69.7 136.4 69.7 136.4 69.7 136.5 69.7 136.6 69.7 136.6 69.7 136.6 69.7 136.6 69.7 136.6 69.7 136.6 69.7 136.6 69.5 136.6 69.4 136.7 69.3 136.7 69.2 136.7 69.1 136.7 69 136.7 69 136.7 68.9 136.7 68.9 136.7 68.9 136.7 68.8 136.8 68.8 136.8 68.8 136.8 68.7 136.8 68.7 136.7 68.6 136.7 68.5 136.6 68.4 136.6 68.3 136.6 68.2 136.6 68.1 136.6 68 136.7 68 136.8 68 136.8 68 136.8 68 136.8 68 136.8 67.9 136.8 67.9 136.7 67.9 136.7 67.9 136.6 67.8 136.6 67.8 136.6 67.8 136.6 67.7 136.6 67.7 136.7 67.7 136.7 67.7 136.8 67.7 136.9 67.7 136.9 67.7 137 67.7 137.1 67.7 137.1 67.7 137.1 67.6 137.2 67.6 137.2 67.6 137.2 67.6 137.2 67.7 137.3 67.6 137.3 67.6 137.4 67.5 137.4 67.5 137.5 67.6 137.5 67.6 137.5 67.7 137.5 67.7 137.5 67.8 137.5 67.8 137.6 67.9 137.6 67.9 137.7 67.9 137.7 68 137.7 68 137.8 68 137.8 68 137.9 68 137.9 67.9 137.9 67.9 137.9 67.9 138 68 138 68 138 68 138 68 138 68 138 68 138 68 138 68 138 67.9 138.1 67.9 138.2 67.9 138.3 67.8 138.4 67.7 138.5 67.6 138.5 67.6 138.6 67.6 138.6 67.5 138.6 67.5 138.6 67.5 138.6 67.5 138.6 67.5 138.6 67.4 138.6 67.4 138.5 67.4 138.4 67.4 138.4 67.3 138.4 67.2 138.4 67.2 138.4 67.1 138.4 67 138.3 67 138.3 66.9 138.3 66.9 138.3 66.9 138.3 66.9 138.2 66.9 138.2 66.8 138.2 66.8 138.3 66.8 138.3 66.8 138.3 66.8 138.4 66.8 138.4 66.9 138.5 66.9 138.5 66.9 138.5 66.9 138.5 66.9 138.6 66.9 138.7 66.9 138.8 67 138.8 67 138.8 67 138.8 67 138.8 67 138.8 66.9 138.9 66.9 138.9 66.9 138.9 66.9 139 66.9 139.1 66.9 139.2 66.8 139.2 66.8 139.3 66.7 139.3 66.7 139.3 66.7 139.4 66.7 139.5 66.6 139.5 66.5 139.6 66.5 139.6 66.5 139.6 66.5 139.7 66.5 139.7 66.5 139.7 66.5 139.7 66.6 139.7 66.7 139.7 66.7 139.7 66.7 139.8 66.8 139.8 66.8 139.8 66.8 139.8 66.9 139.8 67 139.7 67.1 139.7 67.3 139.7 67.4 139.7 67.5 139.8 67.6 139.8 67.7 139.9 67.7 140 67.8 140 67.9 140.1 67.8 140.2 67.8 140.3 67.7 140.3 67.7 140.4 67.7 140.4 67.7 140.4 67.7 140.5 67.6 140.5 67.6 140.6 67.6 140.6 67.6 140.7 67.6 140.7 67.6 140.8 67.6 140.8 67.6 140.9 67.6 140.9 67.6 140.9 67.5 140.9 67.5 140.9 67.5 141 67.4 141 67.4 141 67.4 141 67.4 141.1 67.4 141.2 67.4 141.2 67.4 141.3 67.4 141.3 67.5 141.3 67.5 141.4 67.5 141.4 67.5 141.4 67.5 141.5 67.6 141.5 67.5 141.6 67.5 141.6 67.5 141.6 67.5 141.7 67.5 141.7 67.5 141.8 67.5 141.9 67.5 141.9 67.5 141.9 67.5 142 67.4 142 67.3 142.1 67.2 142.1 67.1 142.2 67 142.2 66.9 142.3 66.9 142.3 66.8 142.3 66.8 142.4 66.9 142.4 66.9 142.4 67 142.4 67 142.5 67.1 142.5 67.2 142.5 67.2 142.5 67.3 142.5 67.3 142.5 67.3 142.5 67.4 142.5 67.5 142.5 67.5 142.5 67.6 142.6 67.6 142.6 67.6 142.6 67.6 142.6 67.6 142.7 67.6 142.6 67.6 142.6 67.6 142.7 67.7 142.8 67.7 142.8 67.8 142.8 67.8 142.8 67.9 142.8 67.9 142.7 68 142.7 68 142.7 68 142.7 68 142.6 68.1 142.6 68.1 142.6 68.2 142.5 68.2 142.5 68.2 142.5 68.3 142.4 68.3 142.4 68.3 142.4 68.4 142.4 68.4 142.4 68.4 142.4 68.4 142.4 68.4 142.3 68.5 142.3 68.5 142.3 68.5 142.3 68.5 142.3 68.5 142.3 68.5 142.3 68.5 142.3 68.5 142.3 68.5 142.4 68.5 142.4 68.5 142.4 68.5 142.4 68.4 142.4 68.4 142.5 68.4 142.5 68.4 142.5 68.5 142.5 68.5 142.5 68.5 142.5 68.6 142.5 68.6 142.5 68.6 142.5 68.6 142.5 68.6 142.5 68.6 142.5 68.6 142.5 68.6 142.5 68.6 142.5 68.5 142.5 68.5 142.5 68.4 142.6 68.4 142.6 68.4 142.6 68.4 142.6 68.4 142.8 68.4 143 68.4 143.2 68.4 143.2 68.4 143.3 68.4 143.2 68.5 143.2 68.5 143.2 68.5 143.2 68.5 143.2 68.6 143.2 68.7 143.1 68.8 143.1 68.8 143 68.8 143 68.8 142.9 68.9 142.9 68.9 142.8 68.9" class="b"/></g></g></svg>
