<svg width="597" height="195" viewBox="0 0 597 195" xmlns="http://www.w3.org/2000/svg"><title>Page 1</title><g fill="#FFF" fill-rule="evenodd"><path d="M0 4.008l75.208-1.54-2.618 20.756c-7.092-.925-14.18-1.9-21.268-2.93L43 149.29h-5.563L31.83 21.68 1.852 23.224 0 4.008zm101.403 10.946l-.222 9.214-12.53.112-.77 23.432h12.09l-.67 10.606-11.21 1.002-4.33 47.024 14.76-.778v8.327l-22.69.224 2.21-99.83m23.88 102.273l26.19-58.967-25.19-38.087 13.21-2.776 17.75 35.09 26.51-44.224-18.07 53.997 31.52 30.202-15.65 10.22-21.64-31.095"/><path d="M182.676 14.064L162.2 117.654h11.65l4.998-40.526 11.318.336 6.712 30.99h14.09l-28.292-94.39zM179.68 69.7l3.883-31.983 5.77 32.87-9.654-.888zM455.083 6.1l-20.477 103.59h11.65l4.998-40.527 11.318.336 6.712 30.98h14.092L455.083 6.1zm-2.998 55.634l3.885-31.982 5.77 32.87-9.655-.888zM226.592 43.826c0 4.147 1.11 8.83 3.33 14.046 2.217 5.22 4.493 10.55 6.82 15.99 2.33 5.442 3.498 10.308 3.498 14.602 0 6.886-2.073 12.698-6.215 17.436-3.698 4.22-8.988 7.587-15.866 10.103l-1.01-6.105c8.58-4.59 12.87-11.957 12.87-22.1 0-5.474-1.56-10.955-4.66-16.433-2.89-4.44-5.77-8.92-8.66-13.44-3.11-5.326-4.66-10.51-4.66-15.543 0-4.516 1.59-8.808 4.77-12.88 2.59-3.334 6.29-6.514 11.1-9.55 3.47-2.22 7.65-4.405 12.53-6.552l3.99 2.775c-5.25 4.073-9.28 8.033-12.09 11.883-3.85 5.257-5.77 10.51-5.77 15.768m108.81 89.58c12.74-3.804 23.52-9.2 32.36-16.19 11.4-8.945 17.1-18.92 17.1-29.924 0-8.02-2.93-15.06-8.78-21.13-4.73-4.934-11.26-9.098-19.58-12.493 3.8-4.83 6.37-8.23 7.7-10.18 4.73-7.2 7.09-13.78 7.09-19.74 0-8.02-3.24-14.14-9.71-18.36C356.05 1.8 349.11 0 340.79 0l-5.77.15.38 133.25zm17.88-90.84c-1.86 2.57-4.58 5.244-8.18 8.02l2.31-35.318c6.47 3.6 9.7 9.153 9.7 16.658 0 3.6-1.29 7.147-3.85 10.64zm7.7 63.697c-2.98 2.88-8.07 6.84-15.26 11.876l.77-53.83c6.88 1.95 12.33 4.88 16.33 8.79 4.52 4.42 6.78 9.97 6.78 16.65 0 5.34-2.88 10.85-8.63 16.5zm31.76 11.184h11.43l-.34-23.985 21.64 19.21 5.77-6.33L407.51 89.8c8.802-4.37 15.236-9.07 19.305-14.103 4.884-5.998 7.326-13.44 7.326-22.322 0-10.436-3.7-18.95-11.09-25.538-6.51-5.852-16.97-9.55-27.77-11.107l-2.52 100.717zm23.75-45.972c-2.97 4.74-7.26 9.184-12.88 13.33l4.33-57.08c4.58 2.665 8.02 6.294 10.32 10.88 2.29 4.593 3.44 9.628 3.44 15.102 0 6.37-1.74 12.292-5.22 17.768z"/><path d="M529.647 19.508L492.81 95.24l26.94 1.442-3.22 14.322-38.922-6.437 34.174-77.842-24.966-.998 1.443-9.22m56.48 8.708l-5.44 7.555-5.55-5.776 4.77-7.553 6.21 5.78zm-.22 66.41c-.81 8.9-2.67 16.467-5.11 22.758-3.11-5.698-6.19-11.722-7.5-18.487-5.62-29.055 7.38-59.575 7.38-59.575s8.97 13.79 5.21 55.31zm7.94 47.213L597 141.3v-23.945l-29.282 7.447.77-117.862-11.865-.463m-288.96 78.86c-1.56-3.265-2.344-6.405-2.344-9.424 0-2.77.63-4.603 1.89-7.478 1.23-2.817 2.85-5.116 4.85-6.912v29.903c-1.84-2.215-3.31-3.827-4.41-6.088m10.33 21.22l2.28-81.942h-8.21v27.94s-34.38 21.45 5.92 54.003m26.63-34.04h-10.68c-.2-6.21 6.26-11.8 6.26-11.8s2.02 1.36 3.04 3.96c1.49 3.82 1.38 7.84 1.38 7.84m3.33-12.12c-2.36-6.03-7.06-9.75-7.06-9.75s-14.84 7.69-14.38 25.4c0 0 .1 21.88 21.82 31.88v-9.88c-13.97-5.74-13.74-19.32-13.74-19.32h16.55s.26-9.47-3.21-18.33"/><path d="M585.864 111.005v-9.92h-2.077v-.755h5.114v.755h-2.09v9.92m3.03 0V100.33H591l2.056 9.217c.253-1.207.587-2.685 1.006-4.433.418-1.747.77-3.342 1.055-4.784h1.16v10.675h-.837v-8.542l-1.97 8.542h-.82l-1.97-8.536V111h-.84zM76.02 179.333c-.68 0-1.277-.095-1.793-.288-.52-.193-.944-.46-1.276-.8-.33-.34-.6-.765-.8-1.27-.2-.51-.35-1.052-.43-1.627-.08-.58-.12-1.23-.12-1.956v-4.61c0-.728.04-1.38.13-1.956.09-.577.23-1.12.44-1.628.21-.507.48-.93.81-1.266.33-.338.76-.6 1.28-.794.52-.193 1.11-.29 1.79-.29.75 0 1.4.11 1.95.335.55.222.99.548 1.31.98.33.433.58.937.74 1.51.17.568.27 1.236.29 2 .01.116.01.292.01.533h-2.31v-.515c0-.31-.01-.58-.03-.81-.02-.22-.05-.46-.1-.7-.05-.24-.12-.44-.21-.6-.09-.16-.21-.3-.35-.44-.14-.13-.32-.23-.53-.29-.21-.06-.47-.09-.76-.09-.37 0-.69.06-.96.18-.26.12-.47.28-.62.47-.15.19-.26.45-.34.76-.08.32-.13.63-.16.94-.02.3-.03.68-.03 1.12V174c0 .39.02.734.05 1.047.03.314.1.626.19.935.1.31.23.57.38.78.16.21.36.38.61.51.26.13.56.197.9.197.34 0 .64-.07.89-.2s.44-.3.58-.51c.14-.2.26-.47.34-.78.08-.32.14-.63.16-.93.03-.3.04-.65.04-1.04v-.58h2.31v.58c0 .83-.07 1.56-.22 2.2-.15.63-.38 1.19-.71 1.67-.32.48-.77.85-1.33 1.1-.56.25-1.24.38-2.03.38"/><path d="M76.022 179.446c-.69 0-1.308-.1-1.834-.294-.53-.2-.973-.477-1.313-.828-.337-.346-.617-.786-.83-1.31-.21-.51-.36-1.067-.444-1.65-.08-.58-.12-1.24-.12-1.973v-4.6c0-.73.05-1.39.13-1.97.09-.58.24-1.14.45-1.65.21-.52.49-.96.83-1.3.34-.34.79-.62 1.31-.82.53-.19 1.15-.29 1.84-.29.76 0 1.43.12 1.99.34.56.24 1.02.58 1.36 1.03.34.44.59.96.76 1.54.17.58.27 1.26.3 2.03.01.11.01.29.01.54v.12H77.9v-.63c-.004-.31-.02-.58-.035-.81-.02-.22-.05-.45-.098-.68-.045-.23-.11-.42-.196-.57-.09-.15-.2-.29-.33-.41s-.29-.21-.48-.27c-.2-.06-.45-.09-.72-.09-.35 0-.66.06-.91.17-.25.12-.44.26-.58.43-.14.18-.25.42-.32.72-.08.31-.13.62-.15.92-.02.3-.03.67-.03 1.11V174c0 .38.02.73.05 1.036.03.306.09.61.19.91.09.3.22.55.36.75.15.196.34.35.58.478.24.12.52.18.84.18.33 0 .6-.062.83-.182.23-.127.41-.284.54-.47.14-.196.24-.447.32-.75.08-.31.13-.616.16-.91.02-.297.04-.646.04-1.04v-.692h2.53v.69c0 .84-.08 1.586-.23 2.227-.15.64-.4 1.22-.73 1.71-.34.5-.8.89-1.38 1.15-.57.26-1.28.388-2.08.388m0-16.485c-.66 0-1.25.1-1.75.284-.5.187-.91.445-1.22.77-.32.325-.58.74-.78 1.23-.2.5-.35 1.037-.43 1.6-.08.57-.12 1.22-.12 1.94v4.61c0 .72.04 1.375.12 1.94.08.566.22 1.105.43 1.6.2.495.47.91.78 1.235.31.32.73.58 1.22.77.5.18 1.09.28 1.76.28.77 0 1.44-.13 1.98-.37s.98-.61 1.29-1.07c.31-.47.55-1.02.69-1.64.14-.62.22-1.36.22-2.18v-.47h-2.08v.47c0 .4-.01.76-.03 1.05-.02.31-.07.63-.16.95-.08.33-.2.61-.35.82-.15.22-.36.4-.62.54s-.57.21-.93.21c-.36 0-.68-.07-.95-.2-.27-.14-.49-.32-.65-.54-.16-.22-.29-.49-.39-.82-.1-.32-.17-.64-.2-.96-.03-.32-.05-.67-.05-1.06v-5.77c0-.45.01-.83.04-1.14.03-.31.08-.63.16-.95.09-.34.21-.61.37-.81.17-.2.39-.37.67-.5.29-.13.62-.19 1.01-.19.3 0 .57.03.79.1.23.07.43.17.58.32.15.13.28.29.38.46.1.17.17.38.22.63.05.24.08.48.1.71.02.22.03.5.04.82v.4h2.08c0-.18-.004-.32-.01-.41-.03-.75-.125-1.41-.29-1.98-.16-.55-.4-1.05-.72-1.47-.31-.41-.74-.73-1.26-.94-.534-.22-1.174-.33-1.904-.33m13.57 16.21V163h2.31v6.93H96v-6.925h2.31v16.16H96v-7.5h-4.04v7.5"/><path d="M98.367 179.284h-2.535v-7.5h-3.81v7.5h-2.534v-16.388h2.534v6.925h3.81v-6.92h2.535v16.39zm-2.307-.228h2.077v-15.932H96.06v6.927h-4.266v-6.92h-2.078v15.93h2.078v-7.5h4.266v7.51zm18.592.004c-.534.188-1.152.284-1.855.284-.7 0-1.32-.096-1.857-.283-.535-.18-.974-.44-1.32-.78-.347-.33-.625-.75-.842-1.25-.216-.5-.37-1.05-.46-1.63-.09-.59-.135-1.25-.135-1.99v-10.39h2.307v10.39c0 .5.01.92.033 1.25.02.34.075.7.164 1.09.093.38.215.69.377.92.16.23.382.42.676.57.288.16.643.23 1.057.23.415 0 .77-.07 1.057-.22.295-.15.52-.34.676-.57.162-.22.284-.53.375-.91.09-.38.145-.74.166-1.08.03-.34.04-.75.04-1.25v-10.39h2.31v10.39c0 .74-.04 1.4-.13 1.99-.09.59-.24 1.13-.46 1.64-.21.51-.49.93-.84 1.26-.34.34-.78.6-1.32.78"/><path d="M112.796 179.457c-.71 0-1.345-.096-1.892-.29-.55-.187-1.008-.46-1.362-.802-.355-.342-.65-.777-.867-1.294-.222-.51-.38-1.07-.47-1.66-.09-.58-.135-1.26-.135-2v-10.5h2.533v10.5c0 .5.012.92.03 1.25.024.33.078.68.165 1.06.087.37.21.66.356.88.15.21.365.39.64.53.268.15.61.22 1.002.22.394 0 .734-.07 1.008-.21.27-.14.487-.32.632-.53.15-.21.27-.51.356-.88.09-.37.143-.72.166-1.05.023-.33.03-.74.03-1.24v-10.5h2.536v10.5c0 .75-.045 1.42-.134 2.01-.094.6-.25 1.16-.47 1.67-.22.52-.513.96-.87 1.3-.354.34-.808.62-1.36.8-.55.2-1.183.29-1.894.29zm-4.498-16.333V173.4c0 .73.045 1.395.135 1.97.087.575.24 1.116.45 1.61.21.49.484.898.816 1.222.33.32.76.572 1.27.753.52.18 1.13.273 1.82.273.68 0 1.29-.093 1.82-.273.52-.18.94-.434 1.28-.753.33-.324.6-.733.82-1.222.21-.494.36-1.033.45-1.61.09-.575.13-1.24.13-1.97v-10.276h-2.08V173.4c0 .512-.01.924-.04 1.258-.02.347-.08.714-.17 1.098-.1.398-.22.713-.39.956s-.41.446-.72.604c-.3.16-.68.236-1.11.236-.43 0-.81-.076-1.11-.236-.31-.158-.55-.36-.72-.604-.17-.243-.3-.558-.39-.956-.09-.39-.15-.757-.17-1.098-.03-.338-.04-.76-.04-1.26v-10.274h-2.08zm19.042 16.046v-16.16h2.886c1.72 0 3.012.335 3.883 1 .87.67 1.3 1.78 1.3 3.33 0 .96-.17 1.766-.52 2.417-.34.645-.85 1.09-1.51 1.332l2.59 8.08h-2.28l-2.33-7.5h-1.73v7.5h-2.31zm2.308-9.232h.578c.96 0 1.68-.206 2.162-.61.48-.405.72-1.07.72-1.988 0-.92-.24-1.585-.72-1.99-.483-.404-1.202-.607-2.162-.607h-.578v5.195z"/><path d="M136.15 179.284h-2.53l-2.326-7.5h-1.532v7.5h-2.535v-16.388h2.997c1.735 0 3.066.347 3.953 1.025.898.69 1.352 1.84 1.352 3.42 0 .98-.18 1.81-.53 2.47-.34.64-.83 1.09-1.47 1.35l2.61 8.13zm-2.362-.228h2.046l-2.58-8.034.103-.037c.63-.23 1.117-.662 1.444-1.283.34-.628.5-1.423.5-2.362 0-1.506-.42-2.595-1.26-3.237-.84-.65-2.13-.98-3.81-.98h-2.76v15.933h2.08v-7.503h1.93l2.33 7.503zm-3.564-9.005h-.69v-5.42h.69c.985 0 1.735.22 2.237.64.51.43.77 1.13.77 2.08s-.25 1.65-.76 2.08c-.5.42-1.25.64-2.23.64zm-.462-.23h.462c.93 0 1.632-.19 2.09-.58.452-.38.68-1.02.68-1.9 0-.88-.228-1.52-.68-1.9-.458-.38-1.16-.58-2.09-.58h-.462v4.97zm15.314 9.35v-16.16h2.886c1.718 0 3.012.34 3.882 1 .87.67 1.308 1.78 1.308 3.33 0 .96-.172 1.77-.516 2.42-.342.65-.844 1.09-1.503 1.33l2.596 8.08h-2.3l-2.33-7.5h-1.73v7.5h-2.31zm2.307-9.23h.58c.958 0 1.678-.2 2.16-.61.48-.4.72-1.07.72-1.99 0-.92-.24-1.58-.72-1.99-.482-.4-1.202-.6-2.16-.6h-.58v5.2z"/><path d="M153.884 179.284h-2.53l-2.325-7.5h-1.54v7.5h-2.54v-16.388h3c1.73 0 3.06.347 3.95 1.025.9.69 1.35 1.84 1.35 3.42 0 .98-.18 1.81-.53 2.47-.34.64-.83 1.09-1.47 1.35l2.61 8.13zm-2.36-.228h2.045l-2.58-8.034.1-.037c.63-.23 1.11-.662 1.44-1.283.33-.628.5-1.423.5-2.362 0-1.506-.43-2.595-1.27-3.237-.85-.65-2.13-.98-3.82-.98h-2.77v15.933h2.08v-7.503h1.92l2.32 7.503zm-3.564-9.005h-.69v-5.42h.69c.984 0 1.735.22 2.236.64.506.43.763 1.13.763 2.08s-.26 1.65-.77 2.08c-.5.42-1.25.64-2.24.64zm-.463-.23h.463c.928 0 1.63-.19 2.09-.58.45-.38.68-1.02.68-1.9 0-.88-.23-1.52-.68-1.9-.46-.38-1.162-.58-2.09-.58h-.463v4.97zm14.306 9.35l3.46-16.16h2.305l3.46 16.16h-2.305l-.865-4.04h-2.885l-.865 4.04h-2.305zm3.46-5.77h2.305l-1.153-6.92-1.152 6.93z"/><path d="M171.17 179.284h-2.54l-.866-4.04h-2.697l-.866 4.04h-2.54l3.51-16.388h2.5l.02.09 3.49 16.298zm-2.355-.228h2.073l-3.412-15.932h-2.12l-3.413 15.932h2.073l.865-4.04h3.07l.87 4.04zm-1.11-5.543h-2.578l1.288-7.735 1.29 7.735zm-2.308-.23h2.037l-1.02-6.113-1.017 6.113zm18.888 6.05c-1.453 0-2.564-.427-3.33-1.28-.766-.855-1.193-2.02-1.284-3.5l2.31-.576c.12 2.307.89 3.462 2.31 3.462 1.16 0 1.73-.58 1.73-1.74 0-.34-.04-.66-.14-.95-.09-.3-.23-.56-.42-.81-.19-.25-.36-.44-.52-.59-.15-.15-.37-.33-.64-.55l-2.88-2.31c-.53-.42-.95-.94-1.26-1.58-.31-.64-.47-1.38-.47-2.19 0-1.19.37-2.14 1.11-2.84.74-.7 1.72-1.06 2.94-1.06 1.31 0 2.35.32 3.12.96.78.64 1.25 1.54 1.43 2.72.02.12.04.3.06.52l-2.3.57c0-.1-.02-.26-.04-.46-.1-.74-.33-1.32-.69-1.76-.35-.44-.88-.66-1.57-.66-.55 0-.98.15-1.28.46-.3.31-.45.74-.45 1.29 0 .91.39 1.67 1.16 2.28l2.88 2.31c1.54 1.24 2.31 2.73 2.31 4.46 0 1.19-.36 2.11-1.09 2.78-.73.67-1.71 1-2.94 1"/><path d="M184.285 179.446c-1.48 0-2.63-.443-3.414-1.317-.78-.87-1.22-2.08-1.31-3.57v-.1l2.53-.63.01.14c.11 2.25.83 3.35 2.19 3.35 1.09 0 1.62-.53 1.62-1.62 0-.33-.04-.64-.13-.92s-.23-.54-.41-.77c-.18-.24-.36-.43-.51-.58-.16-.15-.37-.33-.63-.54l-2.88-2.31c-.53-.42-.97-.97-1.29-1.63-.32-.65-.48-1.41-.48-2.24 0-1.22.38-2.2 1.14-2.93.76-.72 1.77-1.09 3.02-1.09 1.33 0 2.41.33 3.2.98.79.65 1.29 1.59 1.47 2.79.02.13.04.3.07.53l.01.1-2.53.63-.01-.14c0-.1-.02-.25-.04-.46-.1-.71-.32-1.28-.66-1.7-.33-.42-.83-.63-1.48-.63-.53 0-.92.14-1.2.43-.28.29-.42.69-.42 1.21 0 .88.36 1.59 1.11 2.19l2.89 2.31c1.56 1.26 2.35 2.79 2.35 4.55 0 1.21-.38 2.18-1.14 2.87-.75.68-1.76 1.03-3.02 1.03zm-4.492-4.804c.1 1.4.52 2.52 1.248 3.334.74.823 1.84 1.244 3.25 1.244 1.2 0 2.16-.327 2.87-.973.7-.64 1.06-1.547 1.06-2.694 0-1.685-.76-3.156-2.26-4.37l-2.88-2.312c-.79-.63-1.19-1.43-1.19-2.37 0-.58.17-1.04.49-1.37.33-.33.78-.5 1.37-.5.73 0 1.28.24 1.66.71.38.45.62 1.07.72 1.82.02.13.03.24.04.33l2.08-.52c-.02-.17-.03-.31-.05-.42-.17-1.14-.64-2.03-1.38-2.65-.74-.62-1.77-.93-3.05-.93-1.18 0-2.14.35-2.85 1.03s-1.07 1.61-1.07 2.76c0 .8.16 1.52.46 2.14.31.63.72 1.14 1.24 1.55l2.89 2.31c.27.22.49.4.65.55.16.16.34.36.53.6.2.25.35.54.45.84.1.31.15.64.15.99 0 1.23-.62 1.85-1.84 1.85-1.46 0-2.27-1.15-2.41-3.43l-2.08.52zm22.11 4.69c-.68 0-1.277-.094-1.793-.287-.516-.193-.94-.46-1.273-.8-.33-.34-.6-.765-.804-1.27-.207-.51-.352-1.052-.437-1.627-.085-.58-.127-1.23-.127-1.956v-4.61c0-.728.04-1.38.12-1.956.08-.577.23-1.12.43-1.628.2-.507.47-.93.8-1.266.33-.338.75-.6 1.27-.794.51-.193 1.11-.29 1.79-.29.75 0 1.4.11 1.94.335.55.222.98.548 1.31.98.32.433.57.937.74 1.51.16.568.26 1.236.29 2 0 .116.01.292.01.533h-2.31v-.515c-.01-.31-.02-.58-.04-.81-.02-.22-.05-.46-.1-.7-.05-.24-.12-.44-.22-.6-.1-.16-.21-.3-.36-.44-.14-.13-.32-.23-.54-.29-.22-.06-.47-.09-.76-.09-.38 0-.7.06-.96.18-.27.12-.48.28-.63.47-.15.19-.27.45-.35.76-.08.32-.13.63-.16.94-.02.3-.03.68-.03 1.12V174c0 .39.01.734.05 1.047.03.314.1.626.19.935.09.31.22.57.37.78.15.21.36.38.61.51.26.13.56.197.9.197.34 0 .64-.07.88-.2s.44-.3.58-.51c.14-.2.25-.47.33-.78.08-.32.13-.63.15-.93.02-.3.03-.65.03-1.04v-.58h2.3v.58c0 .83-.08 1.56-.22 2.2-.15.63-.39 1.19-.72 1.67-.33.48-.77.85-1.34 1.1-.56.25-1.24.38-2.03.38"/><path d="M201.903 179.446c-.69 0-1.308-.1-1.832-.294-.53-.2-.97-.477-1.31-.828-.34-.346-.61-.786-.83-1.31-.21-.51-.36-1.067-.44-1.65-.08-.58-.12-1.24-.12-1.973v-4.6c0-.73.05-1.39.13-1.97.09-.58.24-1.14.45-1.65.21-.52.49-.96.83-1.3.34-.34.78-.62 1.32-.82.53-.19 1.15-.29 1.83-.29.76 0 1.43.12 1.99.34.57.24 1.02.58 1.36 1.03.33.44.59.96.76 1.54.17.58.27 1.26.3 2.03.01.11.01.29.01.54v.12h-2.54v-.63c0-.31-.02-.58-.03-.81-.02-.22-.05-.45-.09-.68-.05-.23-.11-.42-.19-.57-.09-.15-.2-.29-.33-.41s-.29-.21-.49-.27c-.2-.06-.45-.09-.72-.09-.35 0-.66.06-.91.17-.25.12-.44.26-.58.43-.14.18-.25.42-.32.72-.08.31-.13.62-.16.92-.02.3-.03.67-.03 1.11V174c0 .38.02.73.05 1.036.03.306.1.61.19.91.09.3.21.55.35.75.15.196.33.35.58.478.24.12.52.18.85.18.32 0 .6-.062.82-.182.23-.127.42-.284.55-.47.14-.196.24-.447.32-.75.08-.31.14-.616.16-.91.02-.297.04-.646.04-1.04v-.692h2.54v.69c0 .84-.07 1.586-.22 2.227-.15.64-.39 1.22-.73 1.71-.34.5-.8.89-1.38 1.15-.57.26-1.27.388-2.08.388m0-16.485c-.66 0-1.25.1-1.75.284-.5.187-.91.445-1.22.77-.32.325-.58.74-.78 1.23-.2.5-.35 1.037-.43 1.6-.08.57-.12 1.22-.12 1.94v4.61c0 .72.04 1.375.12 1.94.08.566.23 1.105.43 1.6.2.495.46.91.78 1.235.32.32.73.58 1.23.77.5.18 1.09.28 1.76.28.776 0 1.44-.13 1.987-.37.54-.25.978-.61 1.29-1.07.32-.47.557-1.02.7-1.64.14-.62.214-1.36.214-2.18v-.47h-2.07v.47c0 .4-.01.76-.04 1.05-.02.31-.08.63-.16.95-.083.33-.2.61-.35.82-.15.22-.36.4-.622.54-.26.14-.57.21-.93.21-.36 0-.68-.07-.95-.2-.27-.14-.49-.32-.66-.54-.16-.22-.29-.49-.39-.82-.1-.32-.164-.64-.2-.96-.03-.32-.05-.67-.05-1.06v-5.77c0-.45.01-.83.04-1.14.02-.31.077-.63.16-.95.08-.34.21-.61.365-.81.16-.2.39-.37.67-.5s.62-.19 1.005-.19c.3 0 .56.03.79.1.23.07.42.17.58.32.14.13.27.29.37.46.1.17.176.38.227.63.05.24.08.48.1.71.02.22.03.5.04.82v.4h2.08c0-.18-.002-.32-.01-.41-.03-.75-.13-1.41-.29-1.98-.16-.55-.4-1.05-.72-1.47-.31-.41-.74-.73-1.26-.94-.53-.22-1.17-.33-1.9-.33m12.52 16.26l3.46-16.16h2.308l3.46 16.16h-2.3l-.87-4.04h-2.89l-.86 4.04h-2.3zm3.46-5.77h2.308l-1.15-6.92-1.153 6.92z"/><path d="M223.84 179.284h-2.538l-.867-4.04h-2.697l-.864 4.04h-2.54l3.506-16.388h2.494l.018.09 3.49 16.298zm-2.354-.228h2.073l-3.41-15.932h-2.13l-3.41 15.932h2.07l.86-4.04h3.07l.86 4.04zm-1.11-5.543h-2.578l1.288-7.735 1.29 7.735zm-2.306-.23h2.036l-1.02-6.113-1.016 6.113zm14.68 5.887v-16.16h2.883c1.72 0 3.012.335 3.883 1 .87.67 1.308 1.78 1.308 3.33 0 .96-.172 1.766-.516 2.417-.342.645-.844 1.09-1.503 1.332l2.595 8.08h-2.29l-2.326-7.5h-1.73v7.5h-2.304zm2.305-9.232h.578c.96 0 1.68-.206 2.162-.61.48-.405.72-1.07.72-1.988 0-.92-.24-1.585-.72-1.99-.483-.404-1.202-.607-2.162-.607h-.578v5.195z"/><path d="M241.556 179.284h-2.53l-2.325-7.5h-1.53v7.5h-2.53v-16.388h3c1.74 0 3.07.347 3.96 1.025.9.69 1.35 1.84 1.35 3.42 0 .98-.17 1.81-.52 2.47-.33.64-.83 1.09-1.46 1.35l2.61 8.13zm-2.36-.228h2.045l-2.57-8.034.1-.037c.63-.23 1.12-.662 1.45-1.283.33-.628.5-1.423.5-2.362 0-1.506-.42-2.595-1.26-3.237-.84-.65-2.13-.98-3.81-.98h-2.76v15.933h2.08v-7.503h1.93l2.33 7.503zm-3.565-9.005h-.69v-5.42h.69c.99 0 1.74.22 2.24.64.51.43.77 1.13.77 2.08s-.25 1.65-.76 2.08c-.5.42-1.25.64-2.23.64zm-.46-.23h.46c.93 0 1.64-.19 2.09-.58.46-.38.69-1.02.69-1.9 0-.88-.23-1.52-.68-1.9-.45-.38-1.16-.58-2.09-.58h-.46v4.97zm15.42 9.36h2.31v-16.16h-2.3"/><path d="M250.475 179.284h2.537v-16.387h-2.537v16.387zm.232-.226h2.077v-15.934h-2.077v15.934zm11.403.112l3.46-16.16h2.304l3.46 16.16h-2.306l-.864-4.04h-2.886l-.864 4.04h-2.305zm3.46-5.77h2.304l-1.153-6.925-1.15 6.925z"/><path d="M271.475 179.284h-2.54l-.865-4.04h-2.7l-.864 4.04h-2.54l3.508-16.388h2.496l.017.09 3.488 16.298zm-2.354-.228h2.08l-3.41-15.932h-2.12l-3.41 15.932h2.07l.87-4.04h3.07l.87 4.04zm-1.11-5.543h-2.57l1.29-7.735 1.29 7.735zm-2.3-.23h2.04l-1.02-6.113-1.01 6.113zm101.03 6.05c-1.45 0-2.56-.427-3.33-1.28-.76-.855-1.19-2.02-1.28-3.5l2.31-.576c.11 2.307.88 3.462 2.31 3.462 1.15 0 1.73-.58 1.73-1.74 0-.34-.05-.66-.14-.95-.09-.3-.24-.56-.43-.81s-.36-.44-.52-.59c-.16-.15-.37-.33-.64-.55l-2.88-2.31c-.52-.42-.95-.94-1.26-1.58-.31-.64-.47-1.38-.47-2.19 0-1.19.37-2.14 1.11-2.84.74-.7 1.72-1.06 2.94-1.06 1.31 0 2.35.32 3.13.96.77.64 1.25 1.54 1.43 2.72.02.12.05.3.07.52l-2.31.57c0-.1-.02-.26-.04-.46-.1-.74-.33-1.32-.69-1.76-.35-.44-.87-.66-1.57-.66-.55 0-.97.15-1.28.46-.3.31-.45.74-.45 1.29 0 .91.39 1.67 1.16 2.28l2.88 2.31c1.54 1.24 2.31 2.73 2.31 4.46 0 1.19-.36 2.11-1.09 2.78-.73.67-1.71 1-2.94 1"/><path d="M366.728 179.446c-1.484 0-2.632-.443-3.414-1.317-.78-.87-1.22-2.08-1.312-3.57l-.006-.1 2.533-.63v.14c.11 2.25.83 3.35 2.19 3.35 1.08 0 1.61-.53 1.61-1.62 0-.33-.05-.64-.13-.92-.09-.28-.23-.54-.41-.77-.18-.24-.36-.43-.51-.58-.16-.15-.37-.33-.64-.54l-2.89-2.31c-.54-.42-.97-.97-1.3-1.63-.32-.65-.48-1.41-.48-2.24 0-1.22.38-2.2 1.14-2.93.76-.72 1.77-1.09 3.01-1.09 1.33 0 2.4.33 3.19.98.78.66 1.28 1.59 1.46 2.79.02.13.04.3.07.53l.01.1-2.54.63-.01-.14c-.01-.1-.02-.25-.04-.46-.1-.71-.33-1.29-.67-1.7-.34-.42-.83-.63-1.48-.63-.52 0-.93.14-1.2.43-.28.28-.42.69-.42 1.21 0 .88.36 1.59 1.11 2.19l2.88 2.31c1.56 1.26 2.35 2.79 2.35 4.55 0 1.21-.39 2.18-1.14 2.87-.75.68-1.76 1.03-3.02 1.03zm-4.494-4.804c.102 1.4.523 2.52 1.25 3.334.738.825 1.83 1.244 3.244 1.244 1.194 0 2.158-.327 2.865-.973.703-.64 1.06-1.547 1.06-2.694 0-1.683-.765-3.156-2.266-4.37l-2.886-2.312c-.79-.63-1.19-1.42-1.19-2.37 0-.58.16-1.04.48-1.37.33-.33.78-.5 1.37-.5.72 0 1.28.24 1.66.71.37.45.61 1.07.72 1.82.02.13.03.24.04.33l2.08-.52c-.02-.17-.04-.31-.05-.42-.17-1.14-.63-2.03-1.38-2.65-.74-.62-1.77-.93-3.04-.93-1.18 0-2.14.35-2.86 1.03-.71.68-1.07 1.61-1.07 2.76 0 .8.16 1.52.47 2.14.31.63.72 1.14 1.24 1.55l2.88 2.31c.27.22.49.4.65.55.17.16.35.36.54.6.2.25.35.54.45.84.09.3.14.63.14.99 0 1.23-.62 1.85-1.84 1.85-1.46 0-2.27-1.15-2.41-3.43l-2.08.52zm19.686 4.528v-14.103h-2.882v-2.056h8.072v2.06h-2.882v14.11"/><path d="M384.342 179.284h-2.535v-14.102h-2.883v-2.286h8.304v2.286h-2.886v14.102zm-2.307-.228h2.08v-14.102h2.883v-1.83h-7.846v1.83h2.883v14.102zm13.97.114v-16.16h6.344v1.733h-4.04v5.195h2.88v1.732h-2.89v5.77h4.04v1.73"/><path d="M402.462 179.284h-6.57v-16.388h6.57v1.96h-4.036v4.965h2.883v1.97h-2.89v5.55h4.03v1.96zm-6.345-.228h6.117v-1.504h-4.036v-6h2.883v-1.5h-2.88v-5.424h4.04v-1.504h-6.11v15.932zm14.39.114l3.46-16.16h2.307l3.46 16.16h-2.308l-.864-4.04h-2.886l-.862 4.04h-2.307zm3.46-5.77h2.307l-1.153-6.925-1.15 6.925z"/><path d="M419.875 179.284h-2.543l-.017-.09-.848-3.95h-2.694l-.867 4.04h-2.54l.03-.14 3.478-16.248h2.494l.016.09 3.49 16.298zm-2.357-.228h2.073l-3.4-15.932h-2.12l-3.41 15.932h2.08l.87-4.04h3.07l.02.09.85 3.95zm-1.11-5.543h-2.577l.03-.132 1.27-7.6 1.29 7.74zm-2.306-.23h2.036l-1.018-6.113-1.018 6.113zm14.678 5.887v-16.16h2.307v6.928l3.46-6.927h2.884l-3.46 6.35 4.05 9.81h-2.88l-2.88-7.5-1.15 2.31v5.2"/><path d="M438.18 179.284h-3.137l-.025-.072-2.79-7.26-1.026 2.05v5.282h-2.537v-16.388h2.537v6.555l3.275-6.55h3.145l-.09.17-3.445 6.3 4.092 9.92zm-2.98-.228h2.637l-4.002-9.704 3.403-6.228h-2.622l-3.644 7.298v-7.298h-2.077v15.932h2.077l.012-5.132 1.27-2.54 2.947 7.672zm11.405.114v-16.16h2.307v6.928h4.038v-6.927h2.307v16.16h-2.307v-7.5h-4.038v7.5"/><path d="M455.368 179.284h-2.535v-7.5h-3.808v7.5h-2.533v-16.388h2.533v6.925h3.808v-6.92h2.535v16.39zm-2.305-.228h2.08v-15.932h-2.08v6.927h-4.266v-6.92h-2.08v15.93h2.08v-7.5h4.266v7.51zm16.412.277c-.814 0-1.51-.122-2.087-.37-.578-.246-1.04-.607-1.383-1.082-.342-.47-.59-1.03-.748-1.67-.155-.64-.232-1.38-.232-2.23v-5.86c0-.85.077-1.59.232-2.22.158-.63.406-1.18.748-1.64.344-.46.805-.81 1.383-1.05.578-.23 1.273-.35 2.087-.35 1.574 0 2.71.46 3.406 1.36.7.9 1.05 2.21 1.05 3.92V174c0 .835-.08 1.57-.23 2.212-.16.64-.41 1.2-.75 1.677-.34.47-.8.84-1.38 1.09-.58.24-1.27.37-2.07.37m-1.68-2.63c.31.48.87.73 1.69.73.81 0 1.37-.25 1.68-.73.31-.49.47-1.21.47-2.16v-7.02c0-.94-.15-1.64-.46-2.11-.3-.46-.87-.69-1.68-.69-.82 0-1.38.23-1.69.69-.3.46-.46 1.16-.46 2.1v7.01c0 .95.16 1.67.46 2.15"/><path d="M469.475 179.446c-.825 0-1.542-.128-2.133-.38-.595-.252-1.075-.628-1.43-1.12-.348-.483-.605-1.057-.765-1.71-.157-.644-.236-1.405-.236-2.26v-5.86c0-.855.08-1.61.24-2.247.16-.65.42-1.22.77-1.69.36-.49.84-.85 1.44-1.09.59-.24 1.31-.36 2.13-.36 1.61 0 2.78.47 3.5 1.39.71.92 1.07 2.26 1.07 3.98v5.86c0 .84-.08 1.59-.24 2.24-.16.65-.42 1.23-.77 1.72-.35.49-.83.87-1.43 1.13-.59.25-1.3.38-2.12.38m0-16.49c-.79 0-1.48.12-2.04.34-.55.22-1 .56-1.33 1.01-.33.45-.58.99-.73 1.6-.15.62-.23 1.35-.23 2.19v5.86c0 .84.08 1.57.23 2.2.15.63.4 1.17.73 1.63.33.46.78.81 1.34 1.04.56.24 1.25.36 2.04.36s1.47-.12 2.03-.36c.57-.24 1.01-.6 1.34-1.06.33-.46.58-1.01.74-1.64.16-.63.24-1.36.24-2.19v-5.86c0-1.67-.34-2.97-1.02-3.84-.67-.87-1.78-1.31-3.31-1.31m0 14.59c-.85 0-1.44-.27-1.78-.79-.32-.5-.48-1.25-.48-2.22v-7.01c0-.96.16-1.69.48-2.17.33-.49.93-.74 1.78-.74s1.45.25 1.78.74c.32.48.48 1.21.48 2.17v7.01c0 .97-.16 1.71-.48 2.21-.33.52-.92.78-1.77.78m-1.58-.9c.29.45.81.68 1.59.68s1.3-.23 1.59-.68c.3-.47.45-1.17.45-2.1v-7.01c0-.91-.15-1.6-.44-2.04-.28-.43-.82-.64-1.59-.64-.77 0-1.31.21-1.59.64-.29.44-.44 1.13-.44 2.04v7.02c0 .92.15 1.63.45 2.09m22.15 2.41c-.54.18-1.16.28-1.86.28-.7 0-1.32-.1-1.85-.28-.54-.19-.98-.45-1.32-.78-.35-.33-.63-.75-.84-1.26-.22-.51-.37-1.05-.46-1.64-.1-.59-.14-1.25-.14-1.99V163h2.3v10.39c0 .5.01.918.03 1.25.02.34.08.7.17 1.085.09.38.22.688.37.914.16.22.39.41.68.56.29.15.64.22 1.06.22.42 0 .77-.08 1.06-.23.3-.15.52-.34.68-.57.16-.23.29-.54.38-.92.09-.39.15-.75.17-1.08.02-.34.03-.75.03-1.25V163h2.31v10.39c0 .736-.05 1.4-.13 1.99-.09.584-.24 1.13-.46 1.633-.21.505-.49.922-.84 1.256-.34.34-.78.6-1.32.78"/><path d="M488.182 179.457c-.71 0-1.345-.096-1.894-.29-.552-.187-1.006-.46-1.36-.802-.355-.342-.647-.777-.87-1.294-.22-.51-.374-1.07-.465-1.66-.093-.58-.137-1.26-.137-2v-10.5h2.533v10.5c0 .52.01.93.03 1.25.02.33.07.68.16 1.06.09.37.21.67.36.88.14.21.36.39.63.53.27.15.61.22 1 .22s.73-.07 1-.21c.27-.14.49-.32.64-.53.14-.21.27-.51.35-.88.09-.37.14-.73.16-1.05.02-.33.03-.75.03-1.25v-10.5h2.53v10.5c0 .74-.05 1.42-.14 2.01-.09.6-.25 1.16-.47 1.67-.22.52-.52.95-.87 1.3-.36.35-.82.62-1.36.8-.55.2-1.19.29-1.9.29zm-4.498-16.333V173.4c0 .736.046 1.4.133 1.968.09.58.242 1.118.45 1.612.213.49.487.898.818 1.222.332.32.76.572 1.28.753.522.18 1.135.273 1.817.273.684 0 1.296-.093 1.818-.273.516-.18.948-.434 1.28-.753.33-.324.607-.733.816-1.222.21-.494.363-1.033.452-1.61.087-.58.135-1.243.135-1.97v-10.276h-2.08V173.4c0 .497-.01.92-.033 1.258-.018.34-.074.706-.17 1.098-.093.398-.22.713-.39.956s-.41.446-.715.604c-.306.16-.68.236-1.113.236-.43 0-.806-.076-1.11-.236-.31-.16-.548-.363-.716-.604-.17-.243-.298-.558-.392-.956-.09-.388-.15-.755-.17-1.098-.023-.325-.03-.736-.03-1.26v-10.274h-2.08zm23.252 16.21c-1.453 0-2.564-.428-3.33-1.28-.764-.856-1.193-2.02-1.283-3.5l2.308-.577c.12 2.307.89 3.462 2.31 3.462 1.15 0 1.73-.58 1.73-1.74 0-.34-.04-.66-.14-.95-.09-.3-.23-.56-.42-.81-.19-.25-.36-.44-.52-.59-.15-.15-.37-.33-.64-.55l-2.88-2.31c-.53-.42-.95-.94-1.26-1.58-.31-.64-.47-1.38-.47-2.19 0-1.19.37-2.14 1.11-2.84.74-.7 1.72-1.06 2.94-1.06 1.31 0 2.35.32 3.13.96.77.64 1.25 1.54 1.43 2.72.02.12.04.3.06.52l-2.3.57c0-.1-.02-.26-.04-.46-.1-.74-.33-1.32-.69-1.76-.35-.44-.88-.66-1.57-.66-.55 0-.98.15-1.28.46-.29.31-.44.74-.44 1.29 0 .91.38 1.67 1.15 2.28l2.88 2.31c1.54 1.24 2.31 2.73 2.31 4.46 0 1.19-.37 2.11-1.1 2.78-.73.67-1.71 1-2.94 1"/><path d="M506.936 179.446c-1.482 0-2.63-.443-3.414-1.317-.78-.87-1.22-2.08-1.313-3.57l-.01-.1 2.53-.63v.14c.11 2.25.82 3.35 2.19 3.35 1.08 0 1.62-.53 1.62-1.62 0-.33-.05-.64-.14-.92-.09-.28-.23-.54-.41-.77-.18-.24-.36-.43-.51-.58-.16-.15-.37-.33-.64-.54l-2.89-2.31c-.54-.42-.98-.97-1.3-1.63-.32-.65-.48-1.41-.48-2.24 0-1.22.38-2.2 1.14-2.93.76-.72 1.77-1.09 3.01-1.09 1.33 0 2.4.33 3.19.98s1.28 1.59 1.46 2.79c.02.13.04.3.06.53l.01.1-2.54.63-.01-.14c0-.1-.02-.25-.04-.46-.1-.71-.33-1.29-.67-1.7-.33-.42-.82-.63-1.48-.63-.52 0-.92.14-1.2.43-.28.28-.42.69-.42 1.21 0 .88.36 1.59 1.11 2.19l2.88 2.31c1.56 1.26 2.35 2.79 2.35 4.55 0 1.21-.38 2.18-1.13 2.87-.75.68-1.77 1.03-3.02 1.03zm-4.492-4.804c.1 1.4.52 2.52 1.248 3.334.74.825 1.83 1.244 3.244 1.244 1.196 0 2.16-.327 2.864-.973.703-.64 1.06-1.547 1.06-2.694 0-1.683-.763-3.156-2.266-4.37l-2.883-2.312c-.79-.63-1.19-1.42-1.19-2.37 0-.58.16-1.04.48-1.37.32-.33.78-.5 1.36-.5.73 0 1.28.24 1.66.71.37.45.61 1.07.72 1.82.02.13.03.24.04.33l2.08-.52c-.02-.17-.03-.31-.05-.42-.17-1.14-.64-2.03-1.38-2.65-.75-.62-1.77-.93-3.05-.93-1.18 0-2.14.35-2.86 1.03-.71.68-1.07 1.61-1.07 2.76 0 .8.16 1.52.47 2.14.31.63.72 1.14 1.23 1.55l2.89 2.31c.28.22.49.4.65.55.17.16.34.36.54.6.2.25.35.54.45.84.1.3.15.63.15.99 0 1.23-.62 1.85-1.84 1.85-1.46 0-2.27-1.15-2.41-3.43l-2.08.52zm17.964 4.528v-16.16h6.343v1.733h-4.03v5.195h2.88v1.732h-2.88v5.77h4.04v1.73"/><path d="M526.863 179.284h-6.57v-16.388h6.57v1.96h-4.034v4.965h2.88v1.97h-2.88v5.55h4.03v1.96zm-6.343-.228h6.117v-1.504H522.6v-6h2.883v-1.5H522.6v-5.424h4.037v-1.504h-6.117v15.932zm-193.09 10.996l.284-.78.21-.35.285-1.768.76-1.125c-.01-.02-.02-.04-.02-.05-.03-.12-.06-.21-.07-.31l-.01-.1c-.06-.05-.12-.09-.17-.13-.03-.02-.08-.04-.12-.06-.12-.05-.23-.11-.33-.17-.07-.01-.14-.04-.21-.06-.3-.1-.56-.27-.76-.5-.19-.02-.37-.06-.55-.14-.5-.22-.86-.67-.97-1.21-.05-.23-.19-.93.32-1.64.07-.12.15-.24.21-.36.07-.12.14-.24.22-.36l.02-.04c.07-.14.19-.35.41-.57.11-.18.23-.33.36-.45-.12-.23-.19-.47-.2-.73-.3-.22-.54-.53-.66-.92-.04-.01-.08-.02-.12-.04-.24-.08-.21-.17-.49-.3-.79-.35-.84-1.11-.84-1.94v-.08c0-.07-.29-.14-.3-.2-.05-.11-.24-.25-.28-.43-.06-.26-.12-.48-.09-.66-.04-.25-.07-.51-.02-.78.01-.07.01-.14.02-.2-.1-.11-.19-.23-.26-.36-.2-.04-.45-.11-.7-.25-.59-.34-.78-.88-.84-1.06l-.11-.28-.04-.12c-.04-.09-.07-.16-.1-.24-.05-.14-.08-.27-.09-.4-.23-.08-.44-.2-.62-.36-.06-.03-.11-.06-.16-.09-.1-.07-.2-.13-.29-.2l-.02-.01c-.51-.04-1-.27-1.46-.68-.19-.17-.38-.37-.59-.62-.05-.06-.1-.12-.14-.18-.35.22-.85.39-1.51.25l-.12-.03c-.1 0-.21-.01-.31-.01l-.28-.01c-.15-.01-.28-.02-.41-.04-.57-.11-1.02-.41-1.28-.84-.14-.04-.28-.1-.41-.17-.17-.08-.3-.18-.41-.29-.07-.03-.13-.05-.2-.09-.65-.33-.94-.85-1.01-1.36-.09-.13-.18-.26-.25-.4-.11-.2-.19-.37-.25-.53l-.04-.08c-.17-.4-.2-.85-.07-1.27l.02-.07c.05-.15.11-.35.21-.57.06-.12.12-.22.18-.31.03-.15.07-.31.15-.47.09-.51.38-1.08 1.09-1.57.14-.09.28-.18.43-.26l.08-.05c.21-.13.4-.18.47-.2l.19-.06c.01-.1.03-.2.05-.3l.03-.14.02-.18c.01-.03.01-.06.02-.09-.49-.66-.85-1.56-.61-2.18-.01-.16-.36-.29-.36-.39V157c0-.46.55-.9.89-1.22.33-.31.97-.48 1.43-.45l.18.007c.08.004 1.13.01 1.21.02.19-.1 1.59-.146 1.59-.16v-7.09H306.5l-.145 18.013-12.16.37-.14.61-.34.613.9.955.564.8.56.29.56 1.06.57.92 1.33 1 .37.85.64 1.06.92 2.69 3.75 2.55.7.14.78.57.92-.64-.14-.78.28-.426.21-.86.43-.63.29-.28 2.33-.5 2.41.85.56.218 1.84 1.554.35.426s.89 3.33 1.62 4.173c.12.13.48-.19.64.354.25.844 1.13 2.263 1.13 2.263 0 .06.64.14.64.14l.71 2.4 1.56 3.11 2.55 1.06.14.43 2.61.29 1.66.56.94-.7-1.04-1.36-.64-2.26z"/><path d="M331.786 159.94c.13.045.24.093.35.116.04.01.09-.046.13-.07.078-.06.142-.134.227-.175.08-.04.18-.05.28-.08-.04-.21.07-.38.207-.53.07-.07.218-.07.33-.1.226-.06.42.01.618.11.172.09.352.17.526.26.143.08.286.17.42.25.043.03.065.09.105.14.02 0 .06 0 .1-.02.14-.08.23-.07.31.08.06.11.09.25.16.35.06.09.09.16.07.25-.03.09-.09.17-.12.26-.03.06-.03.12-.03.19.15-.15.19-.37.4-.47.11.09-.01.14-.02.26.08-.05.13-.07.18-.11.13-.09.28-.08.43-.09.18 0 .36.06.52.15.09.05.2.08.3.11.15.05.3.1.46.12.09.02.19 0 .29-.01.15-.01.31-.03.47-.03.19 0 .35.07.52.15.48.23.84.58 1.2.95.24.23.48.47.81.6.07.02.14.05.22.06.22.04.44.05.66.09.15.03.24.16.29.29.08.22.15.45.22.67.04.15.07.32.09.49.02.16.08.33.06.49-.03.23-.09.46-.14.7-.04.21-.15.41-.25.61-.16.29-.35.56-.59.8-.23.23-.45.45-.64.7-.12.16-.17.38-.26.57-.13.26-.21.54-.41.77-.04.04-.1.08-.16.11l-.24-.21c-.01 0-.02 0-.03.01.11.17.02.29-.07.41-.02.03-.02.08-.02.11 0 .41-.01.81 0 1.21.01.22.08.43.11.65.01.11.01.22 0 .33-.01.1-.05.2-.06.3-.03.3-.05.6-.09.89-.02.1-.09.18-.14.27-.11.18-.12.39-.15.58-.02.16-.01.33-.01.49 0 .15-.05.28-.14.4-.05.06-.07.15-.09.23-.06.14-.1.28-.17.41-.03.08-.11.14-.16.21-.1.16-.16.33-.15.51.02.27-.13.44-.32.58-.1.07-.19.16-.28.24-.03.03-.03.08-.03.12-.01.12-.07.17-.19.17-.49.02-.97.05-1.46.07-.11.01-.17.06-.22.16-.05.08-.14.15-.23.2-.13.06-.18.14-.15.27 0 .03-.02.05-.03.09-.12-.04-.23-.08-.34-.11-.07-.02-.12-.02-.18.06-.06.07-.17.09-.25.15-.19.13-.4.26-.58.42-.17.16-.3.35-.47.52-.05.06-.13.1-.21.12-.01.01-.01.01-.01.02-.03.2-.07.39-.09.58-.01.05.04.1.05.16.01.03.02.07.02.1l.09.62c.01.06.04.11.07.16.11.12.07.25.02.37-.04.09-.08.18-.1.28-.05.23-.2.39-.33.57-.12.17-.23.35-.31.53-.08.17-.1.37-.16.56-.05.14-.11.27-.18.4-.06.12-.14.22-.2.33-.16.25-.33.49-.57.65h-.03c-.03-.08.04-.26.1-.29.17-.07.24-.23.33-.37.086-.12.16-.26.21-.41.04-.1.04-.2.054-.31 0-.01-.04-.05-.06-.05-.2-.05-.35.06-.36.25 0 .17-.08.32-.17.45-.13.18-.213.36-.22.59-.01.2-.03.41-.09.6-.08.29-.16.59-.45.77-.08.05-.13.04-.15-.05-.02-.07-.04-.13-.05-.2-.01-.05-.02-.1.004-.13.1-.25.06-.43-.14-.6-.25-.2-.5-.41-.77-.59-.19-.13-.43-.21-.626-.33-.09-.05-.15-.15-.26-.17-.03 0-.065-.02-.08 0-.106.06-.174-.01-.2-.08-.076-.2-.235-.3-.39-.42-.1-.085-.216-.16-.34-.21-.05-.02-.14.04-.21.07-.046.02-.08.05-.145.08-.02-.14-.03-.22.05-.33.18-.25.32-.52.487-.78.1-.15.17-.33.34-.436.04-.02.06-.09.08-.14.1-.2.3-.31.48-.44.17-.13.374-.24.56-.37.064-.04.114-.12.164-.18.01-.02.01-.07-.004-.09-.09-.16-.09-.16-.02-.26-.03-.11-.04-.19-.06-.27-.03-.09-.06-.17-.1-.25-.03-.052-.07-.102-.116-.16-.09-.1-.22-.09-.332-.07-.1.01-.148-.02-.144-.13.01-.35.01-.7.02-1.06 0-.09-.02-.12-.114-.11-.14.01-.28 0-.42 0-.13.01-.21-.02-.25-.18-.04-.17-.13-.33-.2-.49-.06-.12-.11-.23-.16-.34-.06-.16-.19-.26-.33-.32-.18-.09-.18-.07-.3.09-.036.036-.137.06-.19.04-.21-.062-.41-.143-.61-.23-.067-.033-.137-.07-.12-.18.02-.14.02-.28.01-.422-.02-.18-.04-.36-.08-.54-.02-.1-.098-.19-.11-.29-.02-.07.01-.15.03-.22.02-.08.03-.14-.01-.23-.04-.1-.04-.23-.02-.34.02-.12.1-.24.12-.36.02-.22.04-.44 0-.66-.03-.18-.11-.36-.32-.45-.15-.06-.25-.19-.28-.34-.04-.17-.07-.35-.11-.55.02.02.02.01.01.01-.27-.03-.55-.05-.82-.09-.114-.01-.24-.02-.33-.08-.06-.03-.08-.14-.12-.21l-.13-.37c-.02-.07-.06-.13-.08-.2-.01-.025-.01-.07 0-.085.12-.15.07-.3.02-.46-.04-.13-.05-.27-.09-.4-.01-.04-.057-.07-.09-.105-.08-.07-.15-.15-.246-.19-.17-.06-.347-.1-.525-.13-.12-.026-.24-.01-.34-.146-.06-.09-.21-.11-.31-.18-.13-.08-.25-.17-.38-.25-.03-.025-.08-.046-.12-.06-.08-.03-.16-.06-.24-.088-.06-.02-.13-.07-.18-.06-.27.04-.47-.09-.65-.25-.15-.13-.3-.28-.43-.43-.06-.065-.1-.16-.11-.235-.03-.36-.05-.72-.08-1.083v-.2l-.46.06c-.03 0-.07.02-.1.02-.23.02-.41.14-.59.28-.1.07-.21.12-.32.19-.08.05-.15.12-.23.17-.02.01-.02.03-.03.03-.2-.007-.29.155-.4.26-.12.094-.23.055-.33.03-.07-.01-.14-.04-.2-.04-.26-.01-.52-.01-.77-.03-.05 0-.11 0-.16-.01-.16-.02-.19-.06-.19-.22-.008-.26-.008-.53-.008-.8 0-.05 0-.096-.004-.17l-.303.265c-.18.16-.5.22-.71.11-.06-.03-.09-.09-.13-.14-.07-.12-.155-.23-.325-.22-.06.004-.13.01-.17-.02-.07-.04-.15-.09-.13-.193.05-.19-.07-.32-.17-.46-.09-.14-.19-.27-.28-.42-.08-.14-.15-.29-.21-.443-.01-.03-.02-.07-.01-.095.04-.14.08-.29.14-.42.04-.08.12-.143.18-.21.05-.06.11-.103.15-.16.02-.04.04-.11.02-.14-.07-.15-.03-.26.05-.37.03-.05.06-.1.06-.15-.02-.3.18-.47.4-.61.14-.09.28-.18.43-.26.03-.02.06-.03.09-.04l.45-.14c.19-.06.37-.11.57-.09.07.006.132 0 .192 0 .02-.015.02-.023.02-.03.04-.3.06-.603.11-.904.03-.23.09-.46.13-.69.01-.05.01-.09.01-.14.02-.1.05-.2.06-.3.01-.07.03-.14.01-.2-.06-.29-.1-.59-.34-.83-.12-.12-.11-.44-.04-.606.08-.2.22-.22.4-.21.05 0 .1-.01.16-.01-.07-.17-.17-.25-.33-.3-.05-.01-.12-.08-.12-.12-.02-.13-.01-.25-.01-.39.12 0 .22.01.32.02.18.02.357.04.535.05.17 0 .27-.07.33-.22.013 0 .04 0 .05.01.13.15.24.05.35-.03.15-.1.23-.1.32.05.05.09.1.2.09.3-.01.17.08.26.2.35.1.07.19.16.3.2.08.03.18 0 .27-.01.08-.01.15-.05.23-.06.03 0 .06.06.09.1.022.02.03.06.055.07.02.01.07-.01.07-.02.07-.17.23-.23.35-.33.27-.21.55-.42.83-.63l.15-.1c.05-.03.127-.05.086-.12-.02-.05-.08-.11-.13-.12-.256-.06-.28-.09-.32-.35-.02-.13-.1-.26-.13-.39-.04-.2-.14-.35-.24-.51-.017-.02-.02-.03-.027-.04-.01-.03-.02-.07-.04-.11.05-.01.1-.03.13-.02.14.04.26.1.39.15.05.02.1.05.14.05.25 0 .47.08.64.28.02.02.07.01.12.02-.02-.17-.02-.31.12-.4.04-.02.09-.04.132-.04.24.01.45-.07.64-.21.07-.04.15-.06.234-.08.21-.05.43-.29.45-.52.07-.03.15-.06.24-.08.1-.02.15.04.15.14v.42c.085.06.17.1.23.16.126.16.09.33.02.5-.135.33-.27.67-.176 1.04.047.19.14.37.25.53.12.16.28.3.43.45.22-.13.41-.25.61-.36.09-.05.19-.06.29-.09.06-.02.13-.05.19-.088.14-.09.3-.06.45-.06.11 0 .22.006.33.01.2 0 .2 0 .2-.19 0-.085.037-.15.1-.19.06-.036.14-.054.2-.054.12-.007.24.004.36.02.12.03.227.07.34.11.05.02.1.04.14.07.14.12.264.02.396-.01.06-.015.12-.01.19-.01.15.01.3.034.452.02.14-.01.21-.125.27-.23.12-.2.21-.42.33-.615.14-.23.21-.5.434-.68.07-.06.11-.04.14.01.063.104.13.22.173.34.06.17.1.34.14.52.012.04-.02.1-.01.15.04.18.11.36.11.56 0 .12.06.123.163.06.02-.02.07-.01.12-.02-.09.18-.07.21.11.29.18.073.23.203.16.38-.05.114-.08.234-.12.35-.01.03-.03.063-.06.07-.18.06-.24.22-.34.34-.06.08-.13.15-.21.21-.08.06-.14.12-.11.23.01.04-.06.11-.1.14-.08.06-.16.1-.24.16-.02.01-.03.034-.03.05.02 0 .04.02.06.015.11-.03.22-.06.34-.1-.01-.03-.01-.08-.02-.12.1-.01.14.04.15.12 0 .06-.03.12-.03.18 0 .05.01.1.03.14h.05c0-.08.01-.152.03-.23.01-.08.02-.17.06-.25.04-.05.12-.1.18-.1.425 0 .846 0 1.27.01.14 0 .19.11.136.22-.02.04-.03.09-.04.13-.06.25-.16.48-.34.67-.05.06-.15.08-.23.11-.12.05-.24.07-.37.11"/></g></svg>