<?xml version="1.0" encoding="UTF-8"?>
<svg width="100px" height="95px" viewBox="0 0 100 95" version="1.1" xmlns="http://www.w3.org/2000/svg" xmlns:xlink="http://www.w3.org/1999/xlink">
    <!-- Generator: Sketch 46.2 (44496) - http://www.bohemiancoding.com/sketch -->
    <title>logo-loader</title>
    <desc>Created with Sketch.</desc>
    <defs></defs>
    <g id="Homepage" stroke="none" stroke-width="1" fill="none" fill-rule="evenodd">
        <g id="logo-loader" fill="#6E181E">
            <path d="M59.569427,67.3172984 L60.2449132,69.7118018 L61.345868,71.1471869 L60.3457975,71.8868273 L58.5956741,71.2898475 L55.8279351,70.9869681 L55.6788017,70.5370385 L52.9856294,69.4155067 L51.3407766,66.1211442 L50.5907237,63.5730063 C50.5907237,63.5730063 49.9152374,63.4983839 49.9152374,63.4259562 C49.9152374,63.4259562 48.9853473,61.9247277 48.7199777,61.029258 C48.5511062,60.4542261 48.165114,60.792222 48.0444915,60.6539509 C47.2725072,59.7562865 46.3228789,56.233667 46.3228789,56.233667 L45.9522387,55.7837374 L44.0069261,54.1376536 L43.4103928,53.9093966 L40.8619675,53.013927 L38.3946882,53.5428686 L38.0942285,53.8391637 L37.6446354,54.5107659 L37.4187422,55.4128199 L37.1226687,55.8627495 L37.2696089,56.6835966 L36.2980492,57.3595884 L35.4734296,56.7582191 L34.727763,56.6089742 L30.760378,53.9137862 L29.7888183,51.0693532 L29.1155252,49.9456266 L28.7251468,49.0457675 L27.3193459,47.9944686 L26.7184263,47.0199869 L26.1240862,45.8940655 L25.5231666,45.5889913 L24.9244402,44.7461964 L23.9704255,43.7322087 L24.3279069,43.0825543 L24.4770402,42.4372894 L37.3441756,42.0488136 L37.495502,22.9849676 L51.3999913,22.9849676 L51.3999913,30.4845257 C51.3999913,30.5042787 49.9196237,30.5547586 49.7134688,30.6579132 C49.6301296,30.6491341 48.5247885,30.6447446 48.4348699,30.6425498 L48.2396807,30.6381602 C47.7528043,30.6074333 47.0838974,30.7852104 46.7286092,31.1188167 C46.3755142,31.4568126 45.7877534,31.9221056 45.7877534,32.4093465 L45.7877534,32.4905533 C45.7877534,32.5980974 46.1627799,32.7363685 46.1737455,32.9009769 C45.9259211,33.5616052 46.3053338,34.5097495 46.8229141,35.2076891 C46.8141416,35.2428055 46.8119484,35.2713376 46.8031759,35.3020645 C46.7965965,35.3657131 46.7878239,35.4315565 46.7812445,35.4930103 L46.7505406,35.6466448 C46.7286092,35.7519941 46.708871,35.8573435 46.6913259,35.9626929 L46.4895573,36.0263414 C46.4127975,36.0438997 46.2154151,36.1053535 45.989522,36.2392349 L45.908376,36.2875201 C45.7570495,36.377506 45.6079162,36.4696867 45.460976,36.5662569 C44.70873,37.0820299 44.3994976,37.6877888 44.3029996,38.2211199 C44.2240467,38.3901179 44.1757976,38.5591158 44.1450937,38.7171399 C44.0771065,38.8071258 44.0113124,38.9168647 43.9499045,39.0419671 C43.8424408,39.2768084 43.7788398,39.4897019 43.7283977,39.6477259 L43.7064663,39.7179589 C43.5682987,40.1613041 43.5946163,40.637571 43.7788398,41.0611633 L43.8117369,41.1401753 C43.8797241,41.3003942 43.9608702,41.4891451 44.0771065,41.6954543 C44.1560594,41.8425044 44.2503643,41.9807755 44.3446692,42.1212413 C44.4236221,42.6545725 44.7306613,43.2054619 45.412727,43.5588212 C45.4829074,43.5983272 45.5508946,43.6268594 45.6232681,43.6531967 C45.7395044,43.76952 45.8820583,43.8748693 46.0575093,43.9648552 C46.1934838,44.0416725 46.3382308,44.096542 46.485171,44.1404375 C46.7702788,44.5991462 47.2461896,44.9173891 47.844916,45.027128 C47.9765042,45.0490758 48.1190582,45.0644393 48.2725777,45.0688288 L48.5686513,45.0754132 C48.6739218,45.0798027 48.7835787,45.0841923 48.8888493,45.0841923 C48.9261326,45.0951662 48.9678022,45.1017505 49.0072787,45.1127244 C49.7134688,45.2641641 50.2420149,45.0841923 50.6060756,44.849351 C50.6499384,44.9151943 50.6981874,44.9788429 50.7508227,45.0402967 C50.9723295,45.3014753 51.171905,45.5077845 51.3736736,45.6899511 C51.8583569,46.1179329 52.3781304,46.3593586 52.9220284,46.4054489 L52.9373804,46.414228 C53.0382647,46.4822662 53.139149,46.5546939 53.2488058,46.6205372 C53.3014411,46.6512641 53.3540764,46.6863806 53.4132911,46.7149127 C53.604094,46.8773263 53.8256009,47.0046235 54.0690391,47.0902198 C54.0843911,47.2306856 54.115095,47.3689567 54.163344,47.5094225 C54.1940479,47.5950189 54.2247518,47.6762257 54.2686146,47.7662116 L54.3124773,47.8935088 C54.3497607,47.9988581 54.387044,48.0998179 54.4265205,48.1941934 C54.4923146,48.3807496 54.6984695,48.9579763 55.3169341,49.3157252 C55.5801106,49.4649702 55.843287,49.5395926 56.0494419,49.5812934 C56.1283948,49.7195645 56.2248929,49.8446668 56.3257772,49.9609901 C56.3104252,50.0290282 56.3104252,50.0992611 56.2994595,50.1738836 C56.2512105,50.4592048 56.2819144,50.7335521 56.3191978,50.9947308 C56.2928801,51.1834817 56.3564811,51.4249074 56.4135027,51.6948651 C56.450786,51.8814213 56.6525546,52.0350558 56.7008036,52.1491843 C56.7117693,52.2150276 57.0122291,52.2874553 57.0122291,52.359883 L57.0122291,52.4432846 C57.0122291,53.3233907 57.0692507,54.1244849 57.9004496,54.4932077 C58.2009094,54.6248944 58.1702055,54.728049 58.4224163,54.8048662 C58.4640859,54.8224245 58.5035623,54.8333984 58.5452319,54.8421775 C58.6812064,55.2482115 58.9290309,55.5774283 59.2470358,55.8100748 C59.266774,56.0888117 59.3369544,56.3456007 59.4597701,56.5826368 C59.330375,56.709934 59.1987868,56.867958 59.0781642,57.0589037 C58.8522711,57.2981346 58.722876,57.5241968 58.6461162,57.6646626 L58.6219917,57.7041686 C58.5430388,57.829271 58.466279,57.9565682 58.3917123,58.0838653 C58.3215319,58.2133572 58.2447721,58.3384596 58.1636261,58.4591724 C57.6263075,59.2141762 57.7776339,59.9538166 57.825883,60.1952422 C57.937733,60.7680794 58.3215319,61.2421516 58.850078,61.4791876 C59.0321084,61.5625892 59.2272976,61.6108743 59.426873,61.6262378 C59.6439936,61.8676634 59.9181358,62.0476353 60.2295612,62.1507899 C60.2997416,62.1727376 60.3721151,62.1968802 60.4466818,62.2100489 C60.5585318,62.2736975 60.6747681,62.3329565 60.7953906,62.3878259 C60.8392533,62.4119685 60.8896955,62.4317215 60.9182063,62.447085 C60.9752278,62.4887857 61.0344425,62.5326813 61.0980435,62.5831612 C61.1024298,62.6116933 61.1068161,62.6468098 61.1112023,62.6819263 C61.1243612,62.7872756 61.1506788,62.8904302 61.1813827,63.0089482 C61.185769,63.0287013 61.1967347,63.0462595 61.201121,63.0616229 L60.3940465,64.2511929 L60.0935867,66.1211442 L59.8698867,66.4920617 L59.569427,67.3172984 Z M64.1785239,35.460747 C64.3144984,35.5068374 64.4307347,35.5573173 64.5491641,35.5814598 C64.5908337,35.5924337 64.643469,35.5331747 64.6851386,35.5068374 C64.7684778,35.4431888 64.836465,35.3663715 64.9263836,35.322476 C65.011916,35.2807752 65.1171866,35.2698013 65.2224571,35.2368796 C65.1785944,35.015207 65.2970238,34.8308456 65.4417709,34.6772111 C65.5141444,34.6003938 65.6720503,34.5960043 65.7904797,34.5674722 C66.0295316,34.5016288 66.2356865,34.5784461 66.4440345,34.6859902 C66.6260649,34.7803657 66.8168678,34.8637673 67.0010913,34.9581427 C67.1524178,35.0415443 67.3037443,35.1315302 67.444105,35.2237109 C67.4901609,35.2522431 67.5142854,35.3115021 67.555955,35.3641768 C67.5844658,35.3597872 67.6283285,35.3597872 67.6634187,35.3378394 C67.8125521,35.2456587 67.9090501,35.2566326 67.9989687,35.4146567 C68.066956,35.5331747 68.0954667,35.6780301 68.1744197,35.7811847 C68.2446001,35.8689758 68.275304,35.9479878 68.2467932,36.0379738 C68.2138962,36.1323492 68.1568746,36.2179456 68.1239775,36.3079315 C68.0954667,36.3693853 68.0932736,36.4330339 68.099853,36.5076564 C68.2621452,36.3474375 68.3016216,36.1104014 68.5209353,36.0116364 C68.6393647,36.1016223 68.5143559,36.1608814 68.4968108,36.2793994 C68.5823432,36.2267247 68.6371716,36.2003874 68.692,36.1608814 C68.8279745,36.0665059 68.9858804,36.0708954 69.1437863,36.0665059 C69.3411686,36.0599215 69.5253921,36.1213753 69.7030362,36.2179456 C69.7995343,36.2706203 69.9113843,36.2969576 70.018848,36.3276845 C70.1811401,36.3759696 70.3434323,36.4264495 70.5101107,36.4549817 C70.6066087,36.4747347 70.7118793,36.4483973 70.8149568,36.4374234 C70.9816352,36.4264495 71.1461205,36.4066965 71.3127989,36.402307 C71.5145675,36.3979174 71.6812459,36.4747347 71.8610831,36.560331 C72.3676978,36.7973671 72.7493037,37.1726742 73.1352958,37.5589553 C73.3896997,37.8069652 73.6484899,38.05717 73.9950055,38.1932462 C74.0717653,38.2217784 74.1485251,38.2503105 74.2252849,38.2612844 C74.4577575,38.2964008 74.6968094,38.3095695 74.9227025,38.3512703 C75.0871878,38.384192 75.1771064,38.522463 75.2319349,38.6607341 C75.3218535,38.8911858 75.3964202,39.1348062 75.4644074,39.3718423 C75.5126564,39.5364507 75.5367809,39.7142277 75.5609054,39.8876152 C75.5872231,40.0610027 75.6420515,40.236585 75.6266996,40.405583 C75.602575,40.6513982 75.5302015,40.9016029 75.4863388,41.1496129 C75.4468623,41.3800646 75.3350123,41.5885686 75.2231623,41.7948777 C75.0608702,42.1043415 74.8525222,42.3874679 74.6068908,42.6464518 C74.3722251,42.8900722 74.1331732,43.1227187 73.937984,43.3904817 C73.8085889,43.566064 73.7493742,43.7965157 73.6572624,43.9962406 C73.5234811,44.2749774 73.4379487,44.5712725 73.2252144,44.8105034 C73.1791585,44.8565937 73.1133644,44.893905 73.0519566,44.9356058 C72.9686174,44.8609833 72.8852782,44.7885556 72.8041321,44.7139331 C72.7887801,44.7161279 72.7778145,44.7161279 72.7646556,44.7205175 C72.883085,44.8960998 72.7822007,45.0212021 72.6944752,45.1550836 C72.674737,45.1858105 72.6769302,45.2340956 72.6769302,45.2714069 C72.6769302,45.6993887 72.6637713,46.1207862 72.6813164,46.548768 C72.6944752,46.7748302 72.771235,47.0008923 72.8041321,47.2291493 C72.8194841,47.3476673 72.8150978,47.4661854 72.8041321,47.5803139 C72.7931664,47.6856632 72.7536899,47.786623 72.7405311,47.8919724 C72.7098272,48.2058257 72.6944752,48.5240686 72.6440331,48.8357272 C72.6308743,48.9388817 72.5497282,49.0310624 72.4948998,49.1210484 C72.3808566,49.3119941 72.3676978,49.5314719 72.3435733,49.7399759 C72.3194488,49.9089738 72.3282214,50.0867509 72.3282214,50.2557488 C72.3304145,50.4181625 72.2733929,50.5542387 72.179088,50.6859254 C72.130839,50.7539636 72.1111008,50.8439495 72.08259,50.9273511 C72.0211822,51.0700117 71.9795126,51.2236462 71.9049459,51.3619172 C71.8698557,51.4409292 71.7887096,51.5045778 71.7338812,51.5835898 C71.6286106,51.7481982 71.5672028,51.9281701 71.5803616,52.1191158 C71.6000998,52.4000474 71.4487734,52.5778245 71.2404253,52.731459 C71.139541,52.8038867 71.0386567,52.8938726 70.9487381,52.9838585 C70.9224205,53.0123906 70.9224205,53.0672601 70.9202273,53.1111557 C70.9158411,53.2340633 70.8478538,53.2867379 70.7250381,53.2911275 C70.211844,53.3130753 69.69865,53.3394126 69.1832627,53.3591656 C69.0648333,53.36575 69.0034255,53.4206194 68.9529834,53.523774 C68.9025412,53.6137599 68.8016569,53.6905772 68.707352,53.7410571 C68.5757638,53.8025109 68.5209353,53.8837177 68.5494461,54.0263783 C68.5538324,54.0527156 68.5340942,54.079053 68.5209353,54.1229486 C68.3981197,54.079053 68.2796903,54.039547 68.1590677,54.0044305 C68.0888873,53.9846775 68.0318658,53.9824827 67.9682648,54.0658843 C67.9090501,54.138312 67.7884276,54.1624546 67.7072815,54.2217136 C67.4989335,54.3643742 67.2818129,54.5026452 67.0953962,54.6716432 C66.9111727,54.8362516 66.7686188,55.0381712 66.595361,55.2159482 C66.5361463,55.277402 66.4550002,55.3169081 66.3672747,55.3454402 C66.3606953,55.3520245 66.3541159,55.3542193 66.3541159,55.3629984 C66.3212188,55.5671128 66.2817424,55.7712272 66.259811,55.9731468 C66.2510384,56.0258215 66.2949012,56.0828858 66.3146394,56.1443395 C66.3256051,56.1772612 66.3299914,56.2123777 66.3343777,56.2474941 C66.3650816,56.4625824 66.3935924,56.6864498 66.4242963,56.9059277 C66.435262,56.9629919 66.4659659,57.0200562 66.5054423,57.0683413 C66.6260649,57.1978332 66.5843953,57.3317147 66.5251806,57.4634014 C66.4900904,57.5577769 66.4462276,57.6543472 66.4242963,57.7531122 C66.371661,57.9945378 66.2137551,58.1679253 66.0755875,58.358871 C65.9571581,58.5344533 65.8387287,58.7232043 65.7510032,58.9185396 C65.6720503,59.102901 65.6501189,59.3092101 65.5865179,59.5067402 C65.5316895,59.6515956 65.4658954,59.796451 65.3913287,59.9325272 C65.3299209,60.0554348 65.2465817,60.1673685 65.1764013,60.2793022 C65.0075297,60.5426757 64.836465,60.7950752 64.5754817,60.9706575 C64.5667092,60.975047 64.5535503,60.9706575 64.5447778,60.9706575 C64.5206533,60.8872559 64.5864474,60.6963101 64.6566278,60.6633885 C64.836465,60.588766 64.9088385,60.4219628 65.0075297,60.2793022 C65.0974483,60.1476155 65.1764013,60.0027601 65.2312297,59.8491256 C65.2728993,59.7459711 65.2728993,59.6318426 65.2860581,59.5155193 C65.2904444,59.5001559 65.2465817,59.4672342 65.2224571,59.4628446 C65.0163023,59.4101699 64.8583964,59.5221037 64.8474307,59.7240233 C64.8452376,59.9039951 64.7618984,60.0554348 64.661014,60.1980954 C64.5272327,60.3824568 64.4373141,60.5777921 64.4307347,60.817023 C64.4219621,61.0277217 64.4066101,61.2471995 64.340816,61.4535087 C64.2487043,61.7519986 64.1631719,62.0702415 63.860519,62.2611872 C63.7727935,62.3160567 63.7201582,62.302888 63.6982269,62.2085125 C63.6806818,62.1360848 63.6587504,62.0658519 63.6477847,61.9912295 C63.6412053,61.9429443 63.6346259,61.8924644 63.6565573,61.8507636 C63.7574416,61.5873902 63.7201582,61.3920549 63.5074239,61.2186674 C63.2442475,61.0013844 62.9788779,60.7797117 62.6937701,60.5865712 C62.4876152,60.4483002 62.2397907,60.3670934 62.0292495,60.2354067 C61.9349446,60.182732 61.8691505,60.0817722 61.7551074,60.0576296 C61.7222103,60.0510453 61.684927,60.0378766 61.6673819,60.0510453 C61.5555319,60.1190834 61.4831584,60.0422662 61.4546476,59.9676437 C61.3756947,59.7635293 61.2068231,59.6494008 61.044531,59.5264932 C60.9348741,59.4387021 60.8142516,59.3618848 60.6804702,59.3092101 C60.6256418,59.2872624 60.5357232,59.3531057 60.4611565,59.3816378 C60.4151006,59.3991961 60.3756242,59.4321177 60.30983,59.4672342 C60.2813193,59.320184 60.2747398,59.2301981 60.3558859,59.1116801 C60.548882,58.8483067 60.6958222,58.5629854 60.8712731,58.2930277 C60.9765437,58.1328089 61.0489172,57.9462527 61.2353339,57.834319 C61.2791966,57.8101764 61.2945486,57.7377487 61.3186731,57.6872688 C61.4261368,57.4721805 61.6388711,57.3602468 61.8230946,57.2219758 C62.0095113,57.0793152 62.2222456,56.9673815 62.4174348,56.8269157 C62.4876152,56.7786305 62.5402505,56.6996185 62.5928858,56.6315804 C62.6082377,56.6140221 62.6038514,56.5635422 62.5884995,56.5415945 C62.4941946,56.368207 62.4941946,56.3725965 62.564375,56.2716367 C62.5402505,56.1575082 62.5292848,56.0697171 62.5073534,55.9885103 C62.4788426,55.8941348 62.4459456,55.8041489 62.4020828,55.7163577 C62.3735721,55.6614883 62.3275162,55.6088136 62.2836534,55.5539441 C62.1871554,55.4485948 62.0555672,55.4595687 61.9305584,55.4771269 C61.8252878,55.4881008 61.7748456,55.4529843 61.7792319,55.3388558 C61.7858113,54.9679383 61.7858113,54.5948259 61.7945839,54.2239084 C61.796777,54.1295329 61.7726525,54.0944164 61.6739613,54.098806 C61.524828,54.1075851 61.3756947,54.098806 61.2287545,54.098806 C61.0905868,54.1053903 61.0050545,54.0702739 60.9611918,53.910055 C60.9195222,53.7278884 60.8252173,53.5610853 60.7506506,53.3833082 C60.6914359,53.2582058 60.6344143,53.1396878 60.5795859,53.0167802 C60.5159849,52.8521718 60.3865898,52.7490172 60.2352634,52.6787843 C60.0466536,52.5887984 60.0466536,52.6041618 59.9106791,52.7753546 C59.8733958,52.8148606 59.765932,52.8390031 59.7089105,52.8214449 C59.4874036,52.7534068 59.2768625,52.6678104 59.061935,52.5778245 C58.9917546,52.5405133 58.917188,52.5053968 58.9303468,52.3890735 C58.9522782,52.2420234 58.9522782,52.0905837 58.9413125,51.939144 C58.9259605,51.7481982 58.901836,51.5572525 58.8579733,51.3685015 C58.8360419,51.2609574 58.757089,51.1687767 58.7373507,51.0590378 C58.7219988,50.9844153 58.7461233,50.9010137 58.7680547,50.8220017 C58.789986,50.7386001 58.805338,50.6749515 58.7614752,50.5805761 C58.7154194,50.4752267 58.7219988,50.3347609 58.741737,50.2184376 C58.7658615,50.0889457 58.8557801,49.9682329 58.868939,49.8431305 C58.8952566,49.6082892 58.9128017,49.3734479 58.8733252,49.1429961 C58.8404282,48.9498556 58.7614752,48.7611047 58.533389,48.6667292 C58.3776763,48.6052754 58.2789851,48.4648096 58.2395086,48.3045908 C58.1956459,48.1246189 58.1715214,47.935868 58.1276586,47.7251692 C58.1452037,47.7449222 58.1430106,47.7339484 58.134238,47.7339484 C57.8425508,47.7032215 57.5530567,47.6746893 57.2635626,47.6395729 C57.1407469,47.6242094 57.0091587,47.608846 56.9104675,47.549587 C56.8424803,47.5144705 56.8183558,47.400342 56.7810724,47.3191352 C56.7306303,47.1940328 56.6845744,47.0557618 56.6363254,46.9262699 C56.6122009,46.8538422 56.5705313,46.7879988 56.5464068,46.7177659 C56.5398274,46.6892338 56.5354411,46.6453382 56.5485999,46.6255852 C56.6736087,46.4697559 56.6187803,46.3051476 56.5683381,46.1405392 C56.5288617,46.0044629 56.5135097,45.8596075 56.4740333,45.7191417 C56.4630676,45.6752461 56.4148185,45.6445192 56.3775352,45.6094028 C56.2898097,45.5391699 56.2152431,45.4447944 56.118745,45.4052884 C55.9411009,45.339445 55.7546843,45.2955494 55.5660745,45.2648225 C55.4344863,45.2384852 55.3050912,45.2494591 55.2020137,45.1111881 C55.1362196,45.0190074 54.9848932,44.9904752 54.8752363,44.9224371 C54.7370687,44.8390355 54.6120599,44.7490496 54.4760854,44.6612585 C54.4409952,44.6371159 54.3971324,44.6151681 54.3532697,44.5976099 C54.2699305,44.5646882 54.1843981,44.5361561 54.0966726,44.507624 C54.0330717,44.4812866 53.9650844,44.4308067 53.9058697,44.4439754 C53.6185687,44.4856762 53.4124139,44.3452104 53.2194178,44.180602 C53.0571256,44.0357466 52.9079923,43.8799173 52.7654384,43.7196985 C52.7084168,43.6494656 52.6579747,43.5528953 52.6492021,43.4694937 C52.614112,43.0876023 52.5965669,42.7057108 52.5680561,42.3238194 C52.5636698,42.2667551 52.5680561,42.2074961 52.5680561,42.1109259 C52.3947982,42.1306789 52.2390855,42.1460423 52.0833728,42.1701849 C52.0482826,42.1723796 52.0131924,42.1899379 51.9802953,42.1899379 C51.7302777,42.2074961 51.5394748,42.336988 51.3530581,42.4796486 C51.2477875,42.5564659 51.127165,42.6091406 51.0109287,42.6793735 C50.9253964,42.7320482 50.8530229,42.8000863 50.7696837,42.8593453 C50.7565248,42.8681244 50.7499454,42.8856827 50.7411729,42.8856827 C50.5306317,42.8790983 50.4407131,43.050291 50.3157043,43.16003 C50.1950817,43.2609898 50.0810386,43.219289 49.9669955,43.1951464 C49.8946219,43.1863673 49.8266347,43.1512509 49.7608406,43.1490561 C49.4866984,43.1380822 49.2169426,43.1380822 48.9449936,43.1227187 C48.8901652,43.1227187 48.8331436,43.120524 48.7805083,43.1117448 C48.6116367,43.0854075 48.5809328,43.0480963 48.5809328,42.8790983 C48.5765466,42.5959719 48.5765466,42.3128455 48.5765466,42.0275243 C48.5765466,41.9770444 48.5721603,41.9265645 48.5699671,41.8497472 C48.4471515,41.9550966 48.3462672,42.0428877 48.247576,42.1284841 C48.0611593,42.297482 47.7190299,42.3611306 47.4931368,42.2448073 C47.4339221,42.2140804 47.3966388,42.1504319 47.3571623,42.0911728 C47.2782094,41.9594861 47.192677,41.8475524 47.0128398,41.8541368 C46.9536251,41.8585263 46.8834447,41.8651107 46.8373888,41.8365785 C46.7584359,41.7970725 46.6750967,41.7465926 46.6992212,41.6324641 C46.7518565,41.4305445 46.6180751,41.2922735 46.5171908,41.1452233 C46.4184996,40.9959784 46.3132291,40.8555126 46.2233104,40.7018781 C46.1377781,40.5504383 46.0697908,40.3902195 46.0018036,40.2300007 C45.9886448,40.197079 45.9842585,40.157573 45.9952242,40.1290409 C46.0390869,39.9819907 46.0807565,39.830551 46.1487438,39.69228 C46.1926065,39.6066836 46.2715595,39.5364507 46.3395467,39.4662178 C46.3943751,39.4069587 46.4601692,39.3564788 46.5018389,39.295025 C46.5281565,39.255519 46.5435085,39.1808966 46.5237702,39.1457801 C46.4448173,38.9965352 46.4930663,38.8780171 46.5720192,38.7551095 C46.6027232,38.7068244 46.6400065,38.6497602 46.6356202,38.5970855 C46.6202683,38.2832322 46.8286163,38.1054551 47.063282,37.9518206 C47.2124153,37.8552503 47.3637417,37.7652644 47.5128751,37.6752785 C47.543579,37.6599151 47.5830554,37.6511359 47.6115662,37.6379673 C47.7738584,37.5918769 47.9317642,37.5457866 48.087477,37.4975015 C48.2848593,37.4360477 48.4822417,37.3789834 48.6905897,37.4053208 C48.7651563,37.4119051 48.8331436,37.4075155 48.8967446,37.4075155 C48.9120965,37.3899573 48.9186759,37.3811782 48.9186759,37.3745939 C48.9581524,37.056351 48.9822769,36.7359133 49.0305259,36.4176704 C49.0612298,36.1718552 49.1248308,35.9304296 49.1665004,35.6868092 C49.1774661,35.6363293 49.175273,35.5880442 49.1818524,35.539759 C49.2015906,35.4322149 49.2301014,35.3246707 49.2410671,35.2215162 C49.2542259,35.1468937 49.2673847,35.0722712 49.2542259,35.0064279 C49.1862387,34.6969641 49.1423759,34.380916 48.8923583,34.132906 C48.7651563,34.0056089 48.776122,33.667613 48.8506887,33.4920307 C48.9340279,33.2835267 49.0853544,33.261579 49.2761573,33.2725529 C49.3265994,33.2769424 49.3770416,33.2659685 49.4406426,33.261579 C49.3726553,33.0859967 49.2608053,32.9916212 49.0919338,32.9455309 C49.0414916,32.9279726 48.9691181,32.8577397 48.9625387,32.8116494 C48.9449936,32.6777679 48.9581524,32.5482759 48.9581524,32.3968362 C49.0809681,32.4012258 49.1862387,32.4056153 49.2958955,32.4165892 C49.4845053,32.4341475 49.670922,32.45829 49.8595318,32.4670691 C50.039369,32.4736535 50.1446396,32.4012258 50.2082406,32.2366174 C50.2257857,32.2388122 50.2499102,32.2366174 50.2586827,32.2453965 C50.3990435,32.4121997 50.5152797,32.2980712 50.6293229,32.2146696 C50.7894219,32.1071255 50.8749542,32.1093203 50.9692591,32.2673443 C51.0218944,32.3617198 51.0745297,32.4824326 51.0679503,32.5855872 C51.0547915,32.7677538 51.1556758,32.8665188 51.2784915,32.9586995 C51.383762,33.0377116 51.4802601,33.1276975 51.6030757,33.171593 C51.6842218,33.2023199 51.7938787,33.1759826 51.8881836,33.1606191 C51.9737159,33.1474505 52.0526689,33.1079445 52.1338149,33.1035549 C52.1601326,33.1013601 52.1930296,33.1650087 52.2237335,33.2023199 C52.2478581,33.2220729 52.2566306,33.261579 52.2829483,33.2703581 C52.3004933,33.2769424 52.3531286,33.2593842 52.3575149,33.241826 C52.4276953,33.0640489 52.5965669,32.9960108 52.7237688,32.8906614 C53.0088766,32.6689888 53.302757,32.4517057 53.5966374,32.2322278 C53.6426933,32.1971114 53.6975217,32.1619949 53.7523501,32.1268785 C53.8071785,32.0961516 53.8861315,32.0698142 53.8422687,31.9973865 C53.8159511,31.9425171 53.7523501,31.8854528 53.6975217,31.8722842 C53.4277658,31.8108304 53.4036413,31.7735191 53.3553923,31.496977 C53.3312678,31.3609008 53.2523148,31.2226297 53.2194178,31.0865535 C53.1777482,30.8824391 53.0724776,30.7178307 52.9628208,30.5488327 C52.9496619,30.5334693 52.9430825,30.5203006 52.9386962,30.5027424 C52.9233443,30.4676259 52.9123786,30.4259251 52.8970266,30.3842244 C52.9430825,30.37764 52.9957178,30.3513027 53.0330011,30.3622766 C53.1755551,30.4083669 53.3093364,30.4698207 53.4475041,30.526885 C53.4979462,30.546638 53.5461952,30.5773649 53.5966374,30.5773649 C53.8663932,30.5839492 54.0966726,30.6673508 54.2765099,30.8802443 C54.2918618,30.9021921 54.3532697,30.8956077 54.3971324,30.8978025 C54.375201,30.7266098 54.3773942,30.5773649 54.5221412,30.476405 C54.5616177,30.4522625 54.6208324,30.4325095 54.6668883,30.4325095 C54.9212922,30.4434834 55.1384128,30.357887 55.3445676,30.2130316 C55.4125549,30.1669413 55.5024735,30.1471883 55.590199,30.1274353 C55.8117058,30.0769554 56.0419852,29.8179715 56.0683029,29.5765459 C56.1450627,29.5524033 56.2262088,29.5107025 56.3161274,29.4931443 C56.4192048,29.4777808 56.4784195,29.5370399 56.4784195,29.6423892 C56.4740333,29.7960237 56.4740333,29.9474634 56.4740333,30.0879293 C56.5639519,30.1471883 56.6538705,30.1888891 56.7152783,30.2569272 C56.8490597,30.4215356 56.8139695,30.605897 56.7394028,30.7858688 C56.5968489,31.1370334 56.454295,31.496977 56.5529862,31.8810633 C56.6034283,32.0807881 56.7043126,32.2717339 56.822742,32.4407318 C56.949944,32.6163141 57.125395,32.7633642 57.2789146,32.9169987 C57.509194,32.7831172 57.7131557,32.6536253 57.92589,32.5416916 C58.022388,32.4912117 58.134238,32.4824326 58.2395086,32.4473161 C58.3074959,32.4231736 58.3776763,32.3946415 58.4412772,32.3573302 C58.5882174,32.2563704 58.757089,32.2936816 58.9215743,32.2892921 C59.0378105,32.2870973 59.1540468,32.2936816 59.2724762,32.2980712 C59.4764379,32.2980712 59.4852105,32.2980712 59.4764379,32.0983464 C59.4742448,32.0061657 59.5137213,31.9381275 59.5860948,31.8964267 C59.6518889,31.8569207 59.7352281,31.8371677 59.8032154,31.8371677 C59.9304173,31.8327782 60.0554261,31.8437521 60.180435,31.8635051 C60.3010575,31.8898424 60.4172938,31.9381275 60.5401094,31.9798283 C60.5905516,31.9973865 60.64538,32.0193343 60.6848565,32.0544508 C60.8317967,32.1773584 60.9611918,32.072009 61.1015525,32.0412821 C61.1651535,32.0281134 61.2309476,32.032503 61.301128,32.032503 C61.4634202,32.0412821 61.621326,32.0698142 61.7836182,32.0544508 C61.9305584,32.0434769 62.0095113,31.9227641 62.0709191,31.8130252 C62.2003142,31.5979369 62.2902328,31.3674851 62.4196279,31.1611759 C62.5731475,30.9219451 62.6477142,30.6388187 62.8823799,30.4478729 C62.9591397,30.3842244 62.9986161,30.4039774 63.0337063,30.4588468 C63.1038867,30.5707805 63.1740671,30.6914933 63.220123,30.8187905 C63.2837239,30.9965676 63.3275867,31.1831237 63.3714494,31.3674851 C63.3868014,31.4135755 63.3495181,31.4750293 63.3604837,31.5255092 C63.4065396,31.7208445 63.47672,31.9074006 63.4789132,32.1180994 C63.4789132,32.2497861 63.5381279,32.2519809 63.652171,32.1817479 C63.6806818,32.1619949 63.7311239,32.170774 63.7815661,32.1619949 C63.6916474,32.3507459 63.7069994,32.3836676 63.8978023,32.4670691 C64.0886053,32.5482759 64.1456268,32.686547 64.068867,32.8731032 C64.0228112,32.9960108 63.9899141,33.1233079 63.9482445,33.2440207 C63.9416651,33.2769424 63.9153474,33.3120589 63.8824504,33.320838 C63.6982269,33.3822918 63.6346259,33.5512897 63.5293553,33.6829764 C63.4723337,33.7641832 63.3933808,33.8366109 63.3122347,33.9002595 C63.2310887,33.9661029 63.1696808,34.0319462 63.1938053,34.1482695 C63.2025779,34.192165 63.1367838,34.2602032 63.092921,34.2975144 C63.0139681,34.3567734 62.9240495,34.4028638 62.8385171,34.459928 C62.8231652,34.4709019 62.8143926,34.4972393 62.8056201,34.5169923 C62.8319377,34.5213818 62.8560622,34.5411348 62.8736073,34.5345505 C62.9898436,34.5016288 63.1038867,34.4709019 63.2310887,34.4313959 C63.2223161,34.4028638 63.2179298,34.3567734 63.2091573,34.3062935 C63.316621,34.301904 63.3604837,34.3545787 63.3670632,34.4335907 C63.3714494,34.499434 63.3429386,34.5630826 63.3429386,34.6311207 C63.3429386,34.6794059 63.3604837,34.7298858 63.3780288,34.7759761 C63.3977671,34.7759761 63.413119,34.7737813 63.4328573,34.7737813 C63.4394367,34.6903798 63.443823,34.6069782 63.4613681,34.5235766 C63.47672,34.4335907 63.4876857,34.3370204 63.5337416,34.2602032 C63.5688318,34.2031389 63.6565573,34.1460747 63.7201582,34.1460747 C64.1675582,34.1416851 64.612765,34.1482695 65.0623581,34.1592434 C65.2114915,34.1592434 65.2619336,34.2667875 65.204912,34.3918899 C65.1829807,34.4335907 65.1764013,34.4862654 65.1654356,34.5279662 C65.1106072,34.7913396 64.996564,35.0327652 64.8079542,35.23249 C64.7553189,35.2917491 64.6522415,35.3136969 64.5667092,35.342229 C64.4417003,35.3905141 64.3144984,35.4168514 64.1785239,35.460747 Z" id="Combined-Shape"></path>
        </g>
    </g>
</svg>