<?xml version="1.0" encoding="UTF-8"?>
<svg width="100px" height="95px" viewBox="0 0 100 95" version="1.1" xmlns="http://www.w3.org/2000/svg" xmlns:xlink="http://www.w3.org/1999/xlink">
    <!-- Generator: Sketch 46.2 (44496) - http://www.bohemiancoding.com/sketch -->
    <title>logo-loader</title>
    <desc>Created with Sketch.</desc>
    <defs></defs>
    <g id="Homepage" stroke="none" stroke-width="1" fill="none" fill-rule="evenodd">
        <g id="logo-loader" fill="#6E181E">
            <path d="M68.6145121,85.7244207 L69.9153947,90.3358662 L72.0356645,93.1001974 L70.1096824,94.5246311 L66.7392137,93.3749398 L61.4089736,92.7916406 L61.1217657,91.9251453 L55.9351296,89.7652474 L52.7673958,83.4208114 L51.3229092,78.5134895 C51.3229092,78.5134895 50.0220265,78.3697781 50.0220265,78.2302935 C50.0220265,78.2302935 48.231201,75.3391581 47.72014,73.6146212 C47.3949193,72.507198 46.6515578,73.1581261 46.4192573,72.8918373 C44.9325342,71.1630736 43.1036959,64.3790498 43.1036959,64.3790498 L42.3898999,63.5125545 L38.6435268,60.3424499 L37.4946953,59.9028621 L32.5868198,58.1783252 L27.8352191,59.1969855 L27.2565797,59.7676043 L26.3907325,61.061007 L25.955697,62.7982243 L25.3855049,63.6647196 L25.6684892,65.245545 L23.7974144,66.5474013 L22.2093239,65.3892565 L20.7732845,65.1018336 L13.1327106,59.9113157 L11.2616359,54.433375 L9.96497685,52.2692502 L9.21316803,50.5362597 L6.50581155,48.5116196 L5.34853281,46.6349177 L4.203925,44.4665661 L3.04664625,43.8790401 L1.89359115,42.2559465 L0.0563055566,40.3031621 L0.7447597,39.0520275 L1.03196756,37.8093465 L25.8120931,37.0612018 L26.1035246,0.347163792 L52.8814342,0.347163792 L52.8814342,14.7901603 C52.8814342,14.8282016 50.0304738,14.9254181 49.6334512,15.124078 C49.4729527,15.1071708 47.3442356,15.0987172 47.1710661,15.0944904 L46.7951617,15.0860368 C45.8575125,15.0268615 44.5693008,15.3692328 43.8850703,16.0117073 C43.2050634,16.6626354 42.0731265,17.5587183 42.0731265,18.4970693 L42.0731265,18.6534611 C42.0731265,18.8605746 42.7953698,19.1268634 42.8164881,19.4438739 C42.3392162,20.7161425 43.0699068,22.5421228 44.066687,23.8862471 C44.0497924,23.953876 44.0455688,24.0088245 44.0286742,24.0679998 C44.0160033,24.1905771 43.9991087,24.3173813 43.9864378,24.4357319 L43.9273067,24.7316083 C43.8850703,24.934495 43.8470575,25.1373817 43.8132683,25.3402684 L43.424693,25.4628458 C43.2768654,25.4966602 42.8967373,25.6150108 42.4617019,25.872846 L42.305427,25.9658357 C42.0139955,26.1391348 41.7267876,26.3166606 41.4438034,26.5026401 C39.9950932,27.4959395 39.3995592,28.662538 39.2137188,29.6896519 C39.0616676,30.015116 38.9687474,30.3405801 38.9096164,30.6449101 C38.7786834,30.8182092 38.651974,31.0295495 38.533712,31.2704774 C38.3267534,31.7227457 38.2042677,32.1327459 38.1071238,32.4370759 L38.0648874,32.5723337 C37.7987977,33.4261485 37.8494815,34.3433655 38.2042677,35.159139 L38.2676223,35.3113041 C38.3985553,35.6198609 38.5548302,35.9833662 38.7786834,36.380686 C38.9307346,36.663882 39.1123514,36.9301708 39.2939681,37.2006864 C39.4460193,38.2278003 40.0373296,39.2887286 41.3508832,39.9692444 C41.4860399,40.0453269 41.6169729,40.1002754 41.7563532,40.1509971 C41.9802064,40.3750178 42.2547433,40.5779045 42.5926349,40.7512035 C42.8545009,40.8991418 43.1332615,41.0048119 43.4162457,41.089348 C43.9653195,41.9727505 44.8818505,42.5856374 46.0349056,42.7969777 C46.2883243,42.8392458 46.5628612,42.8688334 46.8585164,42.877287 L47.4287085,42.8899674 C47.6314434,42.8984211 47.8426257,42.9068747 48.0453606,42.9068747 C48.1171626,42.9280087 48.1974119,42.9406891 48.2734375,42.9618232 C49.6334512,43.2534728 50.6513496,42.9068747 51.3524747,42.4546064 C51.4369476,42.5814106 51.5298678,42.703988 51.6312353,42.8223385 C52.0578234,43.3253285 52.4421751,43.7226483 52.8307505,44.0734732 C53.764176,44.8977004 54.7651799,45.362649 55.8126439,45.451412 L55.8422094,45.4683192 C56.0364971,45.5993502 56.2307848,45.7388348 56.441967,45.865639 C56.5433345,45.9248142 56.644702,45.9924431 56.7587404,46.0473916 C57.1261975,46.3601753 57.5527857,46.60533 58.0216103,46.7701755 C58.0511758,47.0406911 58.1103068,47.3069798 58.203227,47.5774954 C58.262358,47.7423409 58.3214891,47.8987327 58.405962,48.0720318 L58.4904349,48.3171865 C58.5622368,48.5200732 58.6340388,48.7145063 58.7100644,48.896259 C58.8367738,49.2555375 59.2337964,50.3671875 60.4248643,51.0561569 C60.9317017,51.3435797 61.4385391,51.4872911 61.8355617,51.5676004 C61.987613,51.8338892 62.1734533,52.0748172 62.367741,52.2988379 C62.3381755,52.4298689 62.3381755,52.5651267 62.3170573,52.7088381 C62.2241371,53.2583229 62.2832681,53.7866736 62.3550701,54.2896636 C62.3043863,54.6531689 62.4268721,55.1181176 62.5366868,55.6380147 C62.6084888,55.9972932 62.9970641,56.2931697 63.0899843,56.5129636 C63.1111026,56.6397678 63.6897419,56.7792524 63.6897419,56.918737 L63.6897419,57.0793556 C63.6897419,58.7743049 63.7995567,60.3170891 65.4003182,61.0271925 C65.9789575,61.2808009 65.9198265,61.4794608 66.4055457,61.627399 C66.4857949,61.6612135 66.5618206,61.6823475 66.6420698,61.6992547 C66.9039358,62.4812138 67.3812077,63.1152348 67.9936362,63.5632762 C68.031649,64.1000806 68.1668057,64.5946169 68.4033298,65.051112 C68.1541347,65.2962667 67.900716,65.6005968 67.6684156,65.9683289 C67.2333801,66.4290508 66.9841851,66.8644118 66.8363575,67.1349274 L66.7898974,67.2110099 C66.6378462,67.4519378 66.4900186,67.6970926 66.3464147,67.9422474 C66.211258,68.1916289 66.0634304,68.4325569 65.9071556,68.6650312 C64.8723625,70.1190525 65.163794,71.5434862 65.2567142,72.0084348 C65.4721201,73.1116312 66.211258,74.0246214 67.2291565,74.4811164 C67.579719,74.6417351 67.9556234,74.7347248 68.3399751,74.7643124 C68.758116,75.2292611 69.2860716,75.5758592 69.8858292,75.7745191 C70.0209859,75.8167872 70.1603661,75.863282 70.3039701,75.8886429 C70.519376,76.0112202 70.7432292,76.125344 70.9755296,76.2310142 C71.0600025,76.277509 71.1571464,76.3155503 71.2120538,76.3451379 C71.3218685,76.4254472 71.4359069,76.5099834 71.5583927,76.6071999 C71.5668399,76.6621484 71.5752872,76.7297773 71.5837345,76.7974062 C71.6090764,77.0002929 71.6597601,77.1989528 71.7188912,77.4272003 C71.7273385,77.4652416 71.7484567,77.499056 71.756904,77.5286436 L70.2026026,79.8195726 L69.6239632,83.4208114 L69.1931514,84.1351416 L68.6145121,85.7244207 Z M77.4909245,24.3735979 C77.7527905,24.4623608 77.9766437,24.5595773 78.2047205,24.6060722 C78.2849698,24.6272062 78.3863372,24.5130825 78.4665865,24.4623608 C78.627085,24.3397834 78.758018,24.1918452 78.9311875,24.1073091 C79.0959096,24.0269998 79.2986446,24.0058657 79.5013795,23.9424636 C79.4169066,23.5155562 79.6449835,23.1605045 79.923744,22.8646281 C80.0631243,22.7166899 80.3672268,22.7082362 80.5953036,22.6532878 C81.0556809,22.5264836 81.4527036,22.6744218 81.8539498,22.8815353 C82.2045124,23.063288 82.5719695,23.2239066 82.9267557,23.4056592 C83.2181872,23.5662779 83.5096187,23.7395769 83.779932,23.9171028 C83.8686285,23.9720513 83.9150886,24.086175 83.9953379,24.1876184 C84.0502453,24.1791648 84.1347182,24.1791648 84.2022965,24.1368967 C84.4895043,23.9593709 84.6753447,23.9805049 84.8485142,24.2848349 C84.9794472,24.5130825 85.0343546,24.7920517 85.1864058,24.9907115 C85.3215624,25.1597838 85.3806935,25.3119488 85.3257861,25.4852479 C85.2624314,25.6670005 85.1526166,25.831846 85.0892619,26.005145 C85.0343546,26.1234956 85.0301309,26.246073 85.0428019,26.3897844 C85.3553516,26.0812275 85.4313772,25.6247325 85.8537417,25.4345262 C86.0818185,25.6078252 85.8410708,25.721949 85.8072816,25.9501965 C85.9720038,25.8487532 86.0775949,25.7980315 86.183186,25.721949 C86.445052,25.5401963 86.7491545,25.54865 87.0532569,25.5401963 C87.433385,25.5275159 87.7881711,25.6458665 88.1302864,25.831846 C88.3161268,25.9332893 88.5315327,25.984011 88.7384913,26.0431863 C89.051041,26.136176 89.3635907,26.2333925 89.6845878,26.288341 C89.8704281,26.3263823 90.0731631,26.2756606 90.2716744,26.2545266 C90.5926715,26.2333925 90.9094448,26.1953513 91.2304419,26.1868977 C91.6190172,26.1784441 91.9400142,26.3263823 92.2863531,26.4912277 C93.2620151,26.9477228 93.9969294,27.6705066 94.7402909,28.4144245 C95.2302337,28.8920536 95.7286238,29.3739095 96.3959598,29.6359715 C96.5437873,29.69092 96.6916149,29.7458684 96.8394425,29.7670025 C97.2871489,29.8346314 97.7475262,29.8599922 98.1825616,29.9403015 C98.499335,30.0037036 98.6725044,30.2699924 98.7780956,30.5362812 C98.951265,30.9800958 99.0948689,31.4492713 99.2258019,31.9057664 C99.3187221,32.2227768 99.3651822,32.5651481 99.4116423,32.8990658 C99.4623261,33.2329835 99.5679172,33.571128 99.5383517,33.8965921 C99.4918916,34.3699943 99.3525113,34.8518502 99.2680384,35.3294793 C99.1920128,35.773294 98.9766069,36.1748406 98.761201,36.5721603 C98.4486512,37.16814 98.047405,37.713398 97.5743567,38.2121611 C97.1224267,38.6813366 96.6620494,39.129378 96.286145,39.6450484 C96.0369499,39.9831929 95.9229115,40.4270075 95.7455184,40.8116469 C95.4878761,41.3484513 95.3231539,41.9190701 94.9134603,42.3797919 C94.8247638,42.4685549 94.6980544,42.5404106 94.5797924,42.6207199 C94.4192939,42.4770085 94.2587954,42.3375239 94.1025205,42.1938125 C94.072955,42.1980393 94.0518367,42.1980393 94.0264949,42.2064929 C94.2545717,42.5446374 94.060284,42.7855653 93.8913382,43.0434005 C93.8533254,43.1025758 93.8575491,43.1955655 93.8575491,43.2674212 C93.8575491,44.0916484 93.8322072,44.9031952 93.8659964,45.7274224 C93.8913382,46.1627834 94.0391658,46.5981445 94.1025205,47.0377323 C94.132086,47.2659798 94.1236387,47.4942274 94.1025205,47.7140213 C94.0814023,47.916908 94.0053767,48.1113411 93.9800348,48.3142277 C93.9209038,48.918661 93.8913382,49.5315479 93.7941944,50.1317544 C93.7688525,50.3304143 93.6125777,50.5079401 93.5069865,50.6812392 C93.287357,51.0489713 93.2620151,51.4716519 93.215555,51.8731985 C93.1690949,52.1986626 93.1859895,52.5410339 93.1859895,52.8664979 C93.1902132,53.1792816 93.0803984,53.4413436 92.8987816,53.6949519 C92.8058615,53.8259829 92.7678487,53.999282 92.7129413,54.1599006 C92.5946792,54.434643 92.5144299,54.7305194 92.370826,54.9968082 C92.3032477,55.1489733 92.1469728,55.2715506 92.0413817,55.4237157 C91.8386467,55.7407261 91.7203847,56.0873242 91.7457266,56.4550563 C91.7837394,56.9960875 91.4923078,57.3384588 91.0910616,57.6343353 C90.8967739,57.7738199 90.7024862,57.9471189 90.5293168,58.120418 C90.478633,58.1753664 90.478633,58.2810366 90.4744094,58.3655727 C90.4659621,58.6022739 90.3350291,58.7037172 90.098505,58.7121708 C89.110172,58.7544389 88.1218391,58.8051606 87.1292825,58.8432018 C86.9012057,58.8558822 86.7829436,58.9615524 86.6857998,59.1602123 C86.5886559,59.3335113 86.3943683,59.4814495 86.2127515,59.5786661 C85.9593328,59.6970166 85.8537417,59.8534085 85.9086491,60.1281509 C85.9170964,60.1788725 85.8790836,60.2295942 85.8537417,60.3141303 C85.6172176,60.2295942 85.3891407,60.1535117 85.1568403,60.0858828 C85.0216836,60.0478416 84.9118689,60.0436147 84.7893831,60.2042334 C84.6753447,60.343718 84.4430443,60.3902129 84.2867694,60.5043366 C83.8855231,60.779079 83.4673822,61.0453678 83.1083724,61.3708319 C82.7535862,61.6878423 82.4790493,62.0767085 82.1453813,62.4190798 C82.0313429,62.5374304 81.8750681,62.6135129 81.7061223,62.6684614 C81.6934513,62.6811418 81.6807804,62.6853686 81.6807804,62.7022758 C81.6174257,63.0953688 81.5414001,63.4884617 81.4991637,63.8773279 C81.4822691,63.9787713 81.566742,64.0886682 81.6047548,64.2070188 C81.625873,64.2704209 81.6343203,64.3380498 81.6427676,64.4056787 C81.7018986,64.8199057 81.756806,65.2510399 81.815937,65.6737205 C81.8370553,65.7836175 81.8961863,65.8935144 81.9722119,65.9865042 C82.2045124,66.2358857 82.1242631,66.4937209 82.0102247,66.7473293 C81.9426464,66.9290819 81.8581735,67.1150614 81.815937,67.3052677 C81.7145695,67.7702163 81.4104671,68.104134 81.1443775,68.4718662 C80.9163006,68.8100107 80.6882238,69.173516 80.519278,69.5497017 C80.3672268,69.9047534 80.3249903,70.3020732 80.2025046,70.6824858 C80.0969135,70.961455 79.9702041,71.2404242 79.8266002,71.5024862 C79.7083381,71.7391873 79.5478396,71.9547544 79.412683,72.1703215 C79.0874623,72.6775383 78.758018,73.163621 78.2554043,73.5017655 C78.2385097,73.5102191 78.2131678,73.5017655 78.1962732,73.5017655 C78.1498131,73.3411468 78.2765225,72.9734147 78.4116791,72.9100126 C78.758018,72.7663012 78.8973983,72.4450639 79.0874623,72.1703215 C79.2606318,71.9167132 79.412683,71.637744 79.5182741,71.3418675 C79.5985234,71.1432076 79.5985234,70.9234137 79.6238652,70.699393 C79.6323125,70.6698053 79.5478396,70.6064033 79.5013795,70.5979496 C79.1043569,70.4965063 78.8002545,70.7120734 78.7791362,71.1009396 C78.7749126,71.4475377 78.6144141,71.7391873 78.4201264,72.0139297 C78.1624841,72.3689814 77.9893146,72.7451672 77.9766437,73.205889 C77.9597491,73.6116624 77.9301836,74.034343 77.8034742,74.4316628 C77.6260811,75.0065084 77.461359,75.6193953 76.878496,75.9871275 C76.7095502,76.0927976 76.6081827,76.0674368 76.5659462,75.8856841 C76.5321571,75.7461995 76.4899206,75.6109417 76.4688024,75.4672303 C76.4561315,75.3742406 76.4434605,75.277024 76.485697,75.1967147 C76.6799846,74.689498 76.6081827,74.3133122 76.1984891,73.9793945 C75.6916517,73.5609407 75.1805907,73.1340333 74.6315168,72.7620744 C74.2344942,72.4957856 73.7572223,72.3393938 73.3517523,72.0857854 C73.1701356,71.9843421 73.0434263,71.789909 72.8237967,71.7434141 C72.760442,71.7307337 72.6886401,71.7053728 72.6548509,71.7307337 C72.439445,71.8617647 72.3000647,71.7138265 72.2451573,71.5701151 C72.0931061,71.1770221 71.7678855,70.9572282 71.4553357,70.720527 C71.2441535,70.5514548 71.011853,70.4035166 70.7542106,70.3020732 C70.6486195,70.2598052 70.4754501,70.3866093 70.3318461,70.4415578 C70.2431496,70.4753723 70.167124,70.5387744 70.0404146,70.6064033 C69.9855072,70.3232072 69.9728363,70.1499082 70.1291112,69.9216607 C70.5007919,69.4144439 70.7837762,68.8649591 71.1216678,68.345062 C71.3244027,68.0365051 71.463783,67.6772266 71.8227928,67.4616595 C71.9072657,67.4151646 71.9368313,67.27568 71.9832913,67.1784635 C72.19025,66.7642365 72.5999435,66.5486694 72.9547297,66.2823806 C73.3137395,66.0076382 73.7234331,65.7920711 74.0993375,65.5215555 C74.2344942,65.4285658 74.3358616,65.2764007 74.4372291,65.1453697 C74.4667946,65.1115553 74.4583473,65.0143388 74.4287818,64.9720707 C74.2471651,64.638153 74.2471651,64.6466066 74.3823217,64.4521735 C74.3358616,64.2323796 74.3147434,64.0633074 74.272507,63.9069155 C74.2175996,63.7251629 74.1542449,63.5518638 74.069772,63.3827916 C74.0148646,63.2771214 73.9261681,63.1756781 73.8416952,63.0700079 C73.6558548,62.8671212 73.4024361,62.8882553 73.1616883,62.9220697 C72.9589534,62.9432038 72.8618095,62.8755749 72.8702568,62.6557809 C72.8829277,61.9414507 72.8829277,61.2228937 72.8998223,60.5085634 C72.904046,60.3268108 72.8575859,60.2591819 72.6675218,60.2676355 C72.380314,60.2845427 72.0931061,60.2676355 71.8101219,60.2676355 C71.5440323,60.2803159 71.3793101,60.212687 71.2948372,59.9041301 C71.2145879,59.5533052 71.0329712,59.232068 70.8893673,58.8896967 C70.7753289,58.6487687 70.6655141,58.4205212 70.559923,58.1838201 C70.4374373,57.8668096 70.1882422,57.6681497 69.8968107,57.5328919 C69.5335772,57.3595929 69.5335772,57.3891805 69.2717112,57.7188714 C69.1999093,57.7949539 68.9929507,57.8414488 68.8831359,57.8076343 C68.4565477,57.6766033 68.0510778,57.5117579 67.6371606,57.3384588 C67.5020039,57.2666031 67.3584,57.1989742 67.3837419,56.9749535 C67.4259783,56.6917575 67.4259783,56.4001079 67.4048601,56.1084582 C67.3752946,55.7407261 67.3288345,55.372994 67.2443616,55.0094887 C67.2021251,54.8023752 67.0500739,54.6248493 67.0120611,54.413509 C66.9824956,54.2697976 67.0289557,54.1091789 67.0711922,53.9570139 C67.1134286,53.7963953 67.1429941,53.6738179 67.0585212,53.4920653 C66.9698247,53.2891786 66.9824956,53.018663 67.0205084,52.7946422 C67.0669685,52.5452607 67.240138,52.3127863 67.2654798,52.0718584 C67.3161636,51.6195901 67.3499527,51.1673219 67.2739271,50.7235072 C67.2105724,50.3515483 67.0585212,49.988043 66.6192621,49.8062903 C66.3193833,49.6879397 66.1293193,49.4174241 66.0532937,49.1088673 C65.9688208,48.7622692 65.9223607,48.3987639 65.8378878,47.9929905 C65.871677,48.0310317 65.8674533,48.0098977 65.8505587,48.0098977 C65.2888139,47.9507224 64.7312928,47.8957739 64.1737716,47.828145 C63.9372475,47.7985574 63.6838288,47.7689698 63.4937648,47.654846 C63.3628318,47.5872171 63.3163717,47.3674232 63.2445697,47.2110314 C63.1474259,46.9701034 63.0587294,46.7038146 62.9658092,46.4544331 C62.9193491,46.3149485 62.8390998,46.1881443 62.7926397,46.0528865 C62.7799688,45.997938 62.7715215,45.9134019 62.7968634,45.8753606 C63.0376111,45.5752574 62.93202,45.2582469 62.8348762,44.9412365 C62.7588506,44.6791745 62.729285,44.4002053 62.6532594,44.1296897 C62.6321412,44.0451536 62.539221,43.9859783 62.467419,43.9183494 C62.2984732,43.7830916 62.1548693,43.6013389 61.9690289,43.5252564 C61.6269137,43.3984522 61.2679038,43.3139161 60.9046704,43.2547408 C60.6512517,43.2040191 60.4020566,43.2251532 60.2035453,42.9588644 C60.0768359,42.7813385 59.7854044,42.7263901 59.5742222,42.5953591 C59.3081325,42.4347404 59.0673848,42.2614414 58.8055188,42.0923691 C58.7379405,42.0458743 58.6534676,42.0036062 58.5689947,41.9697918 C58.4084961,41.9063897 58.243774,41.8514412 58.0748282,41.7964927 C57.9523425,41.745771 57.8214095,41.6485545 57.7073711,41.6739153 C57.1540736,41.7542246 56.7570509,41.483709 56.3853702,41.1666986 C56.0728204,40.8877294 55.7856126,40.5876262 55.5110756,40.2790693 C55.4012609,40.1438115 55.304117,39.957832 55.2872225,39.7972134 C55.2196441,39.0617491 55.185855,38.3262849 55.1309476,37.5908206 C55.1225003,37.4809236 55.1309476,37.3667999 55.1309476,37.1808204 C54.7972796,37.2188617 54.4974008,37.2484493 54.197522,37.2949442 C54.1299437,37.299171 54.0623654,37.3329854 53.9990107,37.3329854 C53.5175152,37.3667999 53.1500581,37.6161814 52.7910482,37.8909238 C52.5883133,38.0388621 52.3560128,38.1403054 52.1321596,38.2755632 C51.9674374,38.3770065 51.8280572,38.5080375 51.6675586,38.6221613 C51.6422168,38.6390685 51.6295458,38.672883 51.6126513,38.672883 C51.2071813,38.6602026 51.0340119,38.9898934 50.7932641,39.2012337 C50.5609636,39.3956668 50.3413341,39.3153575 50.1217046,39.2688626 C49.9823243,39.2519554 49.8513913,39.1843265 49.7246819,39.1800997 C49.1967263,39.1589657 48.6772179,39.1589657 48.153486,39.129378 C48.0478948,39.129378 47.9380801,39.1251512 47.8367126,39.108244 C47.5114919,39.0575223 47.4523609,38.9856666 47.4523609,38.6602026 C47.4439136,38.1149446 47.4439136,37.5696866 47.4439136,37.0202018 C47.4439136,36.9229852 47.4354663,36.8257687 47.4312427,36.6778305 C47.1947185,36.8807172 47.0004309,37.0497894 46.8103668,37.2146349 C46.451357,37.5400989 45.7924684,37.6626763 45.3574329,37.4386556 C45.2433945,37.3794803 45.1715926,37.2569029 45.0955669,37.1427792 C44.9435157,36.8891708 44.7787936,36.6736037 44.4324547,36.6862841 C44.3184163,36.6947377 44.1832596,36.7074181 44.0945631,36.6524696 C43.9425118,36.5763871 43.7820133,36.4791706 43.8284734,36.2593767 C43.9298409,35.8705105 43.6721986,35.6042217 43.4779109,35.3210257 C43.2878469,35.0336029 43.0851119,34.7630873 42.9119424,34.4672109 C42.7472203,34.1755613 42.6162873,33.8670044 42.4853543,33.5584476 C42.4600124,33.4950455 42.4515651,33.418963 42.4726834,33.3640145 C42.5571563,33.0808185 42.6374055,32.7891688 42.7683385,32.5228801 C42.8528114,32.3580346 43.0048626,32.2227768 43.1357956,32.087519 C43.2413868,31.9733953 43.3680961,31.8761787 43.4483454,31.7578282 C43.4990291,31.6817456 43.5285946,31.5380342 43.4905818,31.4704053 C43.3385306,31.1829825 43.4314508,30.954735 43.583502,30.7180338 C43.642633,30.6250441 43.714435,30.5151472 43.7059877,30.4137038 C43.6764222,29.8092705 44.0776685,29.4668992 44.5295985,29.1710228 C44.8168064,28.9850433 45.1082379,28.8117443 45.3954457,28.6384452 C45.4545768,28.6088576 45.5306024,28.5919504 45.5855098,28.5665895 C45.8980595,28.4778266 46.2021619,28.3890637 46.5020407,28.2960739 C46.8821688,28.1777234 47.2622969,28.0678264 47.6635431,28.1185481 C47.8071471,28.1312285 47.9380801,28.1227749 48.0605658,28.1227749 C48.0901313,28.0889604 48.1028022,28.0720532 48.1028022,28.0593728 C48.1788278,27.4464859 48.2252879,26.8293722 48.3182081,26.2164853 C48.3773391,25.743083 48.4998249,25.2781344 48.5800741,24.8089589 C48.6011923,24.7117423 48.5969687,24.6187526 48.6096396,24.5257629 C48.6476524,24.3186494 48.7025598,24.1115359 48.723678,23.912876 C48.7490199,23.7691646 48.7743618,23.6254532 48.7490199,23.498649 C48.6180869,22.9026693 48.533614,22.2940092 48.0521185,21.8163801 C47.8071471,21.5712254 47.8282653,20.9202972 47.9718692,20.5821528 C48.1323677,20.1806062 48.4237992,20.1383381 48.7912564,20.1594721 C48.8884002,20.1679258 48.985544,20.1467917 49.1080297,20.1383381 C48.9770967,19.8001936 48.7616908,19.618441 48.4364702,19.529678 C48.3393263,19.4958636 48.1999461,19.3606058 48.1872751,19.2718429 C48.153486,19.0140077 48.1788278,18.7646261 48.1788278,18.4729765 C48.415352,18.4814301 48.6180869,18.4898837 48.8292692,18.5110178 C49.1925026,18.5448322 49.5515125,18.5913271 49.9147459,18.6082343 C50.2610848,18.6209147 50.4638198,18.4814301 50.5863055,18.1644197 C50.6200947,18.1686465 50.6665548,18.1644197 50.6834493,18.1813269 C50.9537626,18.5025641 51.1776158,18.2827702 51.3972454,18.1221516 C51.7055714,17.9150381 51.8702936,17.9192649 52.0519103,18.2235949 C52.1532778,18.4053476 52.2546453,18.6378219 52.2419744,18.8364818 C52.2166325,19.1873067 52.4109202,19.377513 52.6474443,19.5550389 C52.8501793,19.7072039 53.0360196,19.8805029 53.2725438,19.9650391 C53.4288186,20.0242143 53.6400009,19.9734927 53.8216176,19.943905 C53.9863398,19.9185442 54.138391,19.8424617 54.2946659,19.8340081 C54.3453496,19.8297813 54.4087043,19.9523586 54.4678353,20.0242143 C54.5142954,20.0622556 54.53119,20.1383381 54.5818737,20.1552453 C54.6156629,20.1679258 54.7170304,20.1341113 54.7254777,20.1002969 C54.8606343,19.7579256 55.185855,19.6268946 55.4308264,19.4240079 C55.9799002,18.9971005 56.5458687,18.5786467 57.1118371,18.155966 C57.2005337,18.0883371 57.3061248,18.0207082 57.4117159,17.9530793 C57.517307,17.8939041 57.6693583,17.8431824 57.5848854,17.7036978 C57.5342016,17.5980276 57.4117159,17.4881307 57.3061248,17.4627698 C56.7866164,17.3444193 56.7401564,17.2725636 56.6472362,16.739986 C56.6007761,16.477924 56.4487248,16.2116352 56.3853702,15.9495732 C56.3051209,15.5564803 56.1023859,15.2394698 55.8912037,14.9140057 C55.8658618,14.8844181 55.8531909,14.8590573 55.8447436,14.8252428 C55.8151781,14.7576139 55.7940599,14.6773046 55.7644943,14.5969953 C55.8531909,14.5843149 55.9545584,14.5335932 56.0263603,14.5547272 C56.3008973,14.6434902 56.5585396,14.7618407 56.8246293,14.8717377 C56.9217731,14.9097789 57.0146933,14.9689542 57.1118371,14.9689542 C57.6313455,14.9816346 58.0748282,15.1422533 58.4211671,15.5522535 C58.4507326,15.5945215 58.5689947,15.5818411 58.6534676,15.5860679 C58.6112311,15.256377 58.6154548,14.9689542 58.8942153,14.7745211 C58.9702409,14.7280263 59.0842794,14.689985 59.1729759,14.689985 C59.6629187,14.711119 60.0810596,14.5462736 60.4780822,14.2673044 C60.6090152,14.1785415 60.7821847,14.1405002 60.9511305,14.102459 C61.3777186,14.0052424 61.8212014,13.5064793 61.8718851,13.0415306 C62.0197127,12.9950358 62.1759875,12.9147264 62.349157,12.880912 C62.5476683,12.8513244 62.6617067,12.9654481 62.6617067,13.1683348 C62.6532594,13.4642112 62.6532594,13.7558609 62.6532594,14.0263765 C62.8264289,14.1405002 62.9995983,14.2208095 63.1178604,14.3518405 C63.3755027,14.668851 63.3079244,15.0239027 63.1643205,15.3705008 C62.8897835,16.0467898 62.6152466,16.739986 62.8053106,17.4796771 C62.9024545,17.8643164 63.0967422,18.2320486 63.324819,18.5575126 C63.5697904,18.8956571 63.907682,19.1788531 64.2033372,19.4747296 C64.6468199,19.2168944 65.0396189,18.9675128 65.4493125,18.7519457 C65.6351528,18.6547292 65.8505587,18.6378219 66.0532937,18.570193 C66.1842267,18.5236982 66.3193833,18.4687497 66.441869,18.396894 C66.7248533,18.2024609 67.0500739,18.2743166 67.3668473,18.265863 C67.5907005,18.2616362 67.8145537,18.2743166 68.0426305,18.2827702 C68.4354295,18.2827702 68.4523241,18.2827702 68.4354295,17.8981309 C68.4312059,17.720605 68.5072315,17.589574 68.6466118,17.5092647 C68.7733211,17.4331822 68.9338196,17.3951409 69.0647526,17.3951409 C69.309724,17.3866873 69.5504718,17.4078214 69.7912196,17.4458626 C70.02352,17.4965843 70.2473732,17.589574 70.4838974,17.6698833 C70.5810412,17.7036978 70.6866323,17.7459658 70.7626579,17.8135947 C71.0456421,18.0502959 71.2948372,17.8474092 71.5651505,17.7882339 C71.6876362,17.7628731 71.8143455,17.7713267 71.9495022,17.7713267 C72.2620519,17.7882339 72.5661544,17.8431824 72.8787041,17.8135947 C73.1616883,17.7924607 73.3137395,17.5599864 73.4320016,17.3486461 C73.6811967,16.9344191 73.8543661,16.4906044 74.1035612,16.0932847 C74.3992163,15.6325628 74.5428203,15.0873048 74.9947503,14.7195727 C75.1425778,14.5969953 75.2186035,14.6350365 75.2861818,14.7407067 C75.4213384,14.9562738 75.5564951,15.1887481 75.6451916,15.4339029 C75.7676773,15.7762742 75.8521502,16.1355527 75.9366231,16.4906044 C75.9661886,16.5793674 75.8943867,16.6977179 75.9155049,16.7949345 C76.0042014,17.1711202 76.1393581,17.5303987 76.1435817,17.9361721 C76.1435817,18.1897805 76.2576201,18.1940073 76.4772497,18.0587495 C76.5321571,18.0207082 76.6293009,18.0376155 76.7264447,18.0207082 C76.5532753,18.3842136 76.5828408,18.4476157 76.9502979,18.6082343 C77.317755,18.7646261 77.4275698,19.0309149 77.2797422,19.3901934 C77.1910457,19.6268946 77.127691,19.8720493 77.0474418,20.1045237 C77.0347708,20.1679258 76.9840871,20.2355547 76.9207324,20.2524619 C76.5659462,20.3708125 76.4434605,20.6962765 76.2407256,20.9498849 C76.1309108,21.1062767 75.9788596,21.2457613 75.8225847,21.3683387 C75.6663098,21.4951429 75.5480478,21.6219471 75.5945079,21.8459678 C75.6114024,21.9305039 75.4846931,22.0615349 75.4002202,22.1333906 C75.248169,22.2475144 75.0749995,22.3362773 74.9102774,22.4461743 C74.8807119,22.4673083 74.8638173,22.51803 74.8469227,22.5560712 C74.8976064,22.5645248 74.9440665,22.6025661 74.9778557,22.5898857 C75.2017089,22.5264836 75.4213384,22.4673083 75.6663098,22.3912258 C75.6494153,22.3362773 75.640968,22.2475144 75.6240734,22.1502978 C75.831032,22.1418442 75.9155049,22.2432876 75.9281758,22.3954526 C75.9366231,22.5222568 75.8817157,22.6448341 75.8817157,22.7758651 C75.8817157,22.8688549 75.9155049,22.9660714 75.9492941,23.0548343 C75.9873069,23.0548343 76.0168724,23.0506075 76.0548852,23.0506075 C76.0675561,22.8899889 76.0760034,22.7293703 76.1097926,22.5687516 C76.1393581,22.3954526 76.1604763,22.2094731 76.2491729,22.0615349 C76.3167512,21.9516379 76.485697,21.841741 76.6081827,21.841741 C77.4698063,21.8332874 78.3272062,21.8459678 79.1930535,21.8671018 C79.4802613,21.8671018 79.5774052,22.0742153 79.4675904,22.3151433 C79.4253539,22.3954526 79.412683,22.4968959 79.3915648,22.5772052 C79.2859736,23.084422 79.0663441,23.5493707 78.7031106,23.93401 C78.6017431,24.0481338 78.4032318,24.0904018 78.2385097,24.1453503 C77.9977619,24.2383401 77.7527905,24.2890617 77.4909245,24.3735979 Z" id="Combined-Shape"></path>
        </g>
    </g>
</svg>