<?xml version="1.0" encoding="UTF-8"?>
<svg width="75px" height="69px" viewBox="0 0 75 69" version="1.1" xmlns="http://www.w3.org/2000/svg" xmlns:xlink="http://www.w3.org/1999/xlink">
    <!-- Generator: Sketch 45.2 (43514) - http://www.bohemiancoding.com/sketch -->
    <title>Shape</title>
    <desc>Created with Sketch.</desc>
    <defs></defs>
    <g id="eClub" stroke="none" stroke-width="1" fill="none" fill-rule="evenodd">
        <g id="eClub---XL" transform="translate(-1136.000000, -718.000000)" fill-rule="nonzero" fill="#16546B">
            <g id="Group-3" transform="translate(775.000000, 319.000000)">
                <g id="Group-6" transform="translate(338.000000, 399.000000)">
                    <path d="M26.1432755,48.3745439 L23.1734766,41.7707494 C22.7319216,40.7967247 23.1622836,39.6490928 24.1354166,39.205576 L25.7310155,38.4803038 L24.6621933,36.1288949 C23.3547541,33.2257228 24.641752,29.8119355 27.5403789,28.4944503 L42.1756091,21.8448492 L43.1680869,24.0435692 C49.1000503,20.0965614 53.0470581,15.0501935 57.2460026,4.69025227 C57.0017178,4.05684691 57.0217384,3.35191931 57.3015791,2.73339962 C57.5814198,2.11487993 58.0976876,1.63447254 58.7347193,1.39980667 C60.024992,1.00113942 61.4118926,1.61319884 61.9869927,2.83508224 L68.0945483,16.2640702 C71.6649061,16.0170207 75.0131007,18.0137505 76.4927764,21.2724386 C77.9724521,24.5311267 77.2722681,28.3661077 74.7365151,30.8916659 L80.8898774,44.442805 C81.4560793,45.6915373 81.0005025,47.1664263 79.8286896,47.878305 C79.2324902,48.203795 78.5305933,48.2763609 77.8804141,48.0797283 C77.2302349,47.8830957 76.6861875,47.4337211 76.3702862,46.8323861 C65.8423872,43.1754872 59.4065504,42.8090339 52.5355503,44.6794728 L53.5356626,46.8781928 L48.7030592,49.0692784 L58.2079426,64.3076297 C58.6091942,64.9670418 58.4551995,65.8222038 57.8491237,66.3002197 L55.7191137,67.9492597 C55.0740875,68.4441269 54.1544186,68.3467897 53.6272759,67.7278609 L40.2135568,52.9170384 L38.9004324,53.5125251 C35.9972603,54.8199643 32.583473,53.5329665 31.2659878,50.6343395 L30.3269512,48.6417495 L28.7313522,49.3670217 C28.2572759,49.5844553 27.7155975,49.6017505 27.2286161,49.4150025 C26.7416347,49.2282545 26.3504113,48.8532093 26.1432755,48.3745439 L26.1432755,48.3745439 Z M77.294054,15.6609491 C80.1075775,17.5456077 81.6265003,20.8488961 81.2257929,24.211527 C81.04347,25.44127 81.7333367,26.6342963 82.8901018,27.0897126 L83.0962318,27.166057 C83.8598642,27.4595174 84.715193,27.3923453 85.4236533,26.9832762 C86.1321135,26.5742071 86.6178916,25.8670162 86.7454963,25.0589503 C87.4920091,19.5188248 85.0072211,14.0392446 80.3478318,10.9504968 C79.6553827,10.5128755 78.8021564,10.4119137 78.0266938,10.6758379 C77.2512313,10.939762 76.6367403,11.5402529 76.3550173,12.3094279 L76.2786729,12.5155579 C75.862176,13.6867746 76.3083577,14.9905112 77.3551295,15.6609491 L77.294054,15.6609491 Z M84.1650541,0.300446654 C83.4636389,-0.0593552794 82.6407939,-0.0978348002 81.9088617,0.194938078 C81.1769295,0.487710957 80.6076139,1.08305472 80.3478318,1.82733556 L80.3478318,1.93421779 C79.884415,3.21222999 80.4394851,4.63582164 81.6456874,5.26283561 C89.856904,9.54690607 94.0686678,18.8948132 91.8376708,27.8836948 C91.5069825,29.2258205 92.2363267,30.6023755 93.5325175,31.082527 L93.6470342,31.1283337 C94.3748877,31.4020349 95.1848681,31.3527405 95.8741587,30.9927939 C96.5634493,30.6328472 97.0667829,29.9963306 97.2581265,29.2426259 C100.078655,17.7312989 94.6730074,5.78213859 84.1650541,0.300446654 L84.1650541,0.300446654 Z" id="Shape"></path>
                </g>
            </g>
        </g>
    </g>
</svg>